<svg width="65" height="65" viewBox="0 0 65 65" fill="none" xmlns="http://www.w3.org/2000/svg">
<g clip-path="url(#clip0_133_448)">
<path d="M58.4993 0.000902384C58.0583 -0.00163664 57.6182 0.0427963 57.1864 0.133185C57.1549 0.145119 57.124 0.158703 57.0939 0.17381C57.0243 0.195899 56.9573 0.225352 56.8939 0.261533C56.8353 0.293271 56.7798 0.330594 56.7284 0.372996C56.6752 0.418445 56.6268 0.469098 56.5837 0.524195C56.5411 0.575864 56.5037 0.631469 56.4718 0.690247C56.4401 0.751311 56.4146 0.815421 56.3954 0.881562C56.3738 0.95037 56.3596 1.02121 56.3529 1.09306C56.3445 1.12582 56.3378 1.15895 56.3328 1.19234V7.58433H34.2695C32.8565 3.02247 28.6084 -0.0642236 23.8333 0.00115628C19.0582 -0.0642236 14.81 3.02259 13.3972 7.58433H8.66697V1.19234C8.66201 1.15882 8.65529 1.12569 8.64691 1.09294C8.64018 1.02121 8.62583 0.950497 8.60438 0.881816C8.58534 0.815548 8.55969 0.751311 8.52795 0.69012C8.49596 0.631469 8.45851 0.575991 8.41611 0.524322C8.2837 0.360428 8.10648 0.238682 7.90589 0.173937C7.87581 0.15883 7.84483 0.145246 7.81335 0.133312C7.38158 0.0429232 6.94157 -0.00138275 6.50042 0.00102933C4.77515 -0.00328701 3.11945 0.680091 1.89945 1.89996C0.679326 3.11984 -0.00405187 4.77554 0.000264464 6.5008V58.5C0.00419995 62.0881 2.91202 64.996 6.50016 64.9999H58.4993C62.0875 64.996 64.9953 62.0881 64.9993 58.5V6.5008C64.9953 2.91265 62.0875 0.00483787 58.4993 0.000902384ZM47.6662 9.75075H56.3328V13.0007H47.6662V9.75075ZM34.6365 9.75075H38.9997V27.0838H27.0892C29.8816 22.5927 34.6663 14.1722 34.6663 10.3114C34.6664 10.1222 34.6471 9.9375 34.6365 9.75075ZM23.8332 2.16758C28.4716 2.03301 32.3459 5.67371 32.4998 10.3115C32.4998 13.6559 27.4669 22.595 24.4061 27.3676C24.2685 27.4918 24.1659 27.65 24.1083 27.8261C24.0289 27.9479 23.9441 28.0806 23.8681 28.1957C20.834 23.7102 15.1666 13.8598 15.1666 10.3115C15.3206 5.67371 19.1949 2.03301 23.8332 2.16758ZM8.66684 9.75075H13.03C13.0195 9.9375 13.0002 10.1222 13.0002 10.3115C13.0002 14.1726 17.7852 22.5936 20.577 27.0839H8.66684V9.75075ZM2.16694 6.5008C2.16516 5.35278 2.61812 4.25072 3.42693 3.43595C4.24284 2.62257 5.34821 2.16643 6.50016 2.16745V52C4.89893 52.0005 3.35482 52.5951 2.16694 53.6687V6.5008ZM6.50016 62.8332C4.1079 62.8308 2.16922 60.8921 2.16694 58.5C2.16935 56.1077 4.10802 54.169 6.50016 54.1668C6.78695 54.1645 7.07309 54.1925 7.35391 54.2503C7.39288 54.2531 7.43198 54.2537 7.47109 54.2519C7.50815 54.2616 7.54561 54.2692 7.58344 54.2747C7.61809 54.2747 7.64729 54.2582 7.68119 54.255C8.03297 54.2271 8.34667 54.0231 8.51475 53.7128C8.55068 53.6497 8.57988 53.583 8.60171 53.5139C8.61695 53.4836 8.63053 53.4527 8.64246 53.4211C8.64513 53.3823 8.64577 53.3435 8.64399 53.3046C8.65376 53.2673 8.66125 53.2296 8.66671 53.1914V35.7503H38.9995V40.7183L16.8846 62.8332H6.50016ZM38.9997 62.8332H29.1461L38.9997 52.9796V62.8332ZM45.8167 50.1505C45.6134 50.3538 45.4994 50.6294 45.4996 50.9167V62.8332H41.1663V50.3645C41.1651 49.9266 40.9006 49.5324 40.4959 49.3652C40.0912 49.198 39.6257 49.2906 39.3158 49.5999L26.0824 62.8332H19.9485L40.8476 41.9343C41.0503 41.7303 41.1648 41.4546 41.1662 41.167V34.6671C41.1663 34.3797 41.0523 34.104 40.8491 33.9009C40.6458 33.6977 40.3702 33.5837 40.0829 33.5838H8.66684V29.2506H21.9676C22.0003 29.2994 22.0428 29.3646 22.0729 29.4093C22.4718 29.988 23.1296 30.3337 23.8324 30.3338C24.5352 30.334 25.1933 29.9888 25.5926 29.4103C25.6231 29.3653 25.6656 29.2998 25.6986 29.2506H40.0829C40.3703 29.2507 40.646 29.1367 40.8491 28.9334C41.0523 28.7302 41.1663 28.4546 41.1662 28.1673V9.75075H45.4994V14.084C45.4993 14.3714 45.6133 14.647 45.8166 14.8501C46.0198 15.0532 46.2954 15.1674 46.5827 15.1672H56.3325V19.5005H46.5827C46.2953 19.5003 46.0197 19.6143 45.8166 19.8176C45.6134 20.0208 45.4993 20.2965 45.4994 20.5837V44.4167C45.4993 44.7041 45.6133 44.9797 45.8166 45.1828C46.0198 45.3859 46.2954 45.5001 46.5827 45.4999H56.3325V49.8332H46.5827C46.2955 49.8333 46.0199 49.9474 45.8167 50.1505ZM56.3327 21.6673V43.3336H47.6661V21.6673H56.3327ZM58.4993 62.8332H47.6662V52.0001H56.3328V53.1913C56.3383 53.2294 56.3459 53.2671 56.3555 53.3044C56.3539 53.3432 56.3544 53.3821 56.3572 53.4209C56.3691 53.4525 56.3827 53.4834 56.3979 53.5136C56.42 53.5833 56.4495 53.6505 56.4859 53.7141C56.617 53.9564 56.8401 54.1358 57.1049 54.212C57.1745 54.2338 57.2461 54.2483 57.3186 54.2551C57.3523 54.2583 57.3815 54.2748 57.4162 54.2748C57.4906 54.2526 57.5684 54.2443 57.6457 54.2504C57.9265 54.1927 58.2127 54.1646 58.4995 54.1669C60.8926 54.1669 62.8327 56.107 62.8327 58.5001C62.8326 60.8931 60.8925 62.8332 58.4993 62.8332ZM62.8326 53.6689C61.6446 52.5952 60.1006 52.0006 58.4993 52.0001V2.16758C60.8916 2.16999 62.8303 4.10866 62.8326 6.5008V53.6689Z" fill="#0495CE"/>
<path d="M29.25 10.8341C29.25 7.84266 26.8248 5.41751 23.8334 5.41751C20.8419 5.41751 18.4167 7.84253 18.4167 10.8341C18.4203 13.8242 20.8433 16.2472 23.8334 16.2508C26.825 16.2508 29.25 13.8256 29.25 10.8341ZM23.8334 14.0841C22.0385 14.0841 20.5834 12.629 20.5834 10.8341C20.5853 9.04006 22.0393 7.58609 23.8334 7.58419C25.6282 7.58419 27.0833 9.03917 27.0833 10.8341C27.0833 12.6291 25.6283 14.0841 23.8334 14.0841Z" fill="#0495CE"/>
</g>
<defs>
<clipPath id="clip0_133_448">
<rect width="65" height="65" fill="white"/>
</clipPath>
</defs>
</svg>
