<svg width="65" height="65" viewBox="0 0 65 65" fill="none" xmlns="http://www.w3.org/2000/svg">
<g clip-path="url(#clip0_133_470)">
<path d="M62.8334 21.081H55.6954C55.6629 21.0474 55.6368 21.0095 55.6011 20.9727L52.0001 17.7552V10.2477C52.0001 9.05108 51.03 8.08102 49.8334 8.08102H46.5834C45.3868 8.08102 44.4167 9.05108 44.4167 10.2477V10.9682L38.2731 5.46916C37.4534 4.73569 36.2134 4.73569 35.3937 5.46916L18.0657 20.9727C18.03 21.0052 18.004 21.0431 17.9714 21.081H10.8334V17.831C10.8334 14.8395 8.40825 12.4143 5.4167 12.4143C2.42516 12.4143 0 14.8395 0 17.831V54.6643V54.6805C0.00170598 56.1151 0.573529 57.4902 1.58944 58.5031C2.60535 59.516 3.98219 60.0836 5.4167 60.081H62.8334C64.03 60.081 65.0001 59.111 65.0001 57.9143V23.2477C65 22.0511 64.0299 21.081 62.8334 21.081ZM46.5834 10.2477H49.8334V15.816L46.5834 12.9072V10.2477ZM36.828 7.0843L54.1613 22.6518L52.7324 24.331L37.556 10.7503C37.1446 10.3821 36.5222 10.3821 36.1108 10.7503L20.9441 24.331L19.5109 22.5976L36.828 7.0843ZM40.0833 40.581H33.5833V31.9143C33.5833 31.316 34.0683 30.831 34.6666 30.831H38.9999C39.5982 30.831 40.0832 31.316 40.0832 31.9143V40.581H40.0833ZM39 28.6643H34.6667C32.8718 28.6643 31.4167 30.1194 31.4167 31.9143V40.581H24.9167C24.3184 40.581 23.8334 40.096 23.8334 39.4977V24.6463L36.8333 13.0113L49.8333 24.6463V39.4977C49.8333 40.096 49.3483 40.581 48.75 40.581H42.25V31.9143C42.25 30.1194 40.7949 28.6643 39 28.6643ZM5.4167 14.581C7.21161 14.581 8.6667 16.0361 8.6667 17.831V22.1481V22.1643V22.1805L8.68835 50.3472C7.39329 49.37 5.73103 49.0187 4.1514 49.3885C3.43265 49.5554 2.75665 49.8705 2.1667 50.3136V17.831C2.1667 16.0361 3.62169 14.581 5.4167 14.581ZM62.8334 57.9144H5.4167C4.42638 57.9167 3.48948 57.4651 2.87415 56.6892C2.40895 56.1114 2.15881 55.39 2.1667 54.6482V54.6352C2.16915 54.3824 2.19933 54.1307 2.25659 53.8845C2.53765 52.7039 3.45941 51.7822 4.63995 51.5011C5.5938 51.268 6.60183 51.4774 7.38402 52.0709C8.02984 52.5651 8.90149 52.6464 9.6276 52.28C10.3666 51.9144 10.8339 51.161 10.8333 50.3365V23.2477H17.4297C17.5145 23.5467 17.6622 23.8241 17.863 24.0613L19.2973 25.7393C19.8779 26.4236 20.8223 26.6754 21.6666 26.3708V39.4977C21.6666 41.2926 23.1217 42.7477 24.9166 42.7477H48.7499C50.5448 42.7477 51.9999 41.2926 51.9999 39.4977V26.3688C52.2316 26.453 52.476 26.4967 52.7225 26.4977H52.8698C53.4516 26.4579 53.9925 26.1845 54.3692 25.7394L55.8046 24.0614C56.0052 23.8244 56.153 23.5474 56.2379 23.2489H62.8334V57.9144Z" fill="#0495CE"/>
<path d="M16.25 44.9143C15.0533 44.9143 14.0833 45.8844 14.0833 47.081V53.581C14.0833 54.7777 15.0533 55.7477 16.25 55.7477H57.4167C58.6133 55.7477 59.5834 54.7777 59.5834 53.581V47.081C59.5834 45.8844 58.6133 44.9143 57.4167 44.9143H16.25ZM16.25 53.581V47.081H18.4167V50.331C18.4167 50.9293 18.9017 51.4143 19.5 51.4143C20.0982 51.4143 20.5833 50.9293 20.5833 50.331V47.081H22.75V48.1643C22.75 48.7626 23.235 49.2476 23.8333 49.2476C24.4315 49.2476 24.9166 48.7626 24.9166 48.1643V47.081H27.0833V50.331C27.0833 50.9293 27.5683 51.4143 28.1666 51.4143C28.7648 51.4143 29.2498 50.9293 29.2498 50.331V47.081H31.4165V48.1643C31.4165 48.7626 31.9016 49.2476 32.4998 49.2476C33.0981 49.2476 33.5831 48.7626 33.5831 48.1643V47.081H35.7498V50.331C35.7498 50.9293 36.2349 51.4143 36.8331 51.4143C37.4314 51.4143 37.9164 50.9293 37.9164 50.331V47.081H40.0831V48.1643C40.0831 48.7626 40.5682 49.2476 41.1664 49.2476C41.7647 49.2476 42.2497 48.7626 42.2497 48.1643V47.081H44.4164V50.331C44.4164 50.9293 44.9015 51.4143 45.4997 51.4143C46.098 51.4143 46.583 50.9293 46.583 50.331V47.081H48.7497V48.1643C48.7497 48.7626 49.2348 49.2476 49.833 49.2476C50.4313 49.2476 50.9163 48.7626 50.9163 48.1643V47.081H53.083V50.331C53.083 50.9293 53.5681 51.4143 54.1663 51.4143C54.7646 51.4143 55.2496 50.9293 55.2496 50.331V47.081H57.4163V53.581H16.25Z" fill="#0495CE"/>
</g>
<defs>
<clipPath id="clip0_133_470">
<rect width="65" height="65" fill="white"/>
</clipPath>
</defs>
</svg>
