<svg width="65" height="65" viewBox="0 0 65 65" fill="none" xmlns="http://www.w3.org/2000/svg">
<g clip-path="url(#clip0_133_490)">
<path d="M3.25024 23.8333H14.0835C15.8784 23.8333 17.3335 22.3782 17.3335 20.5833V17.3333H19.5002V56.3333H11.9169C8.9269 56.3369 6.50387 58.7599 6.50024 61.75V62.8333C6.50024 64.0299 7.47031 65 8.66695 65H39.0002C40.1969 65 41.1669 64.0299 41.1669 62.8333V61.75C41.1633 58.7599 38.7403 56.3369 35.7502 56.3333H28.1669V35.75H34.7818C35.3892 35.7491 35.9801 35.5519 36.4663 35.1878L42.208 30.8793C42.9144 30.349 43.3311 29.5179 43.3337 28.6347V17.3333H49.8337V28.0215C49.732 28.068 49.6343 28.1223 49.5412 28.184L37.6386 37.8083C37.1887 38.1706 36.9029 38.6981 36.8447 39.2729C36.7867 39.8476 36.9614 40.4216 37.3298 40.8666L38.7187 42.5435C39.064 42.9567 39.5504 43.2269 40.0836 43.3018V53.0833C40.0836 54.8782 41.5387 56.3333 43.3337 56.3333H58.5004C60.2953 56.3333 61.7504 54.8782 61.7504 53.0833V43.3008C62.2838 43.2265 62.7704 42.9561 63.1154 42.5425L64.5042 40.8655C64.8724 40.4206 65.0472 39.8467 64.9893 39.2721C64.9315 38.6975 64.6459 38.1699 64.1965 37.8073L61.7504 35.8314V30.3334C61.7504 29.1368 60.7803 28.1667 59.5837 28.1667H57.417C56.2203 28.1667 55.2502 29.1368 55.2502 30.3334V30.5761L52.2927 28.1841C52.1995 28.1228 52.1018 28.0688 52.0002 28.0227V17.3333H62.8335C63.6325 17.3332 64.3665 16.8934 64.7434 16.189C65.1203 15.4847 65.0791 14.63 64.6362 13.9652L61.7503 9.63197C61.3476 9.02784 60.6693 8.66542 59.9433 8.6667H51.0599L28.0358 2.38336C27.6476 0.979873 26.3731 0.00597093 24.9169 0H22.7502C21.2642 0.00479807 19.9707 1.01687 19.6086 2.45811L2.98049 8.69378C1.30063 8.83058 0.00536208 10.2312 0.000244141 11.9167V20.5834C0.000244141 22.3783 1.45534 23.8333 3.25024 23.8333ZM48.7502 54.1667V48.75C48.7502 48.1517 49.2353 47.6667 49.8335 47.6667H52.0002C52.5985 47.6667 53.0835 48.1517 53.0835 48.75V54.1667H48.7502ZM58.5003 54.1667H55.2502V48.75C55.2502 46.9551 53.7952 45.5 52.0002 45.5H49.8335C48.0386 45.5 46.5835 46.9551 46.5835 48.75V54.1667H43.3335C42.7353 54.1667 42.2502 53.6817 42.2502 53.0834V42.4668L50.9169 35.593L59.5837 42.4668V53.0834C59.5837 53.6817 59.0986 54.1667 58.5003 54.1667ZM57.417 30.3333H59.5837V34.0794L57.417 32.3277V30.3333ZM62.8337 39.4854L61.447 41.1613C61.4397 41.1657 61.4305 41.1657 61.4231 41.1613L61.4069 41.1504L51.5908 33.3666C51.1963 33.0533 50.6377 33.0533 50.2432 33.3666L40.3849 41.1666L39.0004 39.4939L50.9301 29.8684L62.8337 39.4854ZM9.2248 8.6667L19.5002 4.81332V8.6667H9.2248ZM28.1669 4.6681L42.8267 8.6667H28.1669V4.6681ZM50.9169 10.8333H56.9685L53.0837 14.7181L49.1988 10.8333H50.9169ZM36.3851 15.1667H28.6154L32.5002 11.2819L36.3851 15.1667ZM35.1154 10.8333H42.8851L39.0002 14.7181L35.1154 10.8333ZM41.6154 15.1667L45.9487 10.8334H46.1351L50.4684 15.1667H41.6154ZM29.8851 10.8333L26.0002 14.7181L22.1154 10.8333H29.8851ZM17.3336 10.8333H19.0518L23.3851 15.1666H17.3335V10.8333H17.3336ZM39.0002 61.75V62.8333H8.66695V61.75C8.66695 59.9551 10.122 58.5 11.9169 58.5H35.7502C37.5452 58.5 39.0002 59.9551 39.0002 61.75ZM21.6669 56.3334V17.3333H26.0002V56.3333H21.6669V56.3334ZM35.1653 33.4556C35.0545 33.5383 34.9201 33.5832 34.7818 33.5834H28.1669V29.2501H40.7737L35.1653 33.4556ZM41.1669 27.0833H28.1669V17.3333H41.1669V27.0833ZM62.8337 15.1667H55.6944L59.9746 10.8865L62.8337 15.1667ZM21.6669 3.25C21.6669 2.65173 22.152 2.1667 22.7502 2.1667H24.9169C25.5152 2.1667 26.0002 2.65173 26.0002 3.25V8.6667H21.6669V3.25ZM2.16695 11.9167C2.16695 11.3184 2.65198 10.8334 3.25024 10.8334H5.41695V14.0834C5.41695 14.6817 5.90198 15.1667 6.50024 15.1667C7.09851 15.1667 7.58354 14.6817 7.58354 14.0834V10.8334H9.75025V14.0834C9.75025 14.6817 10.2353 15.1667 10.8335 15.1667C11.4318 15.1667 11.9168 14.6817 11.9168 14.0834V10.8334H15.1668V20.5834C15.1668 21.1817 14.6818 21.6667 14.0835 21.6667H3.25024C2.65198 21.6667 2.16695 21.1817 2.16695 20.5834V11.9167Z" fill="#0495CE"/>
<path fill-rule="evenodd" clip-rule="evenodd" d="M33.2663 19.8174C32.8432 19.3945 32.1575 19.3945 31.7344 19.8174L30.6511 20.9007C30.3695 21.1727 30.2565 21.5755 30.3556 21.9543C30.4548 22.333 30.7506 22.6289 31.1293 22.7279C31.508 22.8271 31.9109 22.7142 32.1829 22.4325L33.2662 21.3492C33.6891 20.9262 33.6891 20.2405 33.2663 19.8174Z" fill="#0495CE"/>
<path fill-rule="evenodd" clip-rule="evenodd" d="M37.1511 19.8174L32.8178 24.1507C32.5363 24.4227 32.4232 24.8255 32.5224 25.2043C32.6216 25.583 32.9173 25.8789 33.2961 25.9779C33.6748 26.0771 34.0776 25.9642 34.3496 25.6825L38.6829 21.3492C39.0934 20.9241 39.0875 20.2484 38.6697 19.8305C38.2518 19.4128 37.5761 19.4069 37.1511 19.8174Z" fill="#0495CE"/>
</g>
<defs>
<clipPath id="clip0_133_490">
<rect width="65" height="65" fill="white"/>
</clipPath>
</defs>
</svg>
