<svg width="65" height="65" viewBox="0 0 65 65" fill="none" xmlns="http://www.w3.org/2000/svg">
<g clip-path="url(#clip0_133_458)">
<path d="M44.4167 13H46.5834C46.8707 13 47.1462 12.8859 47.3494 12.6827C47.5526 12.4795 47.6667 12.204 47.6667 11.9167C47.6667 11.6293 47.5526 11.3538 47.3494 11.1506C47.1462 10.9475 46.8707 10.8333 46.5834 10.8333H44.4167C44.1294 10.8333 43.8538 10.9475 43.6507 11.1506C43.4475 11.3538 43.3334 11.6293 43.3334 11.9167C43.3334 12.204 43.4475 12.4795 43.6507 12.6827C43.8538 12.8859 44.1294 13 44.4167 13Z" fill="#0495CE"/>
<path d="M28.1667 13H40.0834C40.3707 13 40.6462 12.8859 40.8494 12.6827C41.0526 12.4795 41.1667 12.204 41.1667 11.9167C41.1667 11.6293 41.0526 11.3538 40.8494 11.1506C40.6462 10.9475 40.3707 10.8333 40.0834 10.8333H28.1667C27.8794 10.8333 27.6038 10.9475 27.4007 11.1506C27.1975 11.3538 27.0834 11.6293 27.0834 11.9167C27.0834 12.204 27.1975 12.4795 27.4007 12.6827C27.6038 12.8859 27.8794 13 28.1667 13Z" fill="#0495CE"/>
<path d="M28.1667 18.4167H46.5834C46.8707 18.4167 47.1462 18.3025 47.3494 18.0994C47.5526 17.8962 47.6667 17.6207 47.6667 17.3333C47.6667 17.046 47.5526 16.7705 47.3494 16.5673C47.1462 16.3641 46.8707 16.25 46.5834 16.25H28.1667C27.8794 16.25 27.6038 16.3641 27.4007 16.5673C27.1975 16.7705 27.0834 17.046 27.0834 17.3333C27.0834 17.6207 27.1975 17.8962 27.4007 18.0994C27.6038 18.3025 27.8794 18.4167 28.1667 18.4167Z" fill="#0495CE"/>
<path d="M46.5834 21.6667H37.9167C37.6294 21.6667 37.3538 21.7808 37.1507 21.984C36.9475 22.1871 36.8334 22.4627 36.8334 22.75C36.8334 23.0373 36.9475 23.3129 37.1507 23.516C37.3538 23.7192 37.6294 23.8333 37.9167 23.8333H46.5834C46.8707 23.8333 47.1462 23.7192 47.3494 23.516C47.5526 23.3129 47.6667 23.0373 47.6667 22.75C47.6667 22.4627 47.5526 22.1871 47.3494 21.984C47.1462 21.7808 46.8707 21.6667 46.5834 21.6667Z" fill="#0495CE"/>
<path d="M58.4999 31.4167V24.9167C58.4999 24.342 58.2717 23.7909 57.8653 23.3846C57.459 22.9783 56.9079 22.75 56.3333 22.75H54.1666V5.41667C54.1649 3.98061 53.5937 2.60385 52.5782 1.5884C51.5628 0.572955 50.186 0.00172018 48.7499 0L23.8333 0C23.546 6.13572e-05 23.2705 0.114238 23.0674 0.317417L8.98402 14.4008C8.78084 14.6039 8.66667 14.8794 8.66661 15.1667V18.4167H7.58327C6.72132 18.4167 5.89467 18.7591 5.28518 19.3686C4.67568 19.9781 4.33327 20.8047 4.33327 21.6667V58.5C4.33113 59.3542 4.49779 60.2004 4.82369 60.99C5.14959 61.7796 5.62829 62.497 6.2323 63.101C6.83631 63.705 7.55371 64.1837 8.3433 64.5096C9.13288 64.8355 9.97908 65.0021 10.8333 65H54.1666C55.0208 65.0021 55.867 64.8355 56.6566 64.5096C57.4462 64.1837 58.1636 63.705 58.7676 63.101C59.3716 62.497 59.8503 61.7796 60.1762 60.99C60.5021 60.2004 60.6688 59.3542 60.6666 58.5V33.5833C60.6666 33.0087 60.4383 32.4576 60.032 32.0513C59.6257 31.6449 59.0746 31.4167 58.4999 31.4167ZM54.1666 24.9167H56.3333V31.4167H54.1666V24.9167ZM22.7499 3.6985V10.8333C22.7499 11.6953 22.4075 12.5219 21.798 13.1314C21.1885 13.7409 20.3619 14.0833 19.4999 14.0833H12.3651L22.7499 3.6985ZM10.8333 62.8333C10.2636 62.8356 9.69905 62.7251 9.17227 62.5082C8.64549 62.2912 8.16688 61.9721 7.76403 61.5692C7.36119 61.1664 7.04208 60.6878 6.82512 60.161C6.60817 59.6342 6.49765 59.0697 6.49994 58.5V21.6667C6.49994 21.3793 6.61408 21.1038 6.81724 20.9006C7.0204 20.6975 7.29595 20.5833 7.58327 20.5833H8.66661V54.1667C8.66833 55.6027 9.23956 56.9795 10.255 57.9949C11.2705 59.0104 12.6472 59.5816 14.0833 59.5833H15.0128C14.7733 60.5108 14.2333 61.3328 13.4771 61.9208C12.7209 62.5089 11.7912 62.8297 10.8333 62.8333ZM15.1666 57.4167H14.0833C13.2213 57.4167 12.3947 57.0743 11.7852 56.4648C11.1757 55.8553 10.8333 55.0286 10.8333 54.1667V16.25H19.4999C20.936 16.2483 22.3128 15.677 23.3282 14.6616C24.3437 13.6461 24.9149 12.2694 24.9166 10.8333V2.16667H48.7499C49.6119 2.16667 50.4385 2.50908 51.048 3.11857C51.6575 3.72806 51.9999 4.55471 51.9999 5.41667V31.4167H17.3333C16.7586 31.4167 16.2075 31.6449 15.8012 32.0513C15.3949 32.4576 15.1666 33.0087 15.1666 33.5833V57.4167ZM58.4999 58.5C58.5022 59.0697 58.3917 59.6342 58.1748 60.161C57.9578 60.6878 57.6387 61.1664 57.2358 61.5692C56.833 61.9721 56.3544 62.2912 55.8276 62.5082C55.3008 62.7251 54.7363 62.8356 54.1666 62.8333H15.6736C16.7433 61.6436 17.3345 60.0999 17.3333 58.5V33.5833H58.4999V58.5Z" fill="#0495CE"/>
<path d="M22.75 49.8333H37.9167C38.4913 49.8333 39.0424 49.6051 39.4488 49.1987C39.8551 48.7924 40.0834 48.2413 40.0834 47.6667V39C40.0834 38.4254 39.8551 37.8743 39.4488 37.4679C39.0424 37.0616 38.4913 36.8333 37.9167 36.8333H22.75C22.1754 36.8333 21.6243 37.0616 21.218 37.4679C20.8116 37.8743 20.5834 38.4254 20.5834 39V47.6667C20.5834 48.2413 20.8116 48.7924 21.218 49.1987C21.6243 49.6051 22.1754 49.8333 22.75 49.8333ZM22.75 39H37.9167V47.6667H22.75V39Z" fill="#0495CE"/>
<path d="M33.5833 42.25H27.0833C26.796 42.25 26.5205 42.3641 26.3173 42.5673C26.1141 42.7705 26 43.046 26 43.3333C26 43.6207 26.1141 43.8962 26.3173 44.0994C26.5205 44.3025 26.796 44.4167 27.0833 44.4167H33.5833C33.8707 44.4167 34.1462 44.3025 34.3494 44.0994C34.5525 43.8962 34.6667 43.6207 34.6667 43.3333C34.6667 43.046 34.5525 42.7705 34.3494 42.5673C34.1462 42.3641 33.8707 42.25 33.5833 42.25Z" fill="#0495CE"/>
</g>
<defs>
<clipPath id="clip0_133_458">
<rect width="65" height="65" fill="white"/>
</clipPath>
</defs>
</svg>
