<svg width="65" height="65" viewBox="0 0 65 65" fill="none" xmlns="http://www.w3.org/2000/svg">
<g clip-path="url(#clip0_133_480)">
<path d="M62.8333 58.6993V21.6667C62.8333 10.8971 54.1028 2.16667 43.3333 2.16667C32.5637 2.16667 23.8333 10.8971 23.8333 21.6667V24.0327C22.5394 24.4901 21.6723 25.711 21.6666 27.0833V37.9167C21.6723 39.289 22.5394 40.5099 23.8333 40.9673V43.3333C23.8333 44.53 22.8632 45.5 21.6666 45.5C20.47 45.5 19.5 44.53 19.5 43.3333V6.30067C20.9912 5.77542 21.8862 4.25117 21.6183 2.69298C21.3504 1.13478 19.9977 -0.00298995 18.4166 5.90233e-06H3.24997C1.66891 -0.00298995 0.316211 1.13478 0.0482959 2.69298C-0.219619 4.25117 0.675372 5.77542 2.16663 6.30067V43.3333C2.16663 54.1029 10.8971 62.8333 21.6666 62.8333C32.4362 62.8333 41.1666 54.1029 41.1666 43.3333V40.9673C42.4605 40.5099 43.3276 39.289 43.3333 37.9167V27.0833C43.3276 25.711 42.4605 24.4901 41.1666 24.0327V21.6667C41.1666 20.4701 42.1367 19.5 43.3333 19.5C44.5299 19.5 45.5 20.4701 45.5 21.6667V58.6993C44.0087 59.2246 43.1137 60.7488 43.3816 62.307C43.6495 63.8652 45.0022 65.003 46.5833 65H61.75C63.331 65.003 64.6837 63.8652 64.9516 62.307C65.2195 60.7488 64.3246 59.2246 62.8333 58.6993ZM3.24997 2.16667H18.4166C19.0149 2.16667 19.5 2.6517 19.5 3.25001C19.5 3.84831 19.0149 4.33334 18.4166 4.33334H3.24997C2.65166 4.33334 2.16663 3.84831 2.16663 3.25001C2.16663 2.6517 2.65166 2.16667 3.24997 2.16667ZM21.6666 60.6667C12.0984 60.6553 4.34464 52.9016 4.3333 43.3333V6.50001H17.3333V43.3333C17.3333 45.7266 19.2734 47.6667 21.6666 47.6667C24.0599 47.6667 26 45.7266 26 43.3333V41.1667H39V43.3333C38.9886 52.9016 31.2349 60.6553 21.6666 60.6667ZM41.1666 37.9167C41.1666 38.515 40.6816 39 40.0833 39H24.9166C24.3183 39 23.8333 38.515 23.8333 37.9167V27.0833C23.8333 26.485 24.3183 26 24.9166 26H40.0833C40.6816 26 41.1666 26.485 41.1666 27.0833V37.9167ZM43.3333 17.3333C40.9401 17.3333 39 19.2734 39 21.6667V23.8333H26V21.6667C26 12.0937 33.7604 4.33334 43.3333 4.33334C52.9062 4.33334 60.6666 12.0937 60.6666 21.6667V58.5H47.6666V21.6667C47.6666 19.2734 45.7265 17.3333 43.3333 17.3333ZM61.75 62.8333H46.5833C45.985 62.8333 45.5 62.3483 45.5 61.75C45.5 61.1517 45.985 60.6667 46.5833 60.6667H61.75C62.3483 60.6667 62.8333 61.1517 62.8333 61.75C62.8333 62.3483 62.3483 62.8333 61.75 62.8333Z" fill="#0495CE"/>
<path d="M7.58333 8.66667C6.98502 8.66667 6.5 9.1517 6.5 9.75001V11.9167C6.5 12.515 6.98502 13 7.58333 13C8.18164 13 8.66667 12.515 8.66667 11.9167V9.75001C8.66667 9.1517 8.18164 8.66667 7.58333 8.66667Z" fill="#0495CE"/>
<path d="M7.58333 15.1667C6.98502 15.1667 6.5 15.6517 6.5 16.25V31.4167C6.5 32.015 6.98502 32.5 7.58333 32.5C8.18164 32.5 8.66667 32.015 8.66667 31.4167V16.25C8.66667 15.6517 8.18164 15.1667 7.58333 15.1667Z" fill="#0495CE"/>
</g>
<defs>
<clipPath id="clip0_133_480">
<rect width="65" height="65" fill="white"/>
</clipPath>
</defs>
</svg>
