<svg width="65" height="65" viewBox="0 0 65 65" fill="none" xmlns="http://www.w3.org/2000/svg">
<g clip-path="url(#clip0_133_502)">
<path d="M4.3476 28.1625C2.09481 28.1541 0.211642 29.8741 0.0164855 32.1185C-0.17867 34.3629 1.3794 36.3821 3.59984 36.7625C5.82028 37.1431 7.96179 35.7577 8.52493 33.5765H20.5785C20.5785 33.6166 20.5893 33.6555 20.5893 33.6956V37.9077H11.9271C10.1331 37.9077 8.67872 39.3621 8.67872 41.1561V44.5582C6.5669 45.1035 5.19002 47.134 5.46486 49.2975C5.73971 51.4611 7.58049 53.0829 9.76147 53.0829C11.9424 53.0829 13.7832 51.4611 14.0581 49.2975C14.3329 47.134 12.956 45.1035 10.8442 44.5582V41.1561C10.8442 40.558 11.3291 40.0733 11.927 40.0733H20.5893V43.3217C20.5967 45.2906 21.9312 47.0068 23.8377 47.4991V56.3152C23.8377 56.9132 23.353 57.3979 22.7549 57.3979H19.3528C18.8075 55.2861 16.7771 53.9092 14.6135 54.1841C12.4499 54.4589 10.8281 56.2997 10.8281 58.4807C10.8281 60.6616 12.4499 62.5024 14.6135 62.7773C16.7771 63.0521 18.8075 61.6752 19.3528 59.5634H22.7549C24.5489 59.5634 26.0033 58.109 26.0033 56.315V47.6527H31.4173V56.4687C29.3055 57.014 27.9286 59.0444 28.2035 61.208C28.4783 63.3716 30.3191 64.9934 32.5001 64.9934C34.681 64.9934 36.5218 63.3716 36.7967 61.208C37.0715 59.0444 35.6946 57.014 33.5828 56.4687V47.6527H38.9968V56.315C38.9968 58.109 40.4512 59.5634 42.2452 59.5634H45.6473C46.1926 61.6752 48.223 63.0521 50.3866 62.7773C52.5502 62.5024 54.172 60.6616 54.172 58.4807C54.172 56.2997 52.5502 54.4589 50.3866 54.1841C48.223 53.9092 46.1926 55.2861 45.6473 57.3979H42.2452C41.6471 57.3979 41.1624 56.9131 41.1624 56.3152V47.4991C43.0689 47.0069 44.4034 45.2908 44.4108 43.3217V40.0733H53.0731C53.6712 40.0733 54.1559 40.558 54.1559 41.1561V44.5582C52.0441 45.1035 50.6672 47.134 50.942 49.2975C51.2169 51.4611 53.0577 53.0829 55.2386 53.0829C57.4196 53.0829 59.2604 51.4611 59.5352 49.2975C59.8101 47.134 58.4332 45.1035 56.3214 44.5582V41.1561C56.3214 39.3621 54.867 37.9077 53.073 37.9077H44.4107V33.5766H56.4751C57.0203 35.6884 59.0508 37.0653 61.2144 36.7904C63.378 36.5156 64.9997 34.6748 64.9997 32.4938C64.9997 30.3129 63.378 28.4721 61.2144 28.1972C59.0508 27.9224 57.0203 29.2993 56.4751 31.4111H44.7809L47.3374 22.8906C47.5496 22.1842 47.658 21.4506 47.6589 20.713V16.2866C47.9543 16.3516 48.2099 16.5358 48.3649 16.7956C49.8749 19.3651 52.4582 21.1214 55.4031 21.5805C55.8179 21.6376 56.2361 21.6661 56.6549 21.666C59.6525 21.6259 62.4845 20.2842 64.4141 17.9899C65.0143 17.3026 65.1519 16.3257 64.765 15.4994C64.3772 14.646 63.5282 14.0963 62.5907 14.0918L59.4701 14.0864H59.4615C59.268 14.086 59.0863 13.9936 58.9721 13.8373C58.9467 13.8018 58.9188 13.7681 58.8887 13.7365L57.5309 12.291C57.3746 12.0974 57.3535 11.8276 57.4779 11.6122L58.9353 10.0172C59.0773 9.85169 59.2816 9.75284 59.4995 9.74434L62.5703 9.73355C63.492 9.7517 64.3399 9.2312 64.741 8.40109C65.1421 7.57098 65.023 6.58327 64.436 5.87231C62.5432 3.58792 59.751 2.23896 56.7849 2.17564C53.3311 2.23477 50.1523 4.072 48.3771 7.03525C48.2154 7.30641 47.9462 7.49624 47.6364 7.55715C47.5521 6.06531 46.7603 4.7034 45.5055 3.89195C44.2288 3.0782 42.6054 3.0428 41.2945 3.79995C41.1575 3.87583 41.0247 3.95932 40.8971 4.05005C40.4116 2.62166 39.2252 1.54373 37.757 1.19694C36.4849 0.914232 35.1534 1.22803 34.1415 2.04913C34.0906 2.09024 34.0397 2.1325 33.991 2.17577C33.6301 1.55223 33.1223 1.02628 32.5119 0.643577C31.2356 -0.171307 29.6115 -0.206836 28.3009 0.551582C27.6266 0.930474 27.0595 1.47445 26.6529 2.1325C25.8689 1.46036 24.8702 1.09162 23.8376 1.09302C21.4586 1.12449 19.5379 3.04534 19.5064 5.42414V7.58976H17.5574C17.1727 7.58506 16.8183 7.37976 16.623 7.04832C14.8515 4.07949 11.6718 2.2368 8.21519 2.17577C5.25232 2.23947 2.46329 3.58678 0.571754 5.86812C-0.0205662 6.55574 -0.151009 7.52834 0.239303 8.34767C0.623652 9.19427 1.46873 9.73673 2.39833 9.73368H2.4232L5.53516 9.74447C5.76978 9.75842 5.98562 9.87783 6.12202 10.0693L7.47124 11.5375C7.62998 11.7298 7.65485 11.9995 7.53405 12.2175L6.11238 13.7497C6.08586 13.7773 6.0615 13.807 6.0398 13.8386C5.90365 13.9918 5.70989 14.0817 5.50496 14.0865L2.41254 14.0973C1.47394 14.1001 0.622763 14.6489 0.232832 15.5027C-0.152912 16.3258 -0.0166326 17.299 0.580382 17.9844C2.50999 20.2807 5.3428 21.6244 8.34183 21.6659C10.4378 21.6669 12.4697 20.9426 14.0926 19.6161V23.7123C14.0942 24.7446 14.4631 25.7424 15.1332 26.5276L19.3181 31.411H8.52493C8.03273 29.5044 6.31655 28.1698 4.3476 28.1625ZM4.3476 34.6592C3.15154 34.6592 2.18198 33.6896 2.18198 32.4936C2.18198 31.2975 3.15154 30.328 4.3476 30.328C5.54366 30.328 6.51323 31.2975 6.51323 32.4936C6.51323 33.6896 5.54354 34.6592 4.3476 34.6592ZM11.9271 48.7356C11.9271 49.9316 10.9575 50.9012 9.76147 50.9012C8.56541 50.9012 7.59585 49.9316 7.59585 48.7356C7.59585 47.5395 8.56541 46.5699 9.76147 46.5699C10.9575 46.5699 11.9271 47.5395 11.9271 48.7356ZM15.1755 60.6462C13.9794 60.6462 13.0098 59.6766 13.0098 58.4805C13.0098 57.2845 13.9794 56.3149 15.1755 56.3149C16.3715 56.3149 17.3411 57.2845 17.3411 58.4805C17.3411 59.6766 16.3715 60.6462 15.1755 60.6462ZM34.6657 60.6462C34.6657 61.8422 33.6961 62.8118 32.5001 62.8118C31.304 62.8118 30.3344 61.8422 30.3344 60.6462C30.3344 59.4501 31.304 58.4805 32.5001 58.4805C33.6961 58.4807 34.6657 59.4502 34.6657 60.6462ZM49.8248 56.315C51.0208 56.315 51.9904 57.2846 51.9904 58.4807C51.9904 59.6767 51.0208 60.6463 49.8248 60.6463C48.6287 60.6463 47.6592 59.6767 47.6592 58.4807C47.6592 57.2846 48.6287 56.315 49.8248 56.315ZM57.4043 48.7356C57.4043 49.9316 56.4347 50.9012 55.2386 50.9012C54.0426 50.9012 53.073 49.9316 53.073 48.7356C53.073 47.5395 54.0426 46.5699 55.2386 46.5699C56.4347 46.5699 57.4043 47.5395 57.4043 48.7356ZM60.6526 30.3281C61.8487 30.3281 62.8183 31.2977 62.8183 32.4937C62.8183 33.6898 61.8487 34.6593 60.6526 34.6593C59.4566 34.6593 58.487 33.6898 58.487 32.4937C58.487 31.2977 59.4566 30.3281 60.6526 30.3281ZM50.2243 8.16558C51.6044 5.84363 54.0846 4.39798 56.7849 4.34114C59.1152 4.40356 61.3038 5.47413 62.7836 7.27545C62.8247 7.3191 62.8309 7.38509 62.7987 7.43571C62.7601 7.51971 62.6745 7.57187 62.5821 7.56781L59.5232 7.57859C58.6641 7.5758 57.8481 7.95457 57.2959 8.61261L55.82 10.2194C55.0264 11.2524 55.0538 12.6973 55.8862 13.6995L57.2646 15.1689C57.7859 15.8697 58.6154 16.2734 59.4885 16.2516L62.5874 16.2624C62.678 16.2635 62.7595 16.3178 62.7953 16.401C62.8302 16.4586 62.8198 16.5328 62.7704 16.5785C61.0403 18.6586 58.3814 19.7312 55.6923 19.4337C53.3961 19.0634 51.3867 17.6834 50.2166 15.6732C49.671 14.7665 48.7153 14.185 47.659 14.1173V9.72049C48.7172 9.65323 49.6753 9.07246 50.2243 8.16558ZM9.30137 19.4341C6.61169 19.7316 3.95247 18.6581 2.22322 16.5767C2.1783 16.5311 2.17069 16.4607 2.20482 16.4067C2.24213 16.3208 2.32778 16.2661 2.42142 16.2681L5.48783 16.2519C6.36172 16.267 7.19246 15.8728 7.73352 15.1864L9.17473 13.6293C9.9716 12.5995 9.94952 11.1553 9.12169 10.1503L7.76372 8.67225C7.2285 7.9722 6.39369 7.56666 5.51257 7.57859L2.41254 7.56781C2.32245 7.57136 2.23972 7.5187 2.20469 7.43571C2.17208 7.38305 2.1802 7.31479 2.22423 7.27114C3.7025 5.47273 5.88817 4.40382 8.21532 4.34114C10.9183 4.39773 13.4004 5.84642 14.7792 8.17205C15.3635 9.15062 16.4178 9.75132 17.5577 9.75513H19.5067V14.0972H17.5577C16.4172 14.0972 15.3614 14.6984 14.7792 15.6791C14.3854 16.3271 13.9036 16.9175 13.3477 17.4332C12.2451 18.5121 10.8281 19.2128 9.30137 19.4341ZM16.2582 23.7122V17.3346C16.3827 17.156 16.5202 16.9881 16.6339 16.8019C16.8255 16.4699 17.1785 16.264 17.5619 16.2605H19.5066V18.4174C19.5066 19.0154 19.9914 19.5001 20.5893 19.5001C21.1874 19.5001 21.6721 19.0154 21.6721 18.4174V5.42388C21.716 4.2466 22.6603 3.30229 23.8377 3.25826C25.0338 3.25826 26.0033 4.22782 26.0033 5.42388V14.0862C26.0033 14.6843 26.488 15.169 27.0861 15.169C27.6841 15.169 28.1688 14.6841 28.1688 14.0862V4.34114C28.2041 3.54237 28.6563 2.82075 29.3599 2.44084C29.9875 2.07387 30.7683 2.09189 31.3782 2.48741C32.1009 2.97327 32.5242 3.79551 32.5001 4.66597V14.0862C32.5001 14.6843 32.9848 15.169 33.5828 15.169C34.1808 15.169 34.6656 14.6841 34.6656 14.0862V5.42388C34.6766 4.76482 34.9832 4.14547 35.5004 3.73689C36.0003 3.32678 36.661 3.16906 37.2924 3.30914C38.3233 3.58576 39.0286 4.53464 38.9967 5.6014V15.169C38.9967 15.767 39.4814 16.2517 40.0794 16.2517C40.6774 16.2517 41.1622 15.7669 41.1622 15.169V7.5895C41.1974 6.79074 41.6497 6.06911 42.3533 5.68921C42.9807 5.32174 43.7617 5.33975 44.3716 5.73578C45.0942 6.22164 45.5175 7.04388 45.4934 7.91434V20.7129C45.4935 21.2396 45.4165 21.7634 45.2649 22.2678L42.5697 31.2691C42.3563 31.9754 42.2469 32.7088 42.2449 33.4466V43.3217C42.2449 44.5177 41.2753 45.4873 40.0793 45.4873H24.9206C23.7245 45.4873 22.7549 44.5177 22.7549 43.3217V33.6957C22.7533 32.6635 22.3844 31.6656 21.7143 30.8804L16.779 25.1222C16.4436 24.7288 16.259 24.2291 16.2582 23.7122Z" fill="#0495CE"/>
</g>
<defs>
<clipPath id="clip0_133_502">
<rect width="65" height="65" fill="white"/>
</clipPath>
</defs>
</svg>
