<svg width="190" height="161" viewBox="0 0 190 161" fill="none" xmlns="http://www.w3.org/2000/svg">
    <g clip-path="url(#clip0_294_512)">
        <path fill-rule="evenodd" clip-rule="evenodd"
            d="M115.7 30.2C98.7 31.6 83.9 38.1 71.3 49.9C68.6 49.9 65.9 49.9 63.3 49.9C70.3 33.3 77.3 16.6 84.3 0C87.4 0 90.5 0 93.6 0C99.1 12.6 104.7 25.2 110.2 37.9C108.8 41.5 107.4 45.2 106.1 48.8C100.4 34.8 94.6 20.7 88.9 6.7C85.2 16 81.5 25.4 77.8 34.7C93 27.3 109 24 126.2 27.9C118.7 45.2 111.3 62.4 103.8 79.7C100.5 79.7 97.2 79.7 93.9 79.7C89.4 68.8 84.9 57.8 80.4 46.9C82.3 45.1 84.5 43.7 87.1 42.5C91.1 52.7 95.1 63 99.2 73.2C104.7 58.9 110.2 44.5 115.7 30.2Z"
            fill="black" />
        <path fill-rule="evenodd" clip-rule="evenodd"
            d="M71.3 49.9C68.6 49.9 65.9 49.9 63.3 49.9C70.3 33.3 77.3 16.6 84.3 0C87.4 0 90.5 0 93.6 0C99.1 12.6 104.7 25.2 110.2 37.9C108.8 41.5 107.4 45.2 106.1 48.8C100.4 34.8 94.6 20.7 88.9 6.7L77.8 34.7L71.3 49.9Z"
            fill="black" />
        <path
            d="M9.2 120.1H21.5L15.3 107.7L9.2 120.1ZM0 131.3L17.3 96.6L35.3 131.3H27L22.6 122.2H8.1L3.7 131.3H0ZM43 97.3H50.8V117.9C50.8 121.9 51.5 124.7 52.9 126.3C54.3 127.9 56.6 128.7 59.9 128.7C63.2 128.7 65.5 127.9 66.9 126.3C68.3 124.7 69 121.9 69 117.9V97.3H72.7V119C72.7 123.4 71.5 126.7 69 128.9C66.5 131.1 62.8 132.2 57.8 132.2C55.6 132.2 53.5 131.9 51.4 131.2C49.4 130.6 47.7 129.7 46.4 128.5C45.1 127.4 44.2 126.2 43.7 124.8C43.2 123.4 42.9 121.5 42.9 119V97.3H43ZM92.9 131.3V99.8H81.8V97.2H111.7V99.8H100.6V131.3H92.9ZM129.4 114.3L145 97.3H149.8L136.6 111.9L151.1 131.4H141.9L129.4 114.3ZM121.2 131.3V97.3H129V131.4H121.2V131.3ZM163.3 120.1H175.6L169.4 107.7L163.3 120.1ZM154.1 131.3L171.4 96.6L189.4 131.3H181.1L176.7 122.2H162.2L157.8 131.3H154.1Z"
            fill="black" />
        <path
            d="M38.6 160.6L33.7 148.5H37.1L39.5 154.9L42 148.5H43.6L38.6 160.6ZM57 160.3H53.7V148.5H57V160.3ZM68.8 160.3V148.5H72.1V158.7H76.4V160.3H68.8ZM87.2 160.3V148.5H90.5V158.7H94.8V160.3H87.2ZM107.4 155.3H110.3L108.8 151.1L107.4 155.3ZM104.1 160.3L108.2 148.5H111.4L115.7 160.3H112.2L111 156.8H107L105.8 160.3H104.1ZM137.3 158.5C136.5 159.2 135.6 159.7 134.6 160.1C133.6 160.5 132.6 160.7 131.5 160.7C130.7 160.7 129.9 160.6 129.2 160.4C128.5 160.2 127.9 159.8 127.3 159.4C126.6 158.8 126 158.1 125.6 157.3C125.2 156.5 125.1 155.6 125.1 154.6C125.1 153.7 125.3 152.9 125.7 152.1C126.1 151.3 126.6 150.6 127.2 150C127.8 149.5 128.4 149.1 129.2 148.9C129.9 148.6 130.7 148.5 131.6 148.5C132.7 148.5 133.6 148.7 134.4 149.1C135.2 149.5 135.9 150.2 136.5 151.1L135 152.2C134.6 151.4 134.2 150.9 133.7 150.5C133.2 150.1 132.6 149.9 131.9 149.9C130.9 149.9 130.1 150.3 129.5 151.1C128.9 151.9 128.7 153.1 128.7 154.6C128.7 156 129 157.1 129.6 157.9C130.2 158.7 131 159.2 132.1 159.2C132.5 159.2 132.8 159.1 133.2 159C133.5 158.9 133.9 158.7 134.2 158.5V155.2H137.4V158.5H137.3ZM148.1 160.3V148.5H155.5V150.1H151.4V153.5H155.3V155.1H151.4V158.7H155.7V160.3H148.1Z"
            fill="black" />
    </g>
    <defs>
        <clipPath id="clip0_294_512">
            <rect width="189.5" height="160.6" fill="white" />
        </clipPath>
    </defs>
</svg>