<svg width="296" height="206" viewBox="0 0 296 206" fill="none" xmlns="http://www.w3.org/2000/svg">
<path fill-rule="evenodd" clip-rule="evenodd" d="M158.215 61.9191C160.75 50.9046 172.53 41.974 183.863 39.146C186.696 38.4018 187.144 38.8483 189.231 37.9552C189.231 37.9552 189.38 37.8064 189.529 37.8064C182.968 37.8064 174.319 40.6344 169.398 44.0578C167.609 45.2486 166.118 46.8859 164.478 47.9278C164.925 43.3136 170.89 36.1691 167.162 19.7963C165.372 22.4755 170.89 26.7919 161.942 47.0347C161.048 48.8208 160.153 50.607 159.109 52.5419L153.294 63.4075C152.399 65.3425 150.908 67.1286 150.46 68.9148C147.478 66.9798 150.61 66.8309 140.619 62.5145C131.97 58.7934 124.514 60.4307 135.549 45.844C136.592 44.3555 141.364 36.3179 138.084 33.9364C138.084 40.6344 137.636 40.6344 133.312 46.2905C130.329 50.1604 127.645 50.607 127.645 57.7515C119.295 55.6677 111.69 46.4393 109.602 38.6994C109.453 38.1041 109.304 37.5087 109.155 36.6156L108.558 34.9783C108.558 34.9783 108.409 34.8295 108.409 34.6807C108.409 39.4437 110.646 45.0997 112.883 48.672C113.628 49.8627 114.672 51.0535 115.567 52.2442C110.646 53.435 109.9 56.5607 103.935 59.0911L101.997 60.133C108.26 60.133 111.839 52.2442 117.505 54.3281C118.996 54.7746 121.233 57.0073 124.216 58.6445C126.9 59.9841 129.286 61.1749 131.821 62.5145C130.479 64.4494 128.689 63.7052 123.917 71.7428C122.724 73.8266 121.83 74.8685 120.04 76.6546C116.461 80.2269 116.163 77.8454 114.672 80.0781C123.47 79.9292 127.049 66.5333 133.312 64.896C138.233 63.5564 149.417 68.7659 146.732 75.6127C146.285 76.9523 145.838 76.9523 145.241 78.5896C140.768 88.8598 138.68 95.409 135.996 107.465C134.654 113.27 131.373 131.578 131.373 137.085C128.838 137.085 64.7173 136.788 62.9279 137.234C61.2876 137.681 60.9893 138.127 60.542 139.764H215.327C215.029 136.192 211.152 137.085 206.529 137.085H148.969C145.838 137.085 144.645 138.723 144.645 130.09C144.496 113.27 142.408 105.084 147.627 87.8179C148.671 84.3945 148.074 83.7992 154.785 83.0549C161.943 82.3107 169.995 82.4596 176.854 81.7153C181.477 81.12 188.486 79.9292 191.17 83.5015C192.363 85.1387 192.064 85.5853 192.81 87.2226L193.108 87.8179C193.108 85.5853 192.81 84.2457 191.915 82.9061C190.573 81.12 189.38 81.4177 188.336 79.9292C192.214 79.0362 196.538 76.9523 199.52 74.7197C202.204 72.7847 206.082 69.3613 206.827 65.789C205.187 66.8309 199.222 78.5896 179.986 78.5896C182.223 76.6546 184.161 75.1662 185.503 72.3382C186.845 69.659 187.144 64.7471 185.205 62.3656C185.652 67.4263 186.398 68.7659 183.565 72.6359C178.047 80.0781 170.89 78.5896 163.135 78.5896C160.75 78.5896 158.96 78.5896 156.723 78.2919C154.785 77.9942 153.294 78.5896 150.759 78.5896C152.101 75.9104 152.846 72.6359 154.337 69.8078C156.574 65.4914 157.767 65.1937 160.899 63.7052C165.372 61.6214 172.977 59.8353 177.003 57.9003C178.495 57.1561 178.644 57.0072 178.942 56.263C175.811 57.7515 167.758 59.2399 163.434 60.5795C161.793 61.1749 160.004 61.7703 158.215 61.9191Z" fill="black"/>
<path fill-rule="evenodd" clip-rule="evenodd" d="M134.803 22.0289C134.803 20.8382 135.549 22.0289 135.101 22.0289C135.101 22.0289 134.803 23.2197 134.803 22.0289ZM129.136 14.1402C129.136 19.6474 132.268 26.4942 136.145 29.0246C136.145 26.4942 135.25 25.3035 135.25 22.922C136.742 25.0058 136.145 27.3873 137.934 28.5781C139.277 22.6243 139.426 16.3728 136.145 11.1633C134.654 8.78181 133.163 6.84684 130.926 5.3584C130.18 6.54915 129.136 12.0564 129.136 14.1402Z" fill="black"/>
<path fill-rule="evenodd" clip-rule="evenodd" d="M105.874 77.6965C108.409 77.8454 110.198 78.8873 112.435 79.4827C111.988 77.6965 110.198 76.3569 108.856 75.1662C104.83 71.7428 95.5849 68.9148 89.6201 72.0405C93.0498 77.1012 97.6725 80.3757 103.935 81.4176C107.365 82.013 108.26 81.2688 111.541 81.2688L105.874 77.6965Z" fill="black"/>
<path fill-rule="evenodd" clip-rule="evenodd" d="M162.986 24.2615C164.925 24.7081 164.328 25.1546 166.118 25.6011C164.925 20.6893 160.6 17.8613 156.276 16.0751C154.188 15.1821 152.846 15.4798 150.311 15.4798C150.759 20.0939 157.469 26.9407 165.223 26.9407C164.627 24.5592 164.179 25.8988 162.986 24.2615Z" fill="black"/>
<path fill-rule="evenodd" clip-rule="evenodd" d="M164.776 14.5867C166.416 15.7775 164.776 15.3309 166.565 15.9263C166.565 9.526 165.372 4.16762 160.153 0.744212C160.004 0.595368 159.109 0.148836 159.109 0.148836C155.381 -0.893071 158.96 15.1821 165.223 16.8194C164.925 15.7775 164.776 15.7775 164.776 14.5867Z" fill="black"/>
<path fill-rule="evenodd" clip-rule="evenodd" d="M210.555 60.5795L214.88 61.026C212.643 61.026 212.643 61.3237 210.853 61.4725C213.836 65.6402 227.256 63.4075 228.449 58.7933C224.423 57.7514 227.853 57.0072 219.204 57.0072C215.923 57.156 211.897 58.7933 210.555 60.5795Z" fill="black"/>
<path fill-rule="evenodd" clip-rule="evenodd" d="M170.89 18.0101C170.741 19.2009 170.89 18.9032 170.442 19.7963C173.872 19.4986 177.153 13.396 178.047 9.37718C178.793 6.25146 178.047 6.84683 178.047 4.0188C175.065 4.31649 172.232 8.03758 171.039 10.5679C170.293 11.9075 168.504 16.9682 169.548 18.7543C170.293 20.2428 169.846 19.4986 170.741 18.6055C170.741 18.6055 170.89 18.4567 170.89 18.3078C170.741 18.3078 170.89 18.159 170.89 18.0101Z" fill="black"/>
<path fill-rule="evenodd" clip-rule="evenodd" d="M213.985 53.5838C213.836 55.0722 213.687 55.2211 213.09 56.263C215.774 55.9653 217.862 52.8396 218.906 50.7557C220.993 46.5881 221.292 37.3598 215.923 43.7601C213.985 46.1416 211.599 50.9046 211.748 54.1792C211.897 56.4118 211.45 55.5188 212.643 56.4118L213.985 53.5838Z" fill="black"/>
<path fill-rule="evenodd" clip-rule="evenodd" d="M161.644 38.6994L162.837 39.5924C162.837 37.2109 162.688 36.4667 161.943 34.8294C160.004 30.6618 156.425 27.8338 151.952 26.7919C151.952 33.341 156.723 39.1459 162.092 40.3367L161.644 38.6994Z" fill="black"/>
<path fill-rule="evenodd" clip-rule="evenodd" d="M116.312 83.948C116.312 82.7572 117.058 83.948 116.611 83.948C116.611 83.948 116.312 85.1387 116.312 83.948ZM112.435 89.1575C112.435 92.5809 112.137 94.5159 113.777 97.4928C117.654 94.9624 121.084 86.6272 118.102 81.2688L116.76 83.0549L115.865 80.8223C115.418 82.3107 114.97 82.1619 113.777 84.3945C113.181 85.883 112.435 87.0737 112.435 89.1575Z" fill="black"/>
<path fill-rule="evenodd" clip-rule="evenodd" d="M171.337 28.1315C170.591 29.1734 170.741 28.5781 170.442 29.9176C175.96 29.7688 182.223 23.6662 182.372 18.0101C177.749 19.052 175.811 19.6474 172.977 22.6243C170.144 25.75 171.337 25.0058 169.548 28.4292L171.337 28.1315Z" fill="black"/>
<path fill-rule="evenodd" clip-rule="evenodd" d="M206.082 68.9148L206.529 70.2544C210.108 71.1474 212.792 73.2313 219.353 70.2544C220.099 69.9567 220.397 69.8078 220.993 69.2125C222.186 68.3194 222.037 68.6171 222.335 67.5752C216.371 64.4495 208.766 64.896 206.082 68.9148Z" fill="black"/>
<path fill-rule="evenodd" clip-rule="evenodd" d="M110.199 84.3945C111.093 83.0549 111.093 83.7991 111.541 82.1619C110.348 82.7572 110.795 82.3107 109.453 82.7572C103.786 84.3945 98.4182 90.7948 99.462 93.0275C100.208 94.6648 110.497 91.6879 112.435 83.5015C110.795 83.948 111.839 83.948 110.199 84.3945Z" fill="black"/>
<path fill-rule="evenodd" clip-rule="evenodd" d="M194.152 36.4667L198.178 36.9133C196.24 36.9133 195.643 36.6156 194.152 37.3598C196.389 40.3367 207.275 40.7832 210.406 36.0202C208.02 34.3829 205.783 33.341 202.205 33.6387C199.222 33.9364 195.494 34.6806 194.152 36.4667Z" fill="black"/>
<path fill-rule="evenodd" clip-rule="evenodd" d="M191.17 33.341L189.828 34.9783C195.345 35.1271 202.205 30.513 202.205 24.5592C195.643 24.5592 189.828 30.2153 189.38 34.2341C190.424 33.6387 189.828 33.7875 191.17 33.341Z" fill="black"/>
<path fill-rule="evenodd" clip-rule="evenodd" d="M112.435 38.6995C112.286 39.8902 112.435 39.5925 111.988 40.4856C116.909 40.0391 119.891 32.448 119.891 26.9408C114.672 27.0896 111.093 33.7876 111.093 39.7414L112.435 38.6995Z" fill="black"/>
<path fill-rule="evenodd" clip-rule="evenodd" d="M92.1553 37.8064C93.3482 39.5925 96.3306 41.2298 99.0147 41.974C102.146 42.8671 105.874 42.8671 107.514 40.4856L105.278 40.039C104.234 39.5925 104.83 39.8902 104.383 39.5925H107.514C105.278 36.1691 97.0762 34.5318 92.1553 37.8064Z" fill="black"/>
<path fill-rule="evenodd" clip-rule="evenodd" d="M191.17 92.2832L191.617 90.4971C186.1 91.8367 182.67 102.405 184.459 104.042C185.503 105.084 189.231 101.065 190.275 99.7254C192.363 96.8974 191.915 94.9624 192.81 91.2413C191.617 91.6878 192.214 91.539 191.17 92.2832Z" fill="black"/>
<path fill-rule="evenodd" clip-rule="evenodd" d="M84.6992 61.026C87.0851 64.1518 97.2252 64.896 100.058 61.026L99.6111 60.5795C98.5672 56.5607 87.0851 57.6026 84.6992 61.026Z" fill="black"/>
<path fill-rule="evenodd" clip-rule="evenodd" d="M181.03 55.8164C180.732 56.4118 180.881 56.263 180.582 57.156C186.845 57.156 192.81 53.5838 193.705 49.2673C188.635 48.0765 182.521 50.4581 179.688 55.8164H181.03Z" fill="black"/>
<path fill-rule="evenodd" clip-rule="evenodd" d="M201.31 78.143C201.757 77.6965 202.95 78.8873 201.757 78.4407C201.757 78.4407 200.564 78.8873 201.31 78.143ZM200.862 78.143H199.073C202.503 83.3526 208.617 83.3526 213.985 82.1618C213.239 79.3338 208.169 76.5058 204.292 76.5058C203.099 76.5058 200.266 76.2081 199.819 77.1011C199.52 77.6965 199.52 77.1011 200.862 78.143Z" fill="black"/>
<path fill-rule="evenodd" clip-rule="evenodd" d="M201.757 63.2587C201.608 63.2587 201.757 63.4076 201.757 63.2587V63.2587ZM202.503 65.0448C203.547 65.7891 202.95 65.6402 204.292 65.9379C203.845 60.133 200.415 53.2862 195.494 53.1373C195.494 56.1142 196.24 59.5376 197.284 61.4726C198.477 63.5564 200.415 66.0867 202.95 66.3844C202.652 65.7891 202.801 65.7891 202.503 65.0448Z" fill="black"/>
<path fill-rule="evenodd" clip-rule="evenodd" d="M182.372 36.4668V37.3599C187.442 36.1691 189.828 29.1734 189.828 24.2616C184.012 24.4104 181.477 31.4061 181.477 36.6156C182.074 36.9133 180.881 37.0622 182.372 36.4668Z" fill="black"/>
<path fill-rule="evenodd" clip-rule="evenodd" d="M203.397 50.9046C203.397 56.7095 206.082 58.7933 206.529 60.5795H207.871C207.573 59.5376 207.424 59.2399 207.424 57.9003C207.871 58.6445 207.424 57.1561 208.02 59.091C208.318 60.1329 208.169 59.2399 208.318 60.5795C211.45 58.3468 208.915 46.8858 204.292 46.5881C204.143 48.2254 203.397 49.565 203.397 50.9046Z" fill="black"/>
<path fill-rule="evenodd" clip-rule="evenodd" d="M88.2781 85.5852C96.0322 89.7528 105.576 83.9479 100.208 83.7991L100.953 83.2037C101.55 82.6083 101.102 83.3525 101.55 82.4595C100.506 82.1618 98.1199 81.5664 97.2252 81.5664C93.6463 81.7153 89.471 83.6502 88.2781 85.5852Z" fill="black"/>
<path fill-rule="evenodd" clip-rule="evenodd" d="M105.874 32.5969H106.769C105.278 26.3454 97.2251 24.1127 96.0322 25.1547C94.8392 26.3454 98.1198 29.9177 99.0146 30.6619C100.804 32.0015 102.892 33.4899 105.874 33.4899C106.172 32.8945 106.47 33.9364 105.874 32.5969Z" fill="black"/>
<path fill-rule="evenodd" clip-rule="evenodd" d="M135.25 33.341C136.145 33.6387 135.996 33.4898 136.592 33.7875C136.145 31.7037 134.505 29.4711 132.864 28.2803C131.075 26.9407 128.54 25.8988 125.558 25.8988C125.707 31.406 131.224 33.6387 135.698 34.6806C135.399 33.4898 135.698 34.3829 135.25 33.341Z" fill="black"/>
<path fill-rule="evenodd" clip-rule="evenodd" d="M137.04 43.9089L137.636 44.6532C138.382 45.8439 137.935 43.6112 137.785 45.0997C137.785 45.5462 137.785 44.3555 137.487 45.5462C137.338 46.2904 136.891 45.0997 137.487 46.1416C138.382 47.4812 145.987 48.3743 148.969 45.6951C149.715 44.9508 149.566 45.5462 149.864 44.3555C146.285 43.4624 147.776 42.5693 141.961 42.5693C139.426 42.5693 138.978 43.4624 137.04 43.9089Z" fill="black"/>
<path fill-rule="evenodd" clip-rule="evenodd" d="M156.873 51.3512C159.408 50.4581 156.127 51.3512 157.618 50.4581C158.662 49.8627 156.873 50.4581 158.066 50.3093C159.855 50.1604 157.171 51.0535 158.662 50.3093C158.662 46.8858 158.215 45.3974 156.873 43.3136C155.829 41.8251 154.039 39.8902 152.101 39.2948C151.952 45.6951 153.145 48.9697 156.873 51.3512Z" fill="black"/>
<path fill-rule="evenodd" clip-rule="evenodd" d="M98.269 48.3743C100.058 48.8208 102.444 50.1604 104.83 50.1604C106.321 50.1604 109.453 49.2674 110.049 48.3743C110.795 47.1836 110.049 48.3743 109.9 47.3324C109.9 46.4393 111.988 46.4393 109.155 45.5463C106.471 44.6532 99.3129 44.8021 98.269 48.3743Z" fill="black"/>
<path fill-rule="evenodd" clip-rule="evenodd" d="M140.171 32.1503C138.382 35.4248 149.118 30.6618 149.268 25.8988C149.417 22.9219 139.724 27.2384 139.277 32.1503H140.171Z" fill="black"/>
<path fill-rule="evenodd" clip-rule="evenodd" d="M140.171 37.8064H142.408C140.321 39.146 140.321 38.2529 141.066 39.146C141.513 39.5925 140.321 39.5925 141.961 39.5925C145.092 39.5925 151.504 39.7414 152.548 35.276C150.908 34.9783 150.461 34.383 148.522 34.383C145.241 34.2341 141.364 36.0202 140.171 37.8064Z" fill="black"/>
<path fill-rule="evenodd" clip-rule="evenodd" d="M102.295 18.4566C102.295 21.8801 104.234 25.4523 105.427 25.4523H105.576L106.321 25.1546C106.47 25.1546 106.918 25.4523 107.067 25.4523C107.365 22.6243 109.005 17.5636 103.041 13.5448C102.743 15.3309 102.295 16.3728 102.295 18.4566Z" fill="black"/>
<path fill-rule="evenodd" clip-rule="evenodd" d="M186.249 74.2731C191.617 74.2731 195.793 70.9986 196.836 67.2775C192.214 67.2775 189.977 67.5752 186.995 71.1474C185.802 72.487 185.951 72.487 186.249 74.2731Z" fill="black"/>
<path fill-rule="evenodd" clip-rule="evenodd" d="M133.014 43.4625C133.014 40.3367 132.268 38.9971 130.777 37.3599C129.435 35.8714 128.093 34.383 125.558 34.2341C125.558 37.5087 126.303 39.7414 127.794 41.5275C129.733 43.909 130.926 44.5044 132.566 43.6113L133.014 43.4625Z" fill="black"/>
<path fill-rule="evenodd" clip-rule="evenodd" d="M114.672 45.6951V46.5882C118.847 46.4393 123.768 42.8671 123.917 38.6995C120.19 38.6995 117.356 40.1879 115.269 42.7183C114.97 43.0159 114.523 43.4625 114.523 44.0578C113.927 45.9928 114.374 45.3974 114.672 45.6951Z" fill="black"/>
<path fill-rule="evenodd" clip-rule="evenodd" d="M190.722 40.0391C188.187 42.1229 198.775 47.9278 200.862 45.844C202.204 44.5044 196.836 39.2948 190.722 39.146V40.0391Z" fill="black"/>
<path fill-rule="evenodd" clip-rule="evenodd" d="M172.232 57.1561L173.723 57.3049C177.451 56.4118 179.24 51.0535 179.24 47.4812C176.854 48.672 175.661 48.8208 173.872 50.9046C172.53 52.5419 171.486 54.4769 171.337 57.1561H172.232Z" fill="black"/>
<path fill-rule="evenodd" clip-rule="evenodd" d="M178.793 89.604C179.389 89.604 185.354 91.9855 189.082 88.4133C189.679 87.8179 189.679 87.3713 189.231 86.9248C188.635 86.1806 189.231 86.6271 188.337 86.3294C186.249 85.2875 179.091 85.5852 178.793 89.604Z" fill="black"/>
<path fill-rule="evenodd" clip-rule="evenodd" d="M153.741 58.0491L153.89 57.9003L154.487 55.6676C154.039 53.5838 150.609 49.565 146.732 49.2673C147.031 52.9884 150.013 57.7514 153.741 58.0491Z" fill="black"/>
<path fill-rule="evenodd" clip-rule="evenodd" d="M183.714 66.8309C184.012 65.6401 184.758 64.3005 181.626 61.919C179.986 60.5794 178.197 60.2817 175.363 60.2817C175.512 62.2167 176.854 64.0028 178.197 64.8959C179.539 66.0866 181.179 66.682 183.714 66.8309Z" fill="black"/>
<path fill-rule="evenodd" clip-rule="evenodd" d="M108.856 62.8121C108.856 64.4494 109.155 65.1936 109.751 66.3844C113.181 65.4913 115.119 57.7514 112.734 56.4118L112.584 56.263H112.435C110.646 55.8165 108.856 60.8772 108.856 62.8121Z" fill="black"/>
<path fill-rule="evenodd" clip-rule="evenodd" d="M108.409 28.1315C108.409 32.448 110.944 30.0665 112.435 28.2804C114.076 26.1966 114.523 24.857 114.523 21.1359C112.137 21.7312 108.409 25.1547 108.409 28.1315Z" fill="black"/>
<path fill-rule="evenodd" clip-rule="evenodd" d="M174.469 76.0593C174.469 76.0593 174.469 77.3989 176.705 75.7616C178.942 74.1243 180.135 70.2543 180.135 67.2775C176.705 67.5752 174.021 72.0405 174.021 74.2731L174.469 76.0593Z" fill="black"/>
<path fill-rule="evenodd" clip-rule="evenodd" d="M181.03 45.2486C182.968 45.2486 183.565 45.3974 185.205 44.5044C186.547 43.7602 186.398 43.909 186.696 42.5694C185.205 42.2717 181.328 40.1879 177.6 41.8252C176.407 42.4206 176.258 42.5694 176.258 43.4625C176.407 45.0998 179.091 45.2486 181.03 45.2486Z" fill="black"/>
<path fill-rule="evenodd" clip-rule="evenodd" d="M103.19 58.0491C102.444 54.9234 104.383 58.1979 103.041 55.9653C101.251 52.9884 91.7077 50.1604 94.0936 54.1792C95.5848 56.5607 100.357 57.9003 103.19 58.0491Z" fill="black"/>
<path fill-rule="evenodd" clip-rule="evenodd" d="M121.233 52.6907C123.172 52.6907 123.023 53.5838 124.514 51.2023C126.303 48.3743 126.303 45.5462 125.558 42.5693C123.619 43.9089 121.532 47.0347 121.084 49.565C120.786 51.3511 121.084 50.6069 121.233 52.6907Z" fill="black"/>
<path fill-rule="evenodd" clip-rule="evenodd" d="M134.356 50.9046C135.996 52.0954 137.04 55.6676 143.601 55.6676C143.005 53.4349 140.619 50.7558 138.68 49.7139C137.189 48.9696 137.338 49.1185 135.25 49.1185L134.803 49.8627C134.505 50.6069 134.803 49.7139 134.356 50.9046Z" fill="black"/>
<path fill-rule="evenodd" clip-rule="evenodd" d="M193.257 81.7153C192.81 82.3107 192.81 80.8222 192.81 83.0549C194.898 84.3945 198.924 87.3714 202.503 85.7341C201.459 81.8641 196.985 80.9711 193.257 80.9711V81.7153Z" fill="black"/>
<path fill-rule="evenodd" clip-rule="evenodd" d="M169.1 37.8063V38.6994C172.679 38.4017 177.153 35.5737 177.451 32.1503C173.872 32.2991 171.039 33.341 168.951 36.0202C168.802 36.1691 168.653 36.4667 168.504 36.4667C168.504 36.4667 168.355 36.6156 168.355 36.7644C168.355 36.7644 168.206 36.9133 168.206 37.0621L169.1 37.8063Z" fill="black"/>
<path fill-rule="evenodd" clip-rule="evenodd" d="M107.067 60.133C106.47 59.6865 107.962 59.5376 105.874 59.8353C103.786 60.133 100.804 64.5983 100.804 68.4682C105.128 68.1706 106.918 64.0029 107.813 60.133H107.067Z" fill="black"/>
<path fill-rule="evenodd" clip-rule="evenodd" d="M121.233 82.6084C121.233 84.6922 122.128 86.0318 122.575 87.8179C126.154 86.9248 125.558 78.5896 124.365 77.6965C122.873 76.5058 123.917 77.5477 123.321 77.5477L122.128 78.143C121.83 78.7384 121.83 78.5896 121.681 79.4826C121.233 80.5245 121.233 81.1199 121.233 82.6084Z" fill="black"/>
<path fill-rule="evenodd" clip-rule="evenodd" d="M117.654 76.0593C117.654 75.9104 117.804 75.7616 117.804 75.7616V75.315C117.207 71.8916 112.137 70.8497 108.856 70.8497C109.751 74.5708 113.777 76.9523 117.654 76.9523V76.0593Z" fill="black"/>
<path fill-rule="evenodd" clip-rule="evenodd" d="M163.434 64.5982C167.46 67.2774 165.521 68.617 173.127 68.617C172.381 65.3424 168.504 62.9609 164.329 62.9609L163.434 64.5982Z" fill="black"/>
<path fill-rule="evenodd" clip-rule="evenodd" d="M121.233 72.487C121.531 71.8916 121.681 72.9335 121.531 71.2962C121.382 69.0636 118.549 65.4913 115.119 65.4913C115.119 69.3613 118.4 72.7847 120.04 72.9335C122.277 72.9335 120.488 72.9335 121.233 72.487Z" fill="black"/>
<path fill-rule="evenodd" clip-rule="evenodd" d="M165.223 57.6026C169.249 58.4957 169.249 53.1373 169.249 50.1604C166.267 50.9046 165.223 53.7327 165.223 57.6026Z" fill="black"/>
<path fill-rule="evenodd" clip-rule="evenodd" d="M187.591 66.8309C190.573 66.0867 192.81 64.1517 192.81 60.7283C189.679 61.3236 186.845 63.2586 187.591 66.8309Z" fill="black"/>
<path d="M4.0262 162.24L10.5874 173.999L17.1486 162.24L18.6398 175.933H21.1748L18.6398 154.649L10.5874 169.384L2.53501 154.649L0 175.933H2.53501L4.0262 162.24ZM42.3496 158.37L42.4987 154.649L24.7537 173.105L24.6045 176.827L42.3496 158.37ZM27.1395 155.691H24.6045V176.975L27.1395 173.85V155.691ZM42.4987 154.649L39.9637 157.775V175.933H42.4987V154.649ZM48.4635 166.11H62.3315V163.728H48.4635V166.11ZM60.6912 155.691V175.933H63.2262V155.691H60.6912ZM47.1214 155.691V175.933H49.6564V155.691H47.1214ZM76.9451 160.156L82.6116 175.04H85.1466L76.9451 154.649L68.7436 175.04H71.2786L76.9451 160.156ZM85.1466 175.933V179.059H87.3834V173.552H66.6559V179.059H68.8927V175.933H85.1466ZM93.6463 169.831H104.383L103.488 167.449H94.5411L93.6463 169.831ZM99.0146 160.156L102.444 168.342L102.743 168.938L105.725 175.933H108.409L99.0146 154.649L89.6201 175.933H92.3043L95.2867 168.789L95.5849 168.342L99.0146 160.156ZM125.259 155.691H111.541V168.491C111.541 169.236 111.541 169.98 111.391 170.575C111.242 171.17 111.093 171.766 110.795 172.361C110.497 172.808 110.348 173.254 109.9 173.552C109.602 173.85 109.155 173.999 108.707 173.999V176.082C109.751 176.082 110.795 175.785 111.541 175.189C112.286 174.594 112.883 173.701 113.181 172.659C113.628 171.617 113.777 170.426 113.777 169.236V158.221H122.724V176.231H125.259V155.691ZM130.031 155.691V175.933H132.566V155.691H130.031ZM131.373 166.11H135.549C136.443 166.11 137.189 166.259 137.785 166.556C138.382 166.854 138.978 167.301 139.277 167.747C139.724 168.342 139.873 168.938 139.873 169.831C139.873 170.724 139.724 171.319 139.277 171.915C138.829 172.51 138.382 172.957 137.785 173.105C137.189 173.403 136.294 173.552 135.549 173.552H131.373V175.933H135.549C136.891 175.933 138.084 175.636 139.127 175.189C140.171 174.743 140.917 173.999 141.662 173.105C142.259 172.212 142.557 171.17 142.557 169.831C142.557 168.64 142.259 167.449 141.662 166.556C141.066 165.663 140.171 164.919 139.127 164.473C138.084 164.026 136.891 163.728 135.549 163.728H131.373V166.11ZM147.18 166.11H161.048V163.728H147.18V166.11ZM159.557 155.691V175.933H162.092V155.691H159.557ZM145.838 155.691V175.933H148.373V155.691H145.838ZM168.504 169.831H179.24L178.346 167.449H169.398L168.504 169.831ZM173.872 160.156L177.302 168.342L177.6 168.938L180.582 175.933H183.266L173.872 154.649L164.478 175.933H167.162L170.144 168.789L170.442 168.342L173.872 160.156ZM193.705 165.961H190.872L183.565 175.933H186.547L193.705 165.961ZM197.284 155.691H194.749V175.933H197.284V155.691ZM195.942 157.775V155.542H191.766C190.424 155.542 189.231 155.84 188.187 156.286C187.144 156.733 186.249 157.477 185.652 158.37C185.056 159.263 184.758 160.305 184.758 161.644C184.758 162.835 185.056 164.026 185.652 164.919C186.249 165.812 187.144 166.556 188.187 167.003C189.231 167.449 190.424 167.747 191.766 167.747H195.942V165.514H191.766C190.872 165.514 190.126 165.366 189.529 165.068C188.933 164.77 188.337 164.324 188.038 163.728C187.74 163.133 187.442 162.389 187.442 161.644C187.442 160.751 187.591 160.156 188.038 159.561C188.486 158.965 188.933 158.519 189.529 158.221C190.126 157.923 191.021 157.775 191.766 157.775H195.942ZM210.704 155.691V175.933H213.239V155.691H210.704ZM212.046 157.923H216.222C217.564 157.923 218.608 158.221 219.353 158.816C220.248 159.412 220.546 160.454 220.546 161.644C220.546 162.835 220.099 163.877 219.353 164.473C218.458 165.068 217.415 165.366 216.222 165.366H212.046V167.747H216.222C217.564 167.747 218.757 167.449 219.8 167.003C220.844 166.556 221.59 165.812 222.336 164.919C222.932 164.026 223.23 162.984 223.23 161.644C223.23 160.454 222.932 159.263 222.336 158.37C221.739 157.477 220.844 156.733 219.8 156.286C218.757 155.84 217.564 155.542 216.222 155.542H212.046V157.923ZM228.002 165.812C228.002 164.324 228.3 162.984 229.046 161.793C229.642 160.603 230.686 159.709 231.73 158.965C232.923 158.221 234.265 157.923 235.607 157.923C237.098 157.923 238.44 158.221 239.633 158.965C240.826 159.709 241.721 160.603 242.317 161.793C242.914 162.984 243.361 164.324 243.361 165.812C243.361 167.301 243.063 168.64 242.317 169.831C241.721 171.022 240.677 171.915 239.633 172.659C238.44 173.403 237.098 173.701 235.607 173.701C234.116 173.701 232.774 173.403 231.73 172.659C230.537 171.915 229.642 171.022 229.046 169.831C228.3 168.64 228.002 167.301 228.002 165.812ZM225.318 165.812C225.318 167.301 225.616 168.64 226.063 169.98C226.511 171.319 227.256 172.361 228.151 173.254C229.046 174.147 230.239 174.892 231.432 175.487C232.625 176.082 234.116 176.231 235.458 176.231C236.949 176.231 238.291 175.933 239.633 175.487C240.826 174.892 242.019 174.296 242.914 173.254C243.809 172.361 244.554 171.17 245.002 169.98C245.449 168.64 245.747 167.301 245.747 165.812C245.747 164.324 245.449 162.984 245.002 161.644C244.554 160.454 243.809 159.263 242.914 158.37C242.019 157.477 240.826 156.733 239.633 156.137C238.44 155.542 236.949 155.393 235.458 155.393C233.967 155.393 232.625 155.691 231.432 156.137C230.239 156.733 229.046 157.328 228.151 158.37C227.256 159.263 226.511 160.454 226.063 161.644C225.616 162.984 225.318 164.324 225.318 165.812ZM270.948 173.552H262.747V155.542H260.212V173.552H252.01V155.542H249.475V175.785H273.632V178.91H275.869V173.403H273.334V155.393H270.799V173.552H270.948ZM281.237 169.831H291.974L291.079 167.449H282.132L281.237 169.831ZM286.606 160.156L290.035 168.342L290.333 168.938L293.316 175.933H296L286.606 154.649L277.211 175.933H279.895L282.878 168.789L283.176 168.342L286.606 160.156Z" fill="black"/>
<path d="M32.657 192.306V203.767H34.5955V192.306H32.657ZM38.92 192.306L33.8499 197.069L39.3673 203.767H41.9023L36.3849 197.069L41.455 192.306H38.92ZM42.3497 197.962C42.3497 199.153 42.6479 200.195 43.0953 201.088C43.6917 201.981 44.2882 202.725 45.1829 203.172C46.0776 203.618 47.1215 203.916 48.1653 203.916C49.3582 203.916 50.253 203.618 51.1477 203.172C52.0424 202.725 52.788 201.981 53.2353 201.088C53.8318 200.195 53.9809 199.153 53.9809 197.962C53.9809 196.772 53.6827 195.73 53.2353 194.837C52.6388 193.944 52.0424 193.199 51.1477 192.753C50.253 192.306 49.2091 192.009 48.1653 192.009C46.9723 192.009 46.0776 192.306 45.1829 192.753C44.2882 193.199 43.5426 193.944 43.0953 194.837C42.6479 195.879 42.3497 196.92 42.3497 197.962ZM44.4373 197.962C44.4373 197.218 44.5865 196.474 44.8847 195.879C45.1829 195.283 45.6303 194.837 46.2268 194.39C46.8232 194.092 47.4197 193.795 48.3144 193.795C49.06 193.795 49.8056 193.944 50.4021 194.39C50.9985 194.688 51.4459 195.283 51.7441 195.879C52.0424 196.474 52.1915 197.218 52.1915 197.962C52.1915 198.707 52.0424 199.451 51.7441 200.046C51.4459 200.642 50.9985 201.088 50.4021 201.535C49.8056 201.832 49.2091 202.13 48.3144 202.13C47.5688 202.13 46.8232 201.981 46.2268 201.535C45.6303 201.237 45.1829 200.642 44.8847 200.046C44.5865 199.6 44.4373 198.855 44.4373 197.962ZM55.323 192.306V194.241H62.0333V192.306H55.323ZM57.7089 192.753V203.767H59.6474V192.753H57.7089ZM64.121 192.306V194.241H70.8313V192.306H64.121ZM66.5069 192.753V203.767H68.4454V192.753H66.5069ZM72.7698 198.558H82.6116C82.6116 198.409 82.6116 198.409 82.6116 198.26C82.6116 198.111 82.6116 198.111 82.6116 197.962C82.6116 196.772 82.3134 195.73 81.8661 194.837C81.4187 193.944 80.8222 193.348 79.9275 192.753C79.1819 192.306 78.1381 192.009 77.0943 192.009C76.0504 192.009 75.1557 192.157 74.4101 192.604C73.6645 193.051 72.9189 193.497 72.4716 194.241C72.0242 194.985 71.5769 195.73 71.4278 196.772C71.4278 196.92 71.4278 197.218 71.2786 197.367C71.2786 197.516 71.2786 197.814 71.2786 197.962C71.2786 199.153 71.5769 200.195 72.0242 201.088C72.4716 201.981 73.2172 202.725 73.9628 203.172C74.8575 203.618 75.7522 203.916 76.796 203.916C77.8399 203.916 78.5854 203.767 79.331 203.618C79.9275 203.321 80.524 203.023 80.9713 202.577C81.4187 202.13 81.8661 201.683 82.3134 201.088L80.6731 200.046C80.3749 200.493 80.0766 200.79 79.7784 201.088C79.4802 201.386 79.0328 201.683 78.5854 201.832C78.1381 201.981 77.6907 202.13 77.0943 202.13C76.3487 202.13 75.7522 201.981 75.1557 201.683C74.5593 201.386 74.1119 200.939 73.8137 200.344C73.5154 199.749 73.3663 199.004 73.3663 198.111V197.367C73.3663 196.623 73.5154 196.027 73.8137 195.432C74.1119 194.837 74.5593 194.539 75.1557 194.241C75.7522 193.944 76.3487 193.795 76.9451 193.795C77.5416 193.795 78.1381 193.944 78.5854 194.241C79.0328 194.539 79.331 194.837 79.6293 195.283C79.9275 195.73 80.0766 196.325 80.0766 196.92H72.3225V198.558H72.7698ZM90.3658 195.73L93.7955 203.023H96.0323L90.3658 191.413L84.6993 203.023H86.9361L90.3658 195.73ZM95.4358 203.767V206H97.3744V201.832H83.059V206H85.1467V203.767H95.4358ZM112.584 192.306L107.514 197.069L113.032 203.767H115.567L109.751 197.218L114.97 192.157H112.584V192.306ZM107.962 192.306H106.023V203.767H107.962V192.306ZM101.699 192.306H99.1638L104.383 197.367L98.5673 203.916H101.102L106.62 197.218L101.699 192.306ZM118.549 198.707H127.049V196.772H118.549V198.707ZM125.856 192.306V203.767H127.795V192.306H125.856ZM117.356 192.306V203.767H119.295V192.306H117.356ZM141.961 192.306V203.767H143.899V192.306H141.961ZM131.522 192.306V203.767H133.461V192.306H131.522ZM132.715 198.409H136.294C137.04 198.409 137.636 198.558 137.935 198.855C138.233 199.153 138.531 199.6 138.531 200.195C138.531 200.642 138.382 200.939 138.233 201.237C138.084 201.535 137.785 201.683 137.487 201.832C137.189 201.981 136.742 201.981 136.294 201.981H132.715V203.767H136.294C137.04 203.767 137.785 203.618 138.382 203.321C138.978 203.023 139.575 202.725 139.873 202.13C140.171 201.535 140.47 200.939 140.47 200.046C140.47 198.855 140.022 197.962 139.277 197.367C138.531 196.772 137.487 196.474 136.294 196.474H132.715V198.409ZM157.32 194.241L157.469 191.413L147.925 201.832L147.776 204.66L157.32 194.241ZM149.864 192.306H147.925V204.66L149.864 201.981V192.306ZM157.469 191.413L155.531 194.092V203.767H157.469V191.413ZM148.82 186.353C148.82 186.948 148.969 187.543 149.268 187.99C149.566 188.585 150.013 189.032 150.61 189.329C151.206 189.627 151.952 189.776 152.846 189.776C153.741 189.776 154.487 189.627 155.083 189.329C155.68 189.032 156.127 188.585 156.425 187.99C156.723 187.394 156.873 186.948 156.873 186.353H155.083C155.083 186.501 155.083 186.799 154.934 187.097C154.785 187.394 154.636 187.692 154.338 187.841C154.039 188.139 153.592 188.139 152.996 188.139C152.399 188.139 151.952 187.99 151.653 187.841C151.355 187.543 151.057 187.394 151.057 187.097C150.908 186.799 150.908 186.501 150.908 186.353H148.82ZM178.346 192.306H168.951V203.767H170.89V194.092H176.258V203.767H178.197V192.306H178.346ZM181.03 197.962C181.03 199.153 181.328 200.195 181.775 201.088C182.372 201.981 182.968 202.725 183.863 203.172C184.758 203.618 185.802 203.916 186.845 203.916C188.038 203.916 188.933 203.618 189.828 203.172C190.722 202.725 191.468 201.981 191.915 201.088C192.512 200.195 192.661 199.153 192.661 197.962C192.661 196.772 192.363 195.73 191.915 194.837C191.319 193.944 190.722 193.199 189.828 192.753C188.933 192.306 187.889 192.009 186.845 192.009C185.652 192.009 184.758 192.306 183.863 192.753C182.968 193.199 182.223 193.944 181.775 194.837C181.328 195.879 181.03 196.92 181.03 197.962ZM183.117 197.962C183.117 197.218 183.267 196.474 183.565 195.879C183.863 195.283 184.31 194.837 184.907 194.39C185.503 194.092 186.1 193.795 186.995 193.795C187.74 193.795 188.486 193.944 189.082 194.39C189.679 194.688 190.126 195.283 190.424 195.879C190.722 196.474 190.872 197.218 190.872 197.962C190.872 198.707 190.722 199.451 190.424 200.046C190.126 200.642 189.679 201.088 189.082 201.535C188.486 201.832 187.889 202.13 186.995 202.13C186.249 202.13 185.503 201.981 184.907 201.535C184.31 201.237 183.863 200.642 183.565 200.046C183.267 199.6 183.117 198.855 183.117 197.962ZM196.687 197.962C196.687 197.218 196.836 196.474 197.135 195.879C197.433 195.283 197.88 194.837 198.477 194.39C199.073 194.092 199.67 193.795 200.564 193.795C201.161 193.795 201.757 193.944 202.354 194.092C202.95 194.241 203.398 194.539 203.696 194.837C204.143 195.134 204.441 195.432 204.59 195.879V193.497C204.143 193.051 203.547 192.604 202.801 192.455C202.055 192.157 201.31 192.009 200.564 192.009C199.371 192.009 198.477 192.306 197.582 192.753C196.687 193.199 195.942 193.944 195.494 194.837C194.898 195.73 194.749 196.772 194.749 197.962C194.749 199.153 195.047 200.195 195.494 201.088C196.091 201.981 196.687 202.725 197.582 203.172C198.477 203.618 199.52 203.916 200.564 203.916C201.31 203.916 202.055 203.767 202.801 203.47C203.547 203.172 204.143 202.874 204.59 202.428V199.897C204.441 200.195 204.143 200.642 203.696 200.939C203.248 201.237 202.801 201.535 202.354 201.683C201.757 201.832 201.161 201.981 200.564 201.981C199.819 201.981 199.073 201.832 198.477 201.386C197.88 201.088 197.433 200.493 197.135 199.897C196.836 199.6 196.687 198.855 196.687 197.962ZM208.02 198.558H217.862C217.862 198.409 217.862 198.409 217.862 198.26C217.862 198.111 217.862 198.111 217.862 197.962C217.862 196.772 217.564 195.73 217.116 194.837C216.669 193.944 216.073 193.348 215.178 192.753C214.432 192.306 213.388 192.009 212.345 192.009C211.301 192.009 210.406 192.157 209.661 192.604C208.915 193.051 208.169 193.497 207.722 194.241C207.275 194.985 206.827 195.73 206.678 196.772C206.678 196.92 206.678 197.218 206.529 197.367C206.529 197.516 206.529 197.814 206.529 197.962C206.529 199.153 206.827 200.195 207.275 201.088C207.722 201.981 208.468 202.725 209.213 203.172C210.108 203.618 211.003 203.916 212.046 203.916C213.09 203.916 213.836 203.767 214.581 203.618C215.178 203.321 215.774 203.023 216.222 202.577C216.669 202.13 217.116 201.683 217.564 201.088L215.923 200.046C215.625 200.493 215.327 200.79 215.029 201.088C214.731 201.386 214.283 201.683 213.836 201.832C213.388 201.981 212.941 202.13 212.345 202.13C211.599 202.13 211.003 201.981 210.406 201.683C209.81 201.386 209.362 200.939 209.064 200.344C208.766 199.749 208.617 199.004 208.617 198.111V197.367C208.617 196.623 208.766 196.027 209.064 195.432C209.362 194.837 209.81 194.539 210.406 194.241C211.003 193.944 211.599 193.795 212.196 193.795C212.792 193.795 213.388 193.944 213.836 194.241C214.283 194.539 214.581 194.837 214.88 195.283C215.178 195.73 215.327 196.325 215.327 196.92H207.573V198.558H208.02ZM213.538 189.181C213.538 189.478 213.687 189.925 213.985 190.074C214.283 190.371 214.581 190.52 214.88 190.52C215.327 190.52 215.625 190.371 215.923 190.074C216.222 189.776 216.371 189.478 216.371 189.181C216.371 188.734 216.222 188.436 215.923 188.139C215.625 187.841 215.327 187.692 214.88 187.692C214.581 187.692 214.134 187.841 213.985 188.139C213.687 188.436 213.538 188.734 213.538 189.181ZM208.468 189.181C208.468 189.478 208.617 189.925 208.915 190.074C209.213 190.371 209.511 190.52 209.81 190.52C210.257 190.52 210.555 190.371 210.853 190.074C211.152 189.776 211.301 189.478 211.301 189.181C211.301 188.734 211.152 188.436 210.853 188.139C210.555 187.841 210.257 187.692 209.81 187.692C209.511 187.692 209.064 187.841 208.915 188.139C208.617 188.436 208.468 188.734 208.468 189.181ZM230.686 192.306H220.844V199.748C220.844 200.493 220.695 201.088 220.248 201.386C219.95 201.683 219.502 201.832 218.906 201.832V203.618C219.801 203.618 220.546 203.47 220.993 203.172C221.59 202.874 222.037 202.428 222.186 201.832C222.336 201.237 222.634 200.493 222.634 199.6V193.944H228.449V203.618H230.388V192.306H230.686ZM233.519 197.962C233.519 199.153 233.818 200.195 234.265 201.088C234.862 201.981 235.458 202.725 236.353 203.172C237.247 203.618 238.291 203.916 239.335 203.916C240.528 203.916 241.423 203.618 242.317 203.172C243.212 202.725 243.958 201.981 244.405 201.088C245.002 200.195 245.151 199.153 245.151 197.962C245.151 196.772 244.852 195.73 244.405 194.837C243.809 193.944 243.212 193.199 242.317 192.753C241.423 192.306 240.379 192.009 239.335 192.009C238.142 192.009 237.247 192.306 236.353 192.753C235.458 193.199 234.712 193.944 234.265 194.837C233.818 195.879 233.519 196.92 233.519 197.962ZM235.607 197.962C235.607 197.218 235.756 196.474 236.054 195.879C236.353 195.283 236.8 194.837 237.397 194.39C237.993 194.092 238.589 193.795 239.484 193.795C240.23 193.795 240.975 193.944 241.572 194.39C242.168 194.688 242.616 195.283 242.914 195.879C243.212 196.474 243.361 197.218 243.361 197.962C243.361 198.707 243.212 199.451 242.914 200.046C242.616 200.642 242.168 201.088 241.572 201.535C240.975 201.832 240.379 202.13 239.484 202.13C238.739 202.13 237.993 201.981 237.397 201.535C236.8 201.237 236.353 200.642 236.054 200.046C235.756 199.6 235.607 198.855 235.607 197.962ZM248.133 192.306V203.767H250.072V192.306H248.133ZM254.396 192.306L249.326 197.069L254.843 203.767H257.378L251.861 197.069L256.931 192.306H254.396Z" fill="black"/>
</svg>
