<svg width="174" height="170" viewBox="0 0 174 170" fill="none" xmlns="http://www.w3.org/2000/svg">
<g clip-path="url(#clip0_310_339)">
<path fill-rule="evenodd" clip-rule="evenodd" d="M43 96.2V6.7H130.3V97H43.8C43.2 97 43 96.8 43 96.2ZM36.6 103.4H136.6V0H36.6V103.4Z" fill="black"/>
<path fill-rule="evenodd" clip-rule="evenodd" d="M60.9 69.8V63.7H78.3V75.6L67.7 74.6C65.5 74.3 60.9 74.2 60.9 69.8ZM54.6 58.2C54.6 67.8 53.1 75.9 61.5 79.7C63.6 80.7 66.7 80.9 69.7 81.1C72.4 81.3 75.7 82 78.4 82V93.6H84.5V57.4H55.5C54.8 57.4 54.6 57.6 54.6 58.2Z" fill="black"/>
<path fill-rule="evenodd" clip-rule="evenodd" d="M94.6 75.3001V63.7001H112C112 72.2001 112.8 73.3001 105.2 74.3001L94.6 75.3001ZM88.5 93.6C92.3 93.6 94.6 94.2 94.6 92.7V81.7C97.2 81.7 100.8 81.2001 103.1 80.9001C106.3 80.5001 108.5 80.6 111.1 79.6C120 76.2 118.4 66.8 118.4 57.3H88.5V93.6Z" fill="black"/>
<path fill-rule="evenodd" clip-rule="evenodd" d="M59.8001 37.9V32.1H78.4001V50.1H68.2001C60.5001 50.1 59.8001 45.4 59.8001 37.9ZM53.7001 27.8C53.7001 38.5 51.9001 50 61.0001 53.8C62.7001 54.5 65.0001 55 67.3001 55H84.4001V26.9H54.6001C53.9001 26.9 53.7001 27.1 53.7001 27.8Z" fill="black"/>
<path fill-rule="evenodd" clip-rule="evenodd" d="M105.6 49.8H94.6V31.8H113.2C113.1 40.1 114.4 49.8 105.6 49.8ZM88.5 55H101.3C114 55 119.3 51.5 119.3 38.8V26.9H88.5V55Z" fill="black"/>
<path fill-rule="evenodd" clip-rule="evenodd" d="M98.3001 14.8H94.2001C95.0001 16.1 96.5001 16.3 97.4001 17.7L96.2001 21.5C97.5001 21.2 98.7001 19.9 99.7001 19.2C100.3 19.6 100.9 20 101.4 20.4C102.1 20.9 102.4 21.3 103.4 21.6C102.8 20.4 102.5 18.8 102 17.5C102.9 16.9 104.9 15.7 105.5 14.9H101.2C100.9 13.5 100.4 12.3 100 10.8C99.0001 11.5 98.9001 13.6 98.3001 14.8Z" fill="black"/>
<path fill-rule="evenodd" clip-rule="evenodd" d="M57.7 14.8H53.4L55 16.1C55.7 16.6 56.2 17 56.9 17.4C56.6 18.8 55.9 20.1 55.7 21.5C56.5 21.3 58.1 19.9 59.2 19.2C60.3 19.9 61.9 21.3 62.7 21.5C62.6 20.1 61.9 18.8 61.5 17.4C62.5 16.7 64 15.8 64.7 14.8H60.6C60.2 13.9 59.5 11.9 59.4 10.7H58.8C58.8 11.4 58 14.3 57.7 14.8Z" fill="black"/>
<path fill-rule="evenodd" clip-rule="evenodd" d="M111.9 14.8H107.6C108 15.4 110.3 16.9 111.1 17.4C110.8 18.8 110.1 20.1 109.9 21.5C111.2 20.8 112.2 20 113.4 19.2C114 19.6 114.4 20 115.1 20.4C115.9 20.9 116.1 21.3 116.9 21.5C116.8 20.1 116.1 18.8 115.7 17.4C116.6 16.8 118.3 15.7 118.9 14.8H114.8C114.2 13.6 114.1 11.5 113.1 10.7C113 12.1 112.3 13.4 111.9 14.8Z" fill="black"/>
<path fill-rule="evenodd" clip-rule="evenodd" d="M71.4 14.8H67C67.5 15.5 69.6 17 70.5 17.4C69.9 18.6 69.6 20.2 69.1 21.5C70.5 21.2 71.5 19.9 72.9 19.2C73.8 20 75.2 21.2 76.4 21.5C76.1 20 75.3 18.7 75.2 17.2C76.1 16.9 77.9 15.6 78.4 14.9H74C73.9 13.5 73.2 12.2 72.8 10.8C72.1 11.5 71.4 13.8 71.4 14.8Z" fill="black"/>
<path fill-rule="evenodd" clip-rule="evenodd" d="M85.0001 14.8H80.7001C81.2001 15.5 83.3001 17 84.2001 17.4C83.6001 18.6 83.3001 20.2 82.8001 21.5C84.0001 21.2 83.8001 21.1 84.7001 20.5C85.4001 20 86.0001 19.6 86.6001 19.2C86.7001 19.2 86.7001 19.2 86.8001 19.3C86.8001 19.4 86.9001 19.4 87.0001 19.4C87.8001 20 89.3001 21.2 90.2001 21.5C89.9001 20 89.1001 18.7 89.0001 17.2C89.9001 16.9 91.7001 15.6 92.2001 14.9H87.9001C87.8001 13.8 87.3001 11.5 86.5001 10.8C85.8001 12.2 85.3001 13.4 85.0001 14.8Z" fill="black"/>
<path fill-rule="evenodd" clip-rule="evenodd" d="M67.3001 127.4V119.4H80.5C80.5 124.5 81.2001 126.2 75.3001 126.6C73.6001 126.8 68.6001 127.4 67.3001 127.4ZM62.8 139.3H67.3001V131.6C68.5001 131.6 69.8 131.4 71.1 131.3C72.3 131.2 73.5001 131 74.9001 131C75.8001 132.3 76.6001 133.7 77.4001 135.1C77.8001 135.8 78.2 136.4 78.7 137.1C79 137.6 79.8001 138.7 79.9001 139.2H85C84.9 138.7 80.1 131.1 79.6 130C81.1 129.9 82.9 128.3 83.7 127.3C85.7 124.8 85.2 119.5 85.2 115.6C85.2 115.3 85.1 115.1 84.7 115.1H62.8V139.3Z" fill="black"/>
<path fill-rule="evenodd" clip-rule="evenodd" d="M24 135.1H16.2V119.5H30.2001C30.2001 123.3 30.7 130.3 28.9 133C27.9 134.4 26.3 135.1 24 135.1ZM11.8 139.3C15.7 139.3 19.5 139.3 23.4 139.3C25.8 139.3 26.7 139.1 28.5 138.5C29.8 138.1 30.7001 137.4 31.7001 136.5L31.8 136.4L32.1 136.1C34 134 34.8 130.9 34.8 127C34.8 123.1 34.8 119.2 34.8 115.3H11.8V139.3Z" fill="black"/>
<path fill-rule="evenodd" clip-rule="evenodd" d="M139.4 115.7V139.3H144.1V123.4C144.6 123.7 152 132.4 152.7 133.4L157 138.4C158 139.7 158 139.3 161.5 139.3V115.3H157V131.4C156.4 131.2 153.2 127.2 152.6 126.5L143.9 116.3C142.9 115.1 143.4 115.4 139.9 115.4C139.5 115.3 139.4 115.4 139.4 115.7Z" fill="black"/>
<path fill-rule="evenodd" clip-rule="evenodd" d="M42.6 129.7L46 119.9C46.2 119.6 46 119.5 46.5 119.5C51.1 119.5 49.3 118.7 51.2 123.6C51.5 124.5 52.6 127.2 52.6 128L42.6 129.7ZM34.6 139.3H39.3L40.8 135.2C41.3 133.5 41.1 134.1 44.6 133.5L54.2 131.8C54.3 132.5 54.6 133.1 54.8 133.6L56.6 139.3H61.4L53.6 116.6C53.4 116.1 53.3 115.3 52.8 115.3H43.2C42.7 115.3 42.6 116 42.4 116.5C40.4 122.8 37.8 129.8 35.6 136.2C35.4 137.1 34.9 138.3 34.6 139.3Z" fill="black"/>
<path fill-rule="evenodd" clip-rule="evenodd" d="M118.4 129.7L121.6 120.6C122 119.2 121.7 119.5 125.3 119.5C125.9 119.5 125.9 120.3 126.3 121.4L128.5 128.1C127.7 128.1 126.8 128.3 126 128.5C125.1 128.7 124.4 128.8 123.4 128.9C121.9 129.1 119.9 129.3 118.4 129.7ZM110.4 139.3H115.1L116.9 134L130 131.7C130.1 133 132.3 137.9 132.4 139.2H137.2L128.9 115.2H118.5L116.5 121.2C115.9 123.2 115.1 125.3 114.4 127.2L110.4 139.3Z" fill="black"/>
<path fill-rule="evenodd" clip-rule="evenodd" d="M104.8 132.7C104.8 136.3 97.3 137.1 92.7 133.7C92.1 133.2 91.7 132.7 91.1 132.3L87.3 134.7C89.6 138.2 93.9 140.1 99.3 140.1C103.6 140.1 109.2 138.3 109.2 133.6C109.2 131.1 109.1 129.7 106.8 128C102.4 124.7 92.5 125.5 92.5 122.3C92.5 120.1 94.7 118.8 96.9 118.8H98.4C100.6 118.8 103.7 120.3 104.1 122C105.7 122 107.3 121.2 108.8 121.2C108.4 119.5 106.5 117.4 105.2 116.6C99.2 112.7 88.4 114.4 88 122C87.9 123.6 88.7 125.1 89.5 126C90.4 126.9 91.7 127.6 92.9 128C96.8 129.6 104.8 129.9 104.8 132.7Z" fill="black"/>
<path fill-rule="evenodd" clip-rule="evenodd" d="M11.8 139.3V115.4H34.6C34.1 115 23.8 115.2 23.2 115.2C19.3 115.2 15.5 115.2 11.6 115.2V138.9C11.7 139.3 11.7 139.2 11.8 139.3Z" fill="black"/>
<path fill-rule="evenodd" clip-rule="evenodd" d="M142.7 168.9C148 168.9 146.6 169.9 147.3 164.9L148.6 154.2C148.7 153.6 148.8 152.7 148.9 152.1C149 152.3 148.9 152.1 149.1 152.4L154.9 164.8H160.6C160.7 164.2 161 163.8 161.3 163.2L165.1 155.3C165.4 154.7 165.5 154.3 165.8 153.7L166.4 152.5C166.6 152.2 166.5 152.3 166.6 152.1C166.7 152.7 166.8 153.6 166.9 154.2L168.6 168.2C168.7 169.3 168.7 168.9 172.8 168.9C173.5 168.9 173.2 168.4 173.1 167.8C173 167.1 173 166.9 172.9 166.2L170.4 146C170.2 144.4 171 144.7 165.6 144.7C165.1 144.7 165.1 145.3 164.5 146.5C164.1 147.2 163.9 147.8 163.5 148.6C163.2 149.3 162.8 149.9 162.5 150.6C162.2 151.4 161.9 151.9 161.5 152.6L159.6 156.7C159.3 157.4 158.9 158 158.6 158.7L157.4 160.8C157.2 159.9 152.5 150.4 151.7 148.6L150.3 145.5C149.8 144.3 150 144.7 145.4 144.7C144.8 144.7 144.9 145.8 144.7 147.4L142.2 167.6C142.3 168.3 142 168.9 142.7 168.9Z" fill="black"/>
<path fill-rule="evenodd" clip-rule="evenodd" d="M79.2 168.9C79.5 167.7 79.5 166.2 79.7 164.8C80 162.4 80.9 153.5 81.3 152.1C81.7 152.6 85.3 160.4 85.9 161.5L87.4 164.7H93.1L94.6 161.5C94.9 160.9 95 160.5 95.3 159.9L99.2 151.9L101 166.9C101.3 169.4 100.4 168.9 105.4 168.9C106.1 168.9 105.7 167.9 105.5 166.2L103.2 147.6C103.1 146.3 103.1 144.7 102.5 144.7C96.9 144.7 98.3 144.3 97.2 146.5C95.2 150.5 93.3 154.8 91.4 158.7C91.2 159.2 90.6 160.3 90.5 160.8H90C89.8 160 82.6 145.3 82.5 144.7C81.7 144.7 78.5 144.6 78 144.7C77.5 144.8 77.6 144.8 77.5 145.3L77.2 148.4C76.8 151.2 76.5 153.8 76.2 156.6L74.8 168.7C75 169.1 78.6 168.9 79.2 168.9Z" fill="black"/>
<path fill-rule="evenodd" clip-rule="evenodd" d="M30.2001 156.9V148.9H43.4001C43.4001 152.2 44.0001 154.3 41.7001 155.5C40.4001 156.2 36.0001 156.4 34.2001 156.6C32.9001 156.7 31.6001 156.9 30.2001 156.9ZM25.7001 168.4C25.7001 168.7 25.8001 168.9 26.2001 168.9H30.3001V161.1C32.9001 161.1 35.4001 160.5 38.0001 160.5C38.1001 161.1 41.9001 167.1 42.5001 168.1C42.8001 168.6 42.8001 168.9 43.5001 168.9C48.6001 168.9 48.5001 169.2 47.7001 168L43.4001 160.9C43.2001 160.5 42.8001 160.1 42.8001 159.6C44.9001 159.4 48.2001 156.4 48.2001 152.7V144.7H25.7001V168.4Z" fill="black"/>
<path fill-rule="evenodd" clip-rule="evenodd" d="M72.3 164.7C69.6 164.7 67 164.7 64.3 164.7C62.8 164.7 57.3 164.9 56.3 164.6C56.2 163.4 56.1 157.7 56.4 157C57.9 156.9 68.1 157.1 68.4 156.8C68.7 156.5 68.5 153.4 68.5 152.7H56.4V148.8H72.5V144.6H52.9C51.7 144.6 51.7 144.5 51.7 145.6V167.6C51.7 169.1 51.4 168.8 54.9 168.8C57 168.8 72 168.9 72.3 168.7C72.6 168.5 72.6 165.7 72.5 165L72.3 164.7Z" fill="black"/>
<path fill-rule="evenodd" clip-rule="evenodd" d="M4.49998 156.9V149.4C4.49998 149.1 4.59998 148.9 4.99998 148.9H17.5C18.2 148.9 18 150 18 151.9C18 156.7 14 155.9 8.89997 156.5L4.49998 156.9ZM0.0999756 168.7C0.299976 168.8 0.0999756 168.8 0.399976 168.8C0.599976 168.8 0.799976 168.8 0.999976 168.8H4.49998V161L12.3 160.4C13.5 160.2 14.8 160.2 16 159.9C23.9 157.9 22.4 151.4 22.4 144.9L0.199976 144.8V168.7H0.0999756Z" fill="black"/>
<path fill-rule="evenodd" clip-rule="evenodd" d="M116.8 145.2V156.3C116.8 160.5 117.4 163.2 119.3 165.7C120.1 166.8 121.3 167.8 122.6 168.4C127 170.5 133.9 170 137.3 165.5C139.3 162.9 139.7 159.9 139.7 155.4V145.2C139.7 144.9 139.6 144.7 139.2 144.7H135V158.2C135 166.2 126.8 165.8 124.3 164.1C122.6 162.9 121.4 161 121.4 158.4V144.7H117.2C116.9 144.7 116.8 144.8 116.8 145.2Z" fill="black"/>
<path fill-rule="evenodd" clip-rule="evenodd" d="M108.7 168.4C108.7 168.7 108.8 168.9 109.2 168.9H112.8C113.1 168.9 113.3 168.8 113.3 168.4V144.7H108.8V168.4H108.7Z" fill="black"/>
<path fill-rule="evenodd" clip-rule="evenodd" d="M0.100024 168.7V144.8L22.3 144.9C21.8 144.4 20.4 144.7 19.7 144.7C13.1 144.7 6.50002 144.7 -0.0999756 144.7V168.4C0.100024 168.7 0.100024 168.6 0.100024 168.7Z" fill="black"/>
<path fill-rule="evenodd" clip-rule="evenodd" d="M72.3001 164.7C71.8001 164.3 65.1001 164.5 64.5001 164.5C61.8001 164.5 59.1001 164.5 56.4001 164.5V157C56.1001 157.7 56.2001 163.4 56.3001 164.6C57.3001 164.9 62.9001 164.7 64.3001 164.7C67.0001 164.7 69.7001 164.7 72.3001 164.7Z" fill="black"/>
</g>
<defs>
<clipPath id="clip0_310_339">
<rect width="173.2" height="169.5" fill="white"/>
</clipPath>
</defs>
</svg>
