<svg width="347" height="82" viewBox="0 0 347 82" fill="none" xmlns="http://www.w3.org/2000/svg">
<g clip-path="url(#clip0_261_1467)">
<path fill-rule="evenodd" clip-rule="evenodd" d="M5.09011 76.3298V5.23404H74.3156V76.9113H5.81727C5.23554 76.9113 5.09011 76.766 5.09011 76.3298ZM0 82H79.4057V0H0V82Z" fill="white"/>
<path fill-rule="evenodd" clip-rule="evenodd" d="M19.3424 55.3936V50.5957H33.1584V60.0461L24.7234 59.1737C22.9782 58.883 19.3424 58.883 19.3424 55.3936ZM14.2523 46.234C14.2523 53.7943 13.0888 60.3369 19.7787 63.2447C21.3784 63.9716 23.8508 64.2624 26.1777 64.4078C28.3592 64.5532 30.9769 65.1347 33.013 65.1347V74.1489H37.8122V45.5071H14.9794C14.3977 45.5071 14.2523 45.6525 14.2523 46.234Z" fill="white"/>
<path fill-rule="evenodd" clip-rule="evenodd" d="M45.9565 59.7553V50.5957H59.7725C59.7725 57.2837 60.3542 58.156 54.3915 59.0284L45.9565 59.7553ZM41.1572 74.1489C44.2113 74.1489 45.9565 74.5851 45.9565 73.422V64.6986C47.9925 64.6986 50.9012 64.2624 52.6463 64.117C55.2641 63.8262 56.8638 63.9716 59.0453 63.0993C66.1715 60.3369 64.8626 52.922 64.8626 45.5071H41.1572V74.1489Z" fill="white"/>
<path fill-rule="evenodd" clip-rule="evenodd" d="M18.3245 30.0957V25.4432H33.0131V39.6915H25.0143C19.0516 39.6915 18.3245 36.0567 18.3245 30.0957ZM13.5252 22.0993C13.5252 30.5319 12.0709 39.6915 19.3425 42.7447C20.6514 43.3262 22.542 43.7624 24.2872 43.7624H37.8123V21.3723H14.2524C13.6706 21.3723 13.5252 21.5177 13.5252 22.0993Z" fill="white"/>
<path fill-rule="evenodd" clip-rule="evenodd" d="M54.6824 39.5461H45.9565V25.2978H60.6451C60.6451 31.8404 61.8085 39.5461 54.6824 39.5461ZM41.1572 43.617H51.3374C61.3722 43.617 65.5897 40.8546 65.5897 30.8227V21.3723H41.1572V43.617Z" fill="white"/>
<path fill-rule="evenodd" clip-rule="evenodd" d="M49.0105 11.7766H45.811C46.5382 12.7943 47.5562 12.9397 48.2834 14.1028L47.2654 17.0106C48.2834 16.7199 49.3014 15.7021 50.0286 15.1206C50.4649 15.4113 50.9011 15.7021 51.3374 15.9929C51.9192 16.4291 52.21 16.7199 52.9372 16.8652C52.5009 15.8475 52.21 14.6844 51.7737 13.6667C52.5009 13.2305 54.1006 12.2128 54.5369 11.6312H51.0466C50.7557 10.6135 50.4648 9.59574 50.174 8.43262C49.5923 9.15957 49.4468 10.7589 49.0105 11.7766Z" fill="white"/>
<path fill-rule="evenodd" clip-rule="evenodd" d="M16.7246 11.7766H13.3796L14.6885 12.7943C15.2703 13.2305 15.5611 13.5213 16.1428 13.812C15.852 14.8298 15.2703 15.9929 15.2703 17.0106C15.852 16.8652 17.1609 15.7021 18.0335 15.1206C18.906 15.7021 20.2149 16.7198 20.7967 17.0106C20.6512 15.8475 20.0695 14.8298 19.9241 13.812C20.7967 13.2305 21.9601 12.5035 22.3964 11.7766H19.1969C18.906 11.0496 18.3243 9.45034 18.3243 8.578H17.888C17.5972 9.01417 17.0154 11.3404 16.7246 11.7766Z" fill="white"/>
<path fill-rule="evenodd" clip-rule="evenodd" d="M59.7723 11.7766H56.282C56.5728 12.2128 58.4635 13.5213 59.0452 13.812C58.7543 14.8298 58.1726 15.9929 58.1726 17.0106C59.1906 16.4291 60.0632 15.8475 60.9358 15.1206C61.3721 15.4113 61.8084 15.7021 62.2447 16.1383C62.8264 16.5745 62.9718 16.8652 63.699 17.0106C63.5536 15.8475 62.9718 14.8298 62.8264 13.812C63.5536 13.3759 64.8625 12.5035 65.2987 11.7766H62.0992C61.663 10.9042 61.5175 9.15956 60.7904 8.578C60.6449 9.59573 60.0632 10.6135 59.7723 11.7766Z" fill="white"/>
<path fill-rule="evenodd" clip-rule="evenodd" d="M27.632 11.7766H24.1416C24.5779 12.3581 26.1776 13.5213 26.9048 13.812C26.4685 14.8298 26.1776 15.9929 25.7414 17.0106C26.9048 16.7199 27.632 15.7021 28.7954 15.1206C29.5226 15.7021 30.5406 16.7199 31.5586 17.0106C31.2678 15.8475 30.686 14.8298 30.686 13.5213C31.4132 13.3759 32.8675 12.2128 33.1584 11.6312H29.668C29.5226 10.4681 28.9408 9.45035 28.7954 8.43262C28.2137 9.15957 27.632 10.9042 27.632 11.7766Z" fill="white"/>
<path fill-rule="evenodd" clip-rule="evenodd" d="M38.3939 11.7766H34.9036C35.3399 12.3581 36.9396 13.5213 37.6668 13.812C37.2305 14.8298 36.9396 15.9929 36.5033 17.0106C37.5213 16.7199 37.2305 16.7199 37.9576 16.1383C38.5394 15.7021 38.9757 15.4113 39.4119 15.1206C39.4119 15.1206 39.5574 15.1206 39.5574 15.266L39.7028 15.4113C40.2845 15.8475 41.5934 16.8652 42.1751 17.0106C41.8843 15.8475 41.3026 14.8298 41.3026 13.5213C42.0297 13.3759 43.484 12.2128 43.7749 11.6312H40.2845C40.1391 10.7589 39.8482 8.86879 39.1211 8.43262C38.9757 9.74113 38.6848 10.6135 38.3939 11.7766Z" fill="white"/>
<path fill-rule="evenodd" clip-rule="evenodd" d="M176.118 18.6099V6.9787H195.315C195.315 14.3936 196.333 16.8652 187.752 17.4468C185.28 17.7376 178.008 18.6099 176.118 18.6099ZM169.573 35.9113H176.118V24.7163C177.863 24.7163 179.753 24.4255 181.644 24.2801C183.389 24.1347 185.134 23.8439 187.17 23.8439C188.479 25.734 189.643 27.7695 190.806 29.8049C191.388 30.8227 191.97 31.695 192.697 32.7127C193.133 33.4397 194.297 35.039 194.442 35.7659H202.15C202.005 35.039 195.024 23.9893 194.297 22.39C196.478 22.2447 199.096 19.9184 200.259 18.4645C203.168 14.8298 202.441 7.12409 202.441 1.45388C202.441 1.01771 202.295 0.726929 201.714 0.726929H169.864V35.9113H169.573Z" fill="white"/>
<path fill-rule="evenodd" clip-rule="evenodd" d="M113.146 29.8049H101.802V6.97869H122.163C122.163 12.5035 122.89 22.6808 120.272 26.6063C118.818 28.6418 116.491 29.8049 113.146 29.8049ZM95.4031 35.9113C101.075 35.9113 106.601 35.9113 112.273 35.9113C115.764 35.9113 117.072 35.6205 119.69 34.7482C121.581 34.1666 122.89 33.1489 124.344 31.8404L124.489 31.695L124.926 31.2588C127.689 28.2056 128.852 23.6986 128.852 18.0283C128.852 12.3581 128.852 6.68791 128.852 1.0177H95.4031V35.9113Z" fill="white"/>
<path fill-rule="evenodd" clip-rule="evenodd" d="M280.974 1.59926V35.9113H287.809V12.7943C288.536 13.2305 299.298 25.8794 300.316 27.3333L306.57 34.6028C308.024 36.4929 308.024 35.9113 313.114 35.9113V1.0177H306.57V24.4255C305.697 24.1347 301.043 18.3191 300.171 17.3014L287.518 2.4716C286.064 0.72692 286.791 1.16309 281.701 1.16309C281.119 0.87231 280.974 1.0177 280.974 1.59926Z" fill="white"/>
<path fill-rule="evenodd" clip-rule="evenodd" d="M140.196 21.9539L145.141 7.70564C145.432 7.26947 145.141 7.12408 145.868 7.12408C152.558 7.12408 149.94 5.96096 152.703 13.0851C153.14 14.3936 154.739 18.3191 154.739 19.4822L140.196 21.9539ZM128.707 35.9113H135.542L137.724 29.9503C138.451 27.4787 138.16 28.351 143.25 27.4787L157.212 25.0071C157.357 26.0248 157.793 26.8971 158.084 27.6241L160.702 35.9113H167.683L156.339 2.90777C156.048 2.18082 155.903 1.0177 155.176 1.0177H141.069C140.342 1.0177 140.196 2.03543 139.905 2.76238C136.997 11.922 133.215 22.0993 130.016 31.4042C129.725 32.7127 128.998 34.4574 128.707 35.9113Z" fill="white"/>
<path fill-rule="evenodd" clip-rule="evenodd" d="M250.433 21.9539L255.087 8.72338C255.669 6.68792 255.233 7.12409 260.468 7.12409C261.341 7.12409 261.341 8.28721 261.922 9.8865L265.122 19.6276C263.959 19.6276 262.65 19.9184 261.486 20.2092C260.177 20.5 259.159 20.6454 257.705 20.7908C255.523 21.0815 252.615 21.3723 250.433 21.9539ZM238.799 35.9113H245.634L248.252 28.2056L267.303 24.8617C267.449 26.7517 270.648 33.8759 270.794 35.7659H277.775L265.704 0.872314H250.579L247.67 9.59572C246.798 12.5035 245.634 15.5567 244.616 18.3191L238.799 35.9113Z" fill="white"/>
<path fill-rule="evenodd" clip-rule="evenodd" d="M230.8 26.3155C230.8 31.5496 219.893 32.7127 213.203 27.7694C212.33 27.0425 211.749 26.3155 210.876 25.734L205.35 29.2233C208.695 34.312 214.948 37.0744 222.801 37.0744C229.055 37.0744 237.199 34.4574 237.199 27.6241C237.199 23.9893 237.054 21.9538 233.709 19.4822C227.31 14.6843 212.912 15.8475 212.912 11.195C212.912 7.9964 216.112 6.10633 219.311 6.10633H221.493C224.692 6.10633 229.2 8.28718 229.782 10.7588C232.109 10.7588 234.436 9.59569 236.617 9.59569C236.036 7.12406 233.273 4.07086 231.382 2.90774C222.656 -2.76247 206.949 -0.290837 206.368 10.7588C206.222 13.085 207.386 15.2659 208.549 16.5744C209.858 17.8829 211.749 18.9007 213.494 19.4822C219.02 21.8085 230.8 22.0992 230.8 26.3155Z" fill="white"/>
<path fill-rule="evenodd" clip-rule="evenodd" d="M95.4032 35.9113V1.16304H128.562C127.834 0.581475 113 0.872256 111.982 0.872256C106.311 0.872256 100.784 0.872256 95.1123 0.872256V35.3297C95.2577 35.9113 95.2577 35.6205 95.4032 35.9113Z" fill="white"/>
<path fill-rule="evenodd" clip-rule="evenodd" d="M302.643 81.1277C310.351 81.1277 308.315 82.5816 309.333 75.3121L311.224 59.7553C311.369 58.883 311.515 57.5745 311.66 56.7021C311.806 56.9929 311.66 56.7021 311.951 57.1383L320.386 75.1667H328.676C328.821 74.2943 329.257 73.7128 329.694 72.8404L335.22 61.3546C335.656 60.4823 335.802 59.9007 336.238 59.0284L337.111 57.2837C337.402 56.8475 337.256 56.9929 337.402 56.7021C337.547 57.5745 337.692 58.883 337.838 59.7553L340.31 80.1099C340.456 81.7092 340.456 81.1277 346.418 81.1277C347.436 81.1277 347 80.4007 346.855 79.5284C346.709 78.5106 346.709 78.2199 346.564 77.2021L342.928 47.8333C342.637 45.5071 343.801 45.9433 335.947 45.9433C335.22 45.9433 335.22 46.8156 334.348 48.5603C333.766 49.578 333.475 50.4504 332.893 51.6135C332.457 52.6312 331.875 53.5036 331.439 54.5213C331.003 55.6844 330.566 56.4114 329.985 57.4291L327.221 63.3901C326.785 64.4078 326.203 65.2801 325.767 66.2979L324.022 69.3511C323.731 68.0426 316.896 54.2305 315.732 51.6135L313.696 47.1064C312.969 45.3617 313.26 45.9433 306.57 45.9433C305.697 45.9433 305.843 47.5426 305.552 49.8688L301.916 79.2376C302.062 80.2553 301.771 81.1277 302.643 81.1277Z" fill="white"/>
<path fill-rule="evenodd" clip-rule="evenodd" d="M210.44 81.1277C210.876 79.383 210.876 77.2021 211.167 75.1667C211.603 71.6773 212.912 58.7376 213.494 56.7021C214.075 57.4291 219.311 68.7695 220.184 70.3688L222.365 75.0213H230.655L232.836 70.3688C233.272 69.4965 233.418 68.9149 233.854 68.0426L239.526 56.4114L242.144 78.2199C242.58 81.8546 241.271 81.1277 248.543 81.1277C249.561 81.1277 248.979 79.6738 248.688 77.2021L245.343 50.1596C245.198 48.2695 245.198 45.9433 244.325 45.9433C236.181 45.9433 238.217 45.3617 236.617 48.5603C233.709 54.3759 230.946 60.6277 228.182 66.2979C227.891 67.0248 227.019 68.6241 226.873 69.3511H226.437C226.146 68.188 215.675 46.8156 215.53 45.9433C214.366 45.9433 209.713 45.7979 208.985 45.9433C208.258 46.0887 208.404 46.0887 208.258 46.8156L207.822 51.3227C207.24 55.3936 206.804 59.1738 206.368 63.2447L204.332 80.8369C204.332 81.4185 209.567 81.1277 210.44 81.1277Z" fill="white"/>
<path fill-rule="evenodd" clip-rule="evenodd" d="M139.178 63.5354V51.9042H158.375C158.375 56.7021 159.248 59.7553 155.903 61.5C154.012 62.5177 147.613 62.8085 144.995 63.0993C143.105 63.2447 141.069 63.5354 139.178 63.5354ZM132.634 80.4007C132.634 80.8369 132.779 81.1276 133.361 81.1276H139.324V69.7872C143.105 69.7872 146.741 68.9149 150.522 68.9149C150.667 69.7872 156.194 78.5106 157.066 79.9645C157.503 80.6915 157.503 81.1276 158.521 81.1276C165.938 81.1276 165.792 81.5638 164.629 79.8191L158.375 69.4964C158.084 68.9149 157.503 68.3333 157.503 67.6064C160.557 67.3156 165.356 62.9539 165.356 57.5744V45.9432H132.634V80.4007Z" fill="white"/>
<path fill-rule="evenodd" clip-rule="evenodd" d="M200.405 75.0213C196.478 75.0213 192.697 75.0213 188.77 75.0213C186.589 75.0213 178.59 75.3121 177.136 74.8759C176.99 73.1312 176.845 64.844 177.281 63.8262C179.463 63.6809 194.297 63.9716 194.733 63.5355C195.169 63.0993 194.878 58.5922 194.878 57.5745H177.136V51.9043H200.55V45.7979H172.046C170.3 45.7979 170.3 45.6525 170.3 47.2518V79.2376C170.3 81.4184 169.864 80.9823 174.954 80.9823C178.008 80.9823 199.823 81.1277 200.259 80.8369C200.696 80.5461 200.696 76.4752 200.55 75.4575L200.405 75.0213Z" fill="white"/>
<path fill-rule="evenodd" clip-rule="evenodd" d="M101.802 63.5354V52.6312C101.802 52.195 101.948 51.9042 102.529 51.9042H120.708C121.726 51.9042 121.435 53.5035 121.435 56.2659C121.435 63.2446 115.618 62.0815 108.201 62.9539L101.802 63.5354ZM95.4031 80.8368C95.6939 80.9822 95.4031 80.9822 95.8394 80.9822C96.1302 80.9822 96.4211 80.9822 96.712 80.9822H101.802V69.7872L113.146 68.9149C114.891 68.6241 116.782 68.6241 118.527 68.1879C130.016 65.2801 127.834 55.8298 127.834 46.3794L95.5485 46.234V80.8368H95.4031Z" fill="white"/>
<path fill-rule="evenodd" clip-rule="evenodd" d="M265.122 46.5248V62.6631C265.122 68.7695 265.995 72.695 268.758 76.3298C269.921 77.9291 271.667 79.383 273.557 80.2553C279.956 83.3085 289.991 82.5815 294.936 76.039C297.844 72.2588 298.426 67.8971 298.426 61.3546V46.5248C298.426 46.0886 298.28 45.7979 297.699 45.7979H291.591V65.4255C291.591 77.0567 279.665 76.4752 276.029 74.0035C273.557 72.2588 271.812 69.4964 271.812 65.7163V45.9432H265.704C265.267 45.9432 265.122 46.0886 265.122 46.5248Z" fill="white"/>
<path fill-rule="evenodd" clip-rule="evenodd" d="M253.342 80.4007C253.342 80.8369 253.487 81.1276 254.069 81.1276H259.305C259.741 81.1276 260.032 80.9822 260.032 80.4007V45.9432H253.487V80.4007H253.342Z" fill="white"/>
<path fill-rule="evenodd" clip-rule="evenodd" d="M95.4032 80.8369V46.0886L127.689 46.234C126.962 45.5071 124.926 45.9432 123.908 45.9432C114.309 45.9432 104.711 45.9432 95.1123 45.9432V80.4007C95.2577 80.8369 95.2577 80.6915 95.4032 80.8369Z" fill="white"/>
<path fill-rule="evenodd" clip-rule="evenodd" d="M200.405 75.0213C199.678 74.4398 189.934 74.7305 189.061 74.7305C185.134 74.7305 181.208 74.7305 177.281 74.7305V63.8263C176.845 64.844 176.99 73.1313 177.136 74.8759C178.59 75.3121 186.734 75.0213 188.77 75.0213C192.697 75.0213 196.478 75.0213 200.405 75.0213Z" fill="white"/>
</g>
<defs>
<clipPath id="clip0_261_1467">
<rect width="347" height="82" fill="white"/>
</clipPath>
</defs>
</svg>
