<svg width="20" height="20" viewBox="0 0 20 20" fill="none" xmlns="http://www.w3.org/2000/svg">
<g clip-path="url(#clip0_340_119)">
<path d="M17.0819 2.90179C15.1964 1.02679 12.7048 0 10.0337 0C4.55668 0 0.0897868 4.44196 0.0897868 9.91071C0.0897868 11.6518 0.538721 13.3482 1.41414 14.8661L0 20L5.27497 18.6384C6.73401 19.442 8.37261 19.8438 10.0337 19.8438C15.5107 19.8438 20 15.4018 20 9.93304C20 7.25446 18.9675 4.77679 17.0819 2.90179ZM15.4882 13.9062C15.2637 14.5536 14.1414 15.1339 13.6027 15.2232C13.1313 15.2902 12.5253 15.3125 11.8519 15.1116C11.4478 14.9777 10.9315 14.8214 10.2581 14.5312C7.4523 13.3259 5.61167 10.5134 5.47699 10.3348C5.34231 10.1339 4.33221 8.81696 4.33221 7.45536C4.33221 6.09375 5.07295 5.40179 5.31987 5.13393C5.56678 4.84375 5.88103 4.77679 6.06061 4.77679C6.24018 4.77679 6.4422 4.77679 6.59933 4.77679C6.7789 4.77679 7.00337 4.70982 7.22783 5.24554C7.4523 5.80357 8.01347 7.16518 8.08081 7.29911C8.14815 7.43304 8.19304 7.61161 8.10325 7.79018C8.01347 7.99107 7.96858 8.10268 7.83389 8.25893C7.67677 8.41518 7.54209 8.61607 7.40741 8.75C7.27273 8.88393 7.13805 9.04018 7.29517 9.30804C7.4523 9.57589 8.01347 10.4911 8.844 11.2277C9.89899 12.1875 10.8193 12.4777 11.0887 12.6116C11.358 12.7455 11.5376 12.7232 11.6947 12.5446C11.8519 12.3438 12.3906 11.7188 12.5701 11.4509C12.7497 11.183 12.9517 11.2277 13.1987 11.317C13.4456 11.4062 14.8373 12.0759 15.1066 12.2098C15.3984 12.3438 15.578 12.4107 15.6453 12.5893C15.7127 12.7009 15.7127 13.2589 15.4882 13.9062Z" fill="#33CE62"/>
</g>
<defs>
<clipPath id="clip0_340_119">
<rect width="20" height="20" fill="white"/>
</clipPath>
</defs>
</svg>
