<svg width="20" height="18" viewBox="0 0 20 18" fill="none" xmlns="http://www.w3.org/2000/svg">
<g clip-path="url(#clip0_340_121)">
<path d="M18.5466 0.19934L0.782785 7.41496C0.782785 7.41496 -0.0599488 7.71046 0.00640823 8.26022C0.0727652 8.80998 0.756242 9.06424 0.756242 9.06424L5.22207 10.6242L5.2287 10.6311V10.6242L15.952 3.56663C15.952 3.56663 16.5691 3.17492 16.5492 3.56663C16.5492 3.56663 16.662 3.63535 16.3302 3.95833C15.9984 4.28132 7.90289 11.8131 7.90289 11.8131L7.88962 11.9574L15.1756 17.7436C16.39 18.2934 16.8345 17.1457 16.8345 17.1457L19.9998 0.632278C19.9998 -0.467245 18.5399 0.19934 18.5466 0.19934Z" fill="#1393E2"/>
<path d="M10.6768 14.1701L7.79023 16.8983C7.79023 16.8983 7.56461 17.077 7.31909 16.967L7.86985 11.9023" fill="#1393E2"/>
</g>
<defs>
<clipPath id="clip0_340_121">
<rect width="20" height="17.8947" fill="white"/>
</clipPath>
</defs>
</svg>
