<svg width="240" height="121" viewBox="0 0 240 121" fill="none" xmlns="http://www.w3.org/2000/svg">
    <g clip-path="url(#clip0_340_82)">
        <path fill-rule="evenodd" clip-rule="evenodd"
            d="M102.102 111.521V119.978H50.8192V108.919L50.912 111.428L102.102 111.521Z"
            fill="#544E4D" />
        <path
            d="M101.731 97.116C101.917 98.1383 102.009 99.1605 102.195 100.09V97.0231L101.731 97.116Z"
            fill="#544E4D" />
        <path
            d="M98.0216 80.8525L102.102 80.4808V69.3287L94.4049 70.5369C95.7959 73.8825 97.0015 77.414 98.0216 80.8525Z"
            fill="#544E4D" />
        <path
            d="M102.102 83.7335L98.8562 84.0123C99.7836 87.4509 100.525 90.8894 101.175 94.4209L102.102 94.328V83.7335Z"
            fill="#544E4D" />
        <path
            d="M102.102 40.9839L81.2365 45.5377C83.2766 48.5115 85.3168 51.6713 87.0788 54.831L87.357 55.2957L102.195 52.6936V40.9839H102.102Z"
            fill="#544E4D" />
        <path
            d="M79.1963 42.6567L79.5672 43.2143L102.195 38.1959V26.2074L72.7975 34.6644C74.9304 37.2665 77.1561 39.9616 79.1963 42.6567Z"
            fill="#544E4D" />
        <path
            d="M88.6553 57.8049C90.3245 61.0576 91.9938 64.4032 93.3848 67.7488L93.4775 68.1206L102.102 66.8195V55.5745L88.6553 57.8049Z"
            fill="#544E4D" />
        <path fill-rule="evenodd" clip-rule="evenodd"
            d="M50.912 119.327V111.428H101.638C101.824 114.03 101.824 116.632 101.824 119.327H54.3432H50.912ZM50.912 108.919V100.276L100.155 97.3948C100.711 101.112 101.175 104.922 101.453 108.919H50.912ZM50.912 97.7665L99.6909 94.8856C99.0418 90.9823 98.1144 87.3579 97.1871 83.7335L50.8192 88.4731V97.7665H50.912ZM50.912 85.9639V77.2281L92.9212 70.7227C94.2195 74.0684 95.4251 77.5998 96.5379 81.2243L50.912 85.9639ZM50.912 74.7189L91.9011 68.3994C90.3246 64.682 88.6554 61.2435 86.9861 57.9908L50.912 64.3103V74.7189ZM50.912 61.8011V52.2289L79.5673 45.9094C81.7002 48.8833 83.7404 52.1359 85.7806 55.7604L50.912 61.8011ZM50.912 49.6267L77.898 43.586C75.5796 40.4263 73.2613 37.5453 70.9429 35.0361L50.8192 40.8909V49.6267H50.912ZM50.912 38.2888V1.76574C50.912 0.836406 51.6538 0 52.6739 0C53.6013 0 54.4359 0.743472 54.4359 1.76574V7.99232L71.3138 13.0108L54.4359 18.0292V20.0737C54.4359 20.0737 60.9274 24.2558 69.0881 32.9916L50.912 38.2888Z"
            fill="#544E4D" />
        <path fill-rule="evenodd" clip-rule="evenodd"
            d="M124.08 32.1552L103.493 26.2074V38.1029L124.08 42.7496V32.1552ZM124.08 45.4447V56.318L103.493 52.6936V40.9839L124.08 45.4447ZM124.08 59.0131L103.493 55.4816V66.7266L124.08 69.8863V59.0131ZM124.08 72.4885V82.6183L103.493 80.3879V69.2358L124.08 72.4885ZM124.08 85.5922L103.493 83.6406V94.235L124.08 95.6291V85.5922ZM124.08 98.4171L103.493 97.116V108.64L124.08 108.733V98.4171ZM103.586 111.521V119.978H124.173V111.521H103.586Z"
            fill="#544E4D" />
        <path fill-rule="evenodd" clip-rule="evenodd"
            d="M142.071 104.365V115.982H144.019C145.595 115.982 146.43 114.123 146.43 110.498V109.29C146.43 106.967 146.244 105.48 145.873 104.922C145.502 104.272 144.853 103.993 143.833 103.993C143.091 103.993 142.535 104.086 142.071 104.365ZM142.071 91.1682V98.6029H145.595C148.563 98.6029 150.788 99.1605 152.179 100.183C153.385 101.112 154.127 102.599 154.498 104.644C154.683 105.759 154.776 107.989 154.776 111.428C154.776 115.145 154.127 117.654 152.736 118.955C151.437 120.257 148.841 121 145.224 121H134.003V85.871H153.014V91.1682H142.071ZM175.363 121H158.485V85.871H175.363V91.1682H166.646V98.9747H175.178V104.179H166.646V115.517H175.363V121ZM186.955 90.9823V104.272H188.346C189.552 104.272 190.386 103.9 190.757 103.157C191.128 102.413 191.314 101.019 191.314 98.8817V96.4654C191.314 94.4209 191.128 92.9339 190.757 92.1905C190.386 91.447 189.552 90.9823 188.253 90.9823H186.955ZM186.955 121H178.794V85.871H189.737C193.261 85.871 195.765 86.5215 197.156 87.9155C198.64 89.3095 199.289 91.7258 199.289 95.1644V98.9747C199.289 101.484 199.011 103.435 198.454 104.922C197.62 106.967 196.229 108.268 194.281 108.826C193.168 109.197 190.665 109.29 186.955 109.29V121ZM219.969 121H203.091V85.871H219.969V91.1682H211.252V98.9747H219.784V104.179H211.252V115.517H219.969V121ZM231.468 121H223.308V85.871H239.907V91.2611H231.468V121Z"
            fill="#544E4D" />
        <path
            d="M29.0263 118.584V62.5446L7.04791 60.5V74.9048H9.92272V77.0423H1.11283V74.9048H3.70943V60.2212L0 59.8495L4.26584 52.4148L29.5827 45.9094L45.3478 18.2151L45.255 41.9132V64.1245V64.6821V118.584H29.0263ZM32.272 115.238H41.4529L32.272 104.83V115.238ZM32.272 101.856V103.157L42.0093 114.216V101.391L32.272 101.856ZM32.272 100.74L42.3802 100.183L32.272 90.4248V100.74ZM31.9011 88.4732L42.0093 98.2312V87.3579L31.9011 88.4732ZM32.272 87.3579L41.7311 86.3357L32.272 79.5515V87.3579ZM32.0866 77.8787L42.102 85.0346V76.1129L32.0866 77.8787ZM32.272 76.6705L42.473 74.8119L32.272 65.0538V76.6705ZM42.0093 72.8603V63.7527L31.5301 62.8234L42.0093 72.8603ZM32.272 48.6045V59.4778L42.0093 60.4071V46.1882L32.272 48.6045ZM20.4019 58.4555L28.9335 59.2919V50.4632L20.4019 58.4555ZM12.4266 53.7159L16.9706 58.0838L18.8253 58.2696L26.4297 51.1137L25.966 50.1844L12.4266 53.7159ZM7.04791 55.1099V57.1544L15.2087 57.8979L11.1283 53.9947L7.04791 55.1099ZM34.034 44.7942L42.0093 42.7497V30.7612L34.034 44.7942Z"
            fill="#544E4D" />
        <path
            d="M136.414 72.3955L135.858 73.2319V76.02H133.91V66.4478H135.858V70.1651L136.322 69.0499L137.62 66.4478H139.845L137.434 70.6298L140.309 76.02H138.084L136.414 72.3955Z"
            fill="#544E4D" />
        <path
            d="M146.986 72.9532V69.6075C146.986 67.563 148.192 66.3549 150.139 66.3549C152.087 66.3549 153.292 67.563 153.292 69.6075V72.9532C153.292 74.9977 152.087 76.2059 150.139 76.2059C148.099 76.2059 146.986 74.9977 146.986 72.9532ZM151.159 72.9532V69.6075C151.159 68.6782 150.788 68.2135 150.046 68.2135C149.304 68.2135 148.934 68.6782 148.934 69.6075V72.9532C148.934 73.8825 149.304 74.3472 150.046 74.3472C150.788 74.3472 151.159 73.8825 151.159 72.9532Z"
            fill="#544E4D" />
        <path
            d="M169.15 66.4478V76.02H167.203V73.6966C167.295 72.4885 167.295 71.3733 167.388 70.1651H167.295L166.461 72.6743L165.997 73.9754H164.049L163.586 72.6743L162.751 70.1651H162.658C162.658 71.3733 162.751 72.4885 162.751 73.6966V76.02H160.896V66.4478H162.844L164.328 70.0722C164.513 70.5368 164.884 71.3733 164.977 71.745H165.07C165.162 71.3733 165.533 70.5368 165.719 70.0722L167.203 66.4478H169.15Z"
            fill="#544E4D" />
        <path d="M183.06 76.1129H181.113V68.3994H179.165V76.1129H177.218V66.4478H183.06V76.1129Z"
            fill="#544E4D" />
        <path
            d="M194.56 74.4401H192.519L192.241 76.02H190.201L192.519 66.4478H194.56L196.878 76.02H194.838L194.56 74.4401ZM194.189 72.5814L194.003 71.4662C193.91 70.8157 193.725 69.6075 193.632 68.864H193.539C193.447 69.6075 193.261 70.8157 193.168 71.4662L192.983 72.5814H194.189Z"
            fill="#544E4D" />
        <path
            d="M209.954 66.4478V76.02H208.006V72.1167H206.059V76.02H204.111V66.4478H206.059V70.258H208.006V66.4478H209.954Z"
            fill="#544E4D" />
        <path
            d="M218.022 66.4478H219.876V68.6782C219.876 69.6075 219.784 71.1874 219.598 72.3956C219.876 71.838 220.062 71.1874 220.34 70.5369L222.195 66.3549H224.142V75.9271H222.287V73.9754C222.287 72.8602 222.38 71.0945 222.473 69.8863C222.195 70.6298 221.917 71.4662 221.638 72.2097L220.062 75.9271H218.114V66.4478H218.022Z"
            fill="#544E4D" />
        <path
            d="M232.396 72.4885C231.561 72.0238 231.097 71.0015 231.097 69.7004C231.097 67.6559 232.21 66.4478 234.158 66.4478H236.94V76.02H234.992V72.8602H234.343L232.767 76.02H230.634L232.396 72.4885ZM234.9 71.0945V68.3064H234.065C233.416 68.3064 233.045 68.7711 233.045 69.7004C233.045 70.6298 233.416 71.0945 234.065 71.0945H234.9Z"
            fill="#544E4D" />
        <path
            d="M133.91 58.8271V55.1098C133.91 53.0652 135.023 52.043 136.878 52.043C138.825 52.043 139.845 53.1582 139.938 55.1098H137.991C137.898 54.2734 137.62 53.9016 136.878 53.9016C136.322 53.9016 135.951 54.2734 135.951 55.1098V58.8271C135.951 59.6636 136.322 60.0353 136.878 60.0353C137.62 60.0353 137.991 59.6636 137.991 58.8271H139.938C139.938 60.8717 138.825 61.894 136.878 61.894C135.023 61.894 133.91 60.8717 133.91 58.8271Z"
            fill="#544E4D" />
        <path
            d="M148.006 54.0876H146.152V61.8011H144.204V54.0876H142.349V52.2289H148.099V54.0876H148.006Z"
            fill="#544E4D" />
        <path
            d="M156.816 55.4816C156.816 57.5261 155.611 58.7343 153.663 58.7343H152.828V61.8011H150.881V52.2289H153.663C155.611 52.2289 156.816 53.437 156.816 55.4816ZM154.776 55.4816C154.776 54.5522 154.405 54.0876 153.57 54.0876H152.736V56.8756H153.57C154.405 56.8756 154.776 56.4109 154.776 55.4816Z"
            fill="#544E4D" />
        <path
            d="M159.598 58.6413V55.2957C159.598 53.2511 160.711 52.043 162.658 52.043C164.606 52.043 165.719 53.2511 165.719 55.2957V58.6413C165.719 60.6858 164.606 61.894 162.658 61.894C160.804 61.894 159.598 60.6858 159.598 58.6413ZM163.771 58.6413V55.2957C163.771 54.3663 163.4 53.9016 162.658 53.9016C161.917 53.9016 161.546 54.3663 161.546 55.2957V58.6413C161.546 59.5706 161.917 60.0353 162.658 60.0353C163.493 60.0353 163.771 59.5706 163.771 58.6413Z"
            fill="#544E4D" />
        <path
            d="M169.15 52.2288H171.005V54.4592C171.005 55.3886 170.912 56.9684 170.727 58.1766C170.912 57.619 171.19 56.9684 171.376 56.3179L173.23 52.1359H175.085V61.7081H173.23V59.7565C173.23 58.7342 173.323 56.8755 173.416 55.6674C173.138 56.4108 172.859 57.2472 172.581 57.9907L171.005 61.7081H169.15V52.2288Z"
            fill="#544E4D" />
        <path
            d="M183.895 54.0876H182.04V61.8011H180.093V54.0876H178.238V52.2289H183.988V54.0876H183.895Z"
            fill="#544E4D" />
        <path
            d="M191.778 59.9424V61.8011H186.77V52.2289H191.685V54.0876H188.717V56.0392H191.407V57.8049H188.717V59.9424H191.778Z"
            fill="#544E4D" />
        <path
            d="M201.051 52.2289V61.8011H199.104V54.0876H197.527C197.434 56.5968 197.249 58.1767 197.063 59.2919C196.692 61.6152 195.672 61.9869 194.096 61.9869V60.2212C194.652 60.2212 194.93 60.0353 195.209 58.8272C195.394 57.8979 195.487 56.318 195.672 52.3218H201.051V52.2289Z"
            fill="#544E4D" />
        <path
            d="M204.668 52.2289H206.615V55.8533H207.357C209.49 55.8533 210.417 57.1544 210.417 58.8272C210.417 60.8717 209.49 61.7081 207.357 61.7081H204.668V52.2289ZM207.172 60.0353C208.006 60.0353 208.377 59.6636 208.377 58.9201C208.377 58.0837 208.006 57.8049 207.172 57.8049H206.615V60.1283H207.172V60.0353Z"
            fill="#544E4D" />
        <path
            d="M219.135 52.2289V61.8011H217.187V57.8979H215.24V61.8011H213.292V52.2289H215.24V56.0392H217.187V52.2289H219.135Z"
            fill="#544E4D" />
        <path
            d="M226.275 60.2212H224.235L223.957 61.8011H221.917L224.235 52.2289H226.275L228.594 61.8011H226.553L226.275 60.2212ZM225.904 58.3625L225.719 57.2473C225.626 56.5968 225.441 55.3886 225.348 54.6452H225.255C225.162 55.3886 224.977 56.5968 224.884 57.2473L224.699 58.3625H225.904Z"
            fill="#544E4D" />
        <path
            d="M232.396 58.2696C231.561 57.8049 231.097 56.7826 231.097 55.4816C231.097 53.437 232.21 52.2289 234.065 52.2289H236.847V61.8011H234.9V58.7343H234.25L232.767 61.8011H230.634L232.396 58.2696ZM234.9 56.8756V54.0876H234.065C233.416 54.0876 233.045 54.5522 233.045 55.4816C233.045 56.4109 233.416 56.8756 234.065 56.8756H234.9Z"
            fill="#544E4D" />
    </g>
    <defs>
        <clipPath id="clip0_340_82">
            <rect width="240" height="121" fill="white" />
        </clipPath>
    </defs>
</svg>