<svg width="50" height="50" viewBox="0 0 50 50" fill="none" xmlns="http://www.w3.org/2000/svg">
<path fill-rule="evenodd" clip-rule="evenodd" d="M24.9998 3.125C34.7738 3.125 42.7082 11.0594 42.7082 20.8333C42.7082 25.9229 40.1686 31.1615 36.9801 35.5604C32.528 41.7042 26.9602 46.1833 26.9602 46.1833V46.1844C25.8155 47.1052 24.1842 47.1052 23.0394 46.1844V46.1833C23.0394 46.1833 17.4717 41.7042 13.0196 35.5604C9.83108 31.1615 7.2915 25.9229 7.2915 20.8333C7.2915 11.0594 15.2259 3.125 24.9998 3.125ZM24.9998 13.5417C29.0238 13.5417 32.2915 16.8094 32.2915 20.8333C32.2915 24.8573 29.0238 28.125 24.9998 28.125C20.9759 28.125 17.7082 24.8573 17.7082 20.8333C17.7082 16.8094 20.9759 13.5417 24.9998 13.5417Z" fill="#0495CE"/>
<rect x="11" y="7" width="28" height="28" rx="14" fill="white"/>
<path d="M18.848 26V16.72L16.832 17.28L16.416 15.68L19.424 14.72H20.8V26H18.848ZM28.1198 26.192C25.1758 26.192 23.2558 23.632 23.2558 20.4C23.2558 17.2 25.2078 14.608 28.1518 14.608C31.0798 14.608 33.0158 17.168 33.0158 20.4C33.0158 23.6 31.0638 26.192 28.1198 26.192ZM28.1518 24.416C29.8958 24.416 30.9838 22.64 30.9838 20.4C30.9838 18.192 29.8478 16.384 28.1198 16.384C26.3918 16.384 25.2878 18.144 25.2878 20.4C25.2878 22.608 26.4078 24.416 28.1518 24.416Z" fill="#0495CE"/>
</svg>
