<svg width="50" height="50" viewBox="0 0 50 50" fill="none" xmlns="http://www.w3.org/2000/svg">
<path fill-rule="evenodd" clip-rule="evenodd" d="M24.9998 3.125C34.7738 3.125 42.7082 11.0594 42.7082 20.8333C42.7082 25.9229 40.1686 31.1615 36.9801 35.5604C32.528 41.7042 26.9602 46.1833 26.9602 46.1833V46.1844C25.8155 47.1052 24.1842 47.1052 23.0394 46.1844V46.1833C23.0394 46.1833 17.4717 41.7042 13.0196 35.5604C9.83108 31.1615 7.2915 25.9229 7.2915 20.8333C7.2915 11.0594 15.2259 3.125 24.9998 3.125ZM24.9998 13.5417C29.0238 13.5417 32.2915 16.8094 32.2915 20.8333C32.2915 24.8573 29.0238 28.125 24.9998 28.125C20.9759 28.125 17.7082 24.8573 17.7082 20.8333C17.7082 16.8094 20.9759 13.5417 24.9998 13.5417Z" fill="#0495CE"/>
<rect x="11" y="7" width="28" height="28" rx="14" fill="white"/>
<path d="M24.348 26V16.72L22.332 17.28L21.916 15.68L24.924 14.72H26.3V26H24.348Z" fill="#0495CE"/>
</svg>
