<svg width="50" height="50" viewBox="0 0 50 50" fill="none" xmlns="http://www.w3.org/2000/svg">
<path fill-rule="evenodd" clip-rule="evenodd" d="M24.9998 3.125C34.7738 3.125 42.7082 11.0594 42.7082 20.8333C42.7082 25.9229 40.1686 31.1615 36.9801 35.5604C32.528 41.7042 26.9602 46.1833 26.9602 46.1833V46.1844C25.8155 47.1052 24.1842 47.1052 23.0394 46.1844V46.1833C23.0394 46.1833 17.4717 41.7042 13.0196 35.5604C9.83108 31.1615 7.2915 25.9229 7.2915 20.8333C7.2915 11.0594 15.2259 3.125 24.9998 3.125ZM24.9998 13.5417C29.0238 13.5417 32.2915 16.8094 32.2915 20.8333C32.2915 24.8573 29.0238 28.125 24.9998 28.125C20.9759 28.125 17.7082 24.8573 17.7082 20.8333C17.7082 16.8094 20.9759 13.5417 24.9998 13.5417Z" fill="#0495CE"/>
<rect x="11" y="7" width="28" height="28" rx="14" fill="white"/>
<path d="M20.784 26V24.448L24.64 21.168C26.176 19.872 26.736 19.152 26.736 18.144C26.736 17.04 25.952 16.4 24.928 16.4C23.904 16.4 23.2 16.96 22.336 18.08L20.944 16.992C22.016 15.488 23.072 14.64 25.072 14.64C27.264 14.64 28.768 15.984 28.768 18.016C28.768 19.776 27.824 20.72 25.856 22.352L23.552 24.272H28.88V26H20.784Z" fill="#0495CE"/>
</svg>
