<svg width="50" height="50" viewBox="0 0 50 50" fill="none" xmlns="http://www.w3.org/2000/svg">
<path fill-rule="evenodd" clip-rule="evenodd" d="M25.0001 3.125C34.774 3.125 42.7084 11.0594 42.7084 20.8333C42.7084 25.9229 40.1688 31.1615 36.9803 35.5604C32.5282 41.7042 26.9605 46.1833 26.9605 46.1833V46.1844C25.8157 47.1052 24.1845 47.1052 23.0397 46.1844V46.1833C23.0397 46.1833 17.4719 41.7042 13.0199 35.5604C9.83132 31.1615 7.29175 25.9229 7.29175 20.8333C7.29175 11.0594 15.2261 3.125 25.0001 3.125ZM25.0001 13.5417C29.024 13.5417 32.2917 16.8094 32.2917 20.8333C32.2917 24.8573 29.024 28.125 25.0001 28.125C20.9761 28.125 17.7084 24.8573 17.7084 20.8333C17.7084 16.8094 20.9761 13.5417 25.0001 13.5417Z" fill="#0495CE"/>
<rect x="11" y="7" width="28" height="28" rx="14" fill="white"/>
<path d="M24.976 26.192C23.024 26.192 21.632 25.376 20.688 24.224L22.064 22.944C22.864 23.888 23.76 24.416 25.008 24.416C26.112 24.416 26.944 23.744 26.944 22.688C26.944 21.584 25.936 20.96 24.368 20.96H23.456L23.136 19.728L26.16 16.512H21.312V14.8H28.72V16.272L25.6 19.472C27.376 19.728 28.896 20.64 28.896 22.656C28.896 24.72 27.296 26.192 24.976 26.192Z" fill="#0495CE"/>
</svg>
