<svg width="50" height="50" viewBox="0 0 50 50" fill="none" xmlns="http://www.w3.org/2000/svg">
<path fill-rule="evenodd" clip-rule="evenodd" d="M25.0001 3.125C34.774 3.125 42.7084 11.0594 42.7084 20.8333C42.7084 25.9229 40.1688 31.1615 36.9803 35.5604C32.5282 41.7042 26.9605 46.1833 26.9605 46.1833V46.1844C25.8157 47.1052 24.1845 47.1052 23.0397 46.1844V46.1833C23.0397 46.1833 17.4719 41.7042 13.0199 35.5604C9.83132 31.1615 7.29175 25.9229 7.29175 20.8333C7.29175 11.0594 15.2261 3.125 25.0001 3.125ZM25.0001 13.5417C29.024 13.5417 32.2917 16.8094 32.2917 20.8333C32.2917 24.8573 29.024 28.125 25.0001 28.125C20.9761 28.125 17.7084 24.8573 17.7084 20.8333C17.7084 16.8094 20.9761 13.5417 25.0001 13.5417Z" fill="#0495CE"/>
<rect x="11" y="7" width="28" height="28" rx="14" fill="white"/>
<path d="M26.092 26V23.488H20.444L20.076 22.08L26.3 14.72H27.98V21.872H29.58V23.488H27.98V26H26.092ZM22.412 21.872H26.092V17.44L22.412 21.872Z" fill="#0495CE"/>
</svg>
