<svg width="50" height="50" viewBox="0 0 50 50" fill="none" xmlns="http://www.w3.org/2000/svg">
<path fill-rule="evenodd" clip-rule="evenodd" d="M24.9998 3.125C34.7738 3.125 42.7082 11.0594 42.7082 20.8333C42.7082 25.9229 40.1686 31.1615 36.9801 35.5604C32.528 41.7042 26.9602 46.1833 26.9602 46.1833V46.1844C25.8155 47.1052 24.1842 47.1052 23.0394 46.1844V46.1833C23.0394 46.1833 17.4717 41.7042 13.0196 35.5604C9.83108 31.1615 7.2915 25.9229 7.2915 20.8333C7.2915 11.0594 15.2259 3.125 24.9998 3.125ZM24.9998 13.5417C29.0238 13.5417 32.2915 16.8094 32.2915 20.8333C32.2915 24.8573 29.0238 28.125 24.9998 28.125C20.9759 28.125 17.7082 24.8573 17.7082 20.8333C17.7082 16.8094 20.9759 13.5417 24.9998 13.5417Z" fill="#0495CE"/>
<rect x="11" y="7" width="28" height="28" rx="14" fill="white"/>
<path d="M24.892 26.192C23.516 26.192 22.524 25.76 21.788 25.024C20.924 24.16 20.412 22.992 20.412 20.704C20.412 17.28 22.044 14.608 25.212 14.608C26.668 14.608 27.66 15.072 28.636 15.856L27.58 17.376C26.796 16.768 26.124 16.4 25.148 16.4C23.484 16.4 22.556 17.904 22.46 19.952C23.052 19.376 23.82 18.832 25.132 18.832C27.308 18.832 29.052 20.112 29.052 22.384C29.052 24.608 27.244 26.192 24.892 26.192ZM24.844 24.496C26.236 24.496 27.084 23.616 27.084 22.432C27.084 21.312 26.188 20.48 24.796 20.48C23.404 20.48 22.524 21.376 22.524 22.48C22.524 23.616 23.436 24.496 24.844 24.496Z" fill="#0495CE"/>
</svg>
