<svg width="50" height="50" viewBox="0 0 50 50" fill="none" xmlns="http://www.w3.org/2000/svg">
<path fill-rule="evenodd" clip-rule="evenodd" d="M25.0001 3.125C34.774 3.125 42.7084 11.0594 42.7084 20.8333C42.7084 25.9229 40.1688 31.1615 36.9803 35.5604C32.5282 41.7042 26.9605 46.1833 26.9605 46.1833V46.1844C25.8157 47.1052 24.1845 47.1052 23.0397 46.1844V46.1833C23.0397 46.1833 17.4719 41.7042 13.0199 35.5604C9.83132 31.1615 7.29175 25.9229 7.29175 20.8333C7.29175 11.0594 15.2261 3.125 25.0001 3.125ZM25.0001 13.5417C29.024 13.5417 32.2917 16.8094 32.2917 20.8333C32.2917 24.8573 29.024 28.125 25.0001 28.125C20.9761 28.125 17.7084 24.8573 17.7084 20.8333C17.7084 16.8094 20.9761 13.5417 25.0001 13.5417Z" fill="#0495CE"/>
<rect x="11" y="7" width="28" height="28" rx="14" fill="white"/>
<path d="M24.54 26.16C22.092 26.16 20.268 24.88 20.268 22.928C20.268 21.568 21.02 20.72 22.284 20.192C21.34 19.696 20.652 18.944 20.652 17.664C20.652 15.952 22.3 14.64 24.54 14.64C26.78 14.64 28.428 15.936 28.428 17.696C28.428 18.944 27.74 19.696 26.796 20.192C28.012 20.752 28.812 21.552 28.812 22.912C28.812 24.912 26.988 26.16 24.54 26.16ZM24.54 19.536C25.692 19.536 26.54 18.848 26.54 17.856C26.54 16.992 25.74 16.288 24.54 16.288C23.34 16.288 22.54 16.992 22.54 17.872C22.54 18.848 23.388 19.536 24.54 19.536ZM24.54 24.512C26.012 24.512 26.892 23.76 26.892 22.8C26.892 21.776 25.868 21.104 24.54 21.104C23.212 21.104 22.188 21.776 22.188 22.832C22.188 23.744 23.068 24.512 24.54 24.512Z" fill="#0495CE"/>
</svg>
