<svg width="50" height="50" viewBox="0 0 50 50" fill="none" xmlns="http://www.w3.org/2000/svg">
<path fill-rule="evenodd" clip-rule="evenodd" d="M25.0001 3.125C34.774 3.125 42.7084 11.0594 42.7084 20.8333C42.7084 25.9229 40.1688 31.1615 36.9803 35.5604C32.5282 41.7042 26.9605 46.1833 26.9605 46.1833V46.1844C25.8157 47.1052 24.1845 47.1052 23.0397 46.1844V46.1833C23.0397 46.1833 17.4719 41.7042 13.0199 35.5604C9.83132 31.1615 7.29175 25.9229 7.29175 20.8333C7.29175 11.0594 15.2261 3.125 25.0001 3.125ZM25.0001 13.5417C29.024 13.5417 32.2917 16.8094 32.2917 20.8333C32.2917 24.8573 29.024 28.125 25.0001 28.125C20.9761 28.125 17.7084 24.8573 17.7084 20.8333C17.7084 16.8094 20.9761 13.5417 25.0001 13.5417Z" fill="#0495CE"/>
<rect x="11" y="7" width="28" height="28" rx="14" fill="white"/>
<path d="M24.284 26.192C22.732 26.192 21.644 25.632 20.7 24.848L21.772 23.344C22.62 24.064 23.372 24.4 24.332 24.4C25.98 24.4 26.972 22.944 27.036 20.88C26.476 21.552 25.612 22.064 24.412 22.064C22.028 22.064 20.444 20.672 20.444 18.48C20.444 16.288 22.14 14.608 24.62 14.608C26.028 14.608 26.94 15.008 27.724 15.792C28.556 16.624 29.084 17.856 29.084 20.096C29.084 23.696 27.292 26.192 24.284 26.192ZM24.7 20.416C26.124 20.416 26.972 19.488 26.972 18.368C26.972 17.2 26.06 16.304 24.636 16.304C23.244 16.304 22.412 17.232 22.412 18.416C22.412 19.584 23.308 20.416 24.7 20.416Z" fill="#0495CE"/>
</svg>
