<svg width="227" height="54" viewBox="0 0 227 54" fill="none" xmlns="http://www.w3.org/2000/svg">
<g clip-path="url(#clip0_262_1721)">
<path fill-rule="evenodd" clip-rule="evenodd" d="M3.32984 50.266V3.44681H48.6157V50.6489H3.80553C3.42498 50.6489 3.32984 50.5532 3.32984 50.266ZM0 54H51.9455V0H0V54Z" fill="white"/>
<path fill-rule="evenodd" clip-rule="evenodd" d="M12.6535 36.4788V33.3192H21.6916V39.5426L16.1736 38.9681C15.0319 38.7767 12.6535 38.7766 12.6535 36.4788ZM9.32364 30.4469C9.32364 35.4256 8.56253 39.7341 12.9389 41.649C13.9854 42.1277 15.6028 42.3192 17.125 42.4149C18.5521 42.5107 20.2645 42.8937 21.5965 42.8937V48.8298H24.736V29.9681H9.79933C9.41878 29.9681 9.32364 30.0639 9.32364 30.4469Z" fill="white"/>
<path fill-rule="evenodd" clip-rule="evenodd" d="M30.0639 39.3511V33.3192H39.102C39.102 37.7235 39.4826 38.2979 35.5819 38.8724L30.0639 39.3511ZM26.9243 48.8298C28.9222 48.8298 30.0639 49.1171 30.0639 48.3511V42.6064C31.3958 42.6064 33.2986 42.3192 34.4402 42.2235C36.1527 42.032 37.1993 42.1277 38.6263 41.5532C43.2881 39.7341 42.4319 34.8511 42.4319 29.9681H26.9243V48.8298Z" fill="white"/>
<path fill-rule="evenodd" clip-rule="evenodd" d="M11.9872 19.8191V16.7553H21.5962V26.1383H16.3636C12.4629 26.1383 11.9872 23.7447 11.9872 19.8191ZM8.84768 14.5532C8.84768 20.1064 7.8963 26.1383 12.6532 28.1489C13.5095 28.5319 14.7463 28.8191 15.8879 28.8191H24.7358V14.0745H9.32337C8.94282 14.0745 8.84768 14.1702 8.84768 14.5532Z" fill="white"/>
<path fill-rule="evenodd" clip-rule="evenodd" d="M35.7722 26.0425H30.0639V16.6596H39.6729C39.6729 20.9681 40.434 26.0425 35.7722 26.0425ZM26.9243 28.7234H33.584C40.1485 28.7234 42.9076 26.9043 42.9076 20.2979V14.0745H26.9243V28.7234Z" fill="white"/>
<path fill-rule="evenodd" clip-rule="evenodd" d="M32.0618 7.75535H29.9688C30.4444 8.42556 31.1104 8.52131 31.5861 9.28726L30.9201 11.2022C31.5861 11.0107 32.2521 10.3405 32.7278 9.95748C33.0132 10.149 33.2986 10.3405 33.584 10.5319C33.9646 10.8192 34.1548 11.0107 34.6305 11.1064C34.3451 10.4362 34.1548 9.67024 33.8694 9.00003C34.3451 8.7128 35.3916 8.04258 35.677 7.65961H33.3937C33.2035 6.98939 33.0132 6.31918 32.8229 5.55322C32.4423 6.03195 32.3472 7.08514 32.0618 7.75535Z" fill="white"/>
<path fill-rule="evenodd" clip-rule="evenodd" d="M10.9411 7.75531H8.75293L9.60917 8.42552C9.98973 8.71276 10.18 8.90424 10.5606 9.09573C10.3703 9.76595 9.98973 10.5319 9.98973 11.2021C10.3703 11.1064 11.2265 10.3404 11.7974 9.95744C12.3682 10.3404 13.2244 11.0106 13.605 11.2021C13.5098 10.4362 13.1293 9.76595 13.0342 9.09573C13.605 8.71276 14.3661 8.23403 14.6515 7.75531H12.5585C12.3682 7.27659 11.9876 6.22339 11.9876 5.64893H11.7022C11.5119 5.93616 11.1314 7.46808 10.9411 7.75531Z" fill="white"/>
<path fill-rule="evenodd" clip-rule="evenodd" d="M39.1017 7.75531H36.8184C37.0086 8.04254 38.2454 8.90424 38.626 9.09573C38.4357 9.76595 38.0552 10.5319 38.0552 11.2021C38.7211 10.8191 39.292 10.4362 39.8628 9.95744C40.1482 10.1489 40.4336 10.3404 40.719 10.6276C41.0996 10.9149 41.1947 11.1064 41.6704 11.2021C41.5753 10.4362 41.1947 9.76595 41.0996 9.09573C41.5753 8.8085 42.4315 8.23403 42.7169 7.75531H40.6239C40.3385 7.18084 40.2433 6.0319 39.7676 5.64893C39.6725 6.31914 39.292 6.98935 39.1017 7.75531Z" fill="white"/>
<path fill-rule="evenodd" clip-rule="evenodd" d="M18.0763 7.75535H15.793C16.0784 8.13833 17.1249 8.90429 17.6006 9.09578C17.3152 9.76599 17.1249 10.5319 16.8395 11.2022C17.6006 11.0107 18.0763 10.3405 18.8374 9.95748C19.3131 10.3405 19.9791 11.0107 20.645 11.2022C20.4547 10.4362 20.0742 9.76599 20.0742 8.90429C20.5499 8.80854 21.5013 8.04258 21.6915 7.65961H19.4082C19.3131 6.89365 18.9325 6.22344 18.8374 5.55322C18.4568 6.03195 18.0763 7.18088 18.0763 7.75535Z" fill="white"/>
<path fill-rule="evenodd" clip-rule="evenodd" d="M25.1163 7.75535H22.833C23.1184 8.13833 24.1649 8.90429 24.6406 9.09578C24.3552 9.76599 24.1649 10.5319 23.8795 11.2022C24.5455 11.0107 24.3552 11.0107 24.8309 10.6277C25.2115 10.3405 25.4969 10.149 25.7823 9.95748C25.7823 9.95748 25.8774 9.95748 25.8774 10.0532L25.9726 10.149C26.3531 10.4362 27.2094 11.1064 27.5899 11.2022C27.3996 10.4362 27.0191 9.76599 27.0191 8.90429C27.4948 8.80854 28.4462 8.04258 28.6364 7.65961H26.3531C26.258 7.08514 26.0677 5.84046 25.592 5.55322C25.4969 6.41492 25.3066 6.98939 25.1163 7.75535Z" fill="white"/>
<path fill-rule="evenodd" clip-rule="evenodd" d="M115.212 12.2552V4.59566H127.771C127.771 9.47864 128.437 11.1063 122.823 11.4893C121.206 11.6808 116.449 12.2552 115.212 12.2552ZM110.931 23.6489H115.212V16.2765C116.354 16.2765 117.591 16.085 118.828 15.9893C119.969 15.8935 121.111 15.702 122.443 15.702C123.299 16.9467 124.06 18.2871 124.821 19.6276C125.202 20.2978 125.582 20.8723 126.058 21.5425C126.344 22.0212 127.105 23.0744 127.2 23.5531H132.242C132.147 23.0744 127.58 15.7978 127.105 14.7446C128.532 14.6489 130.244 13.1169 131.005 12.1595C132.908 9.76587 132.432 4.6914 132.432 0.957361C132.432 0.670127 132.337 0.478638 131.957 0.478638H111.121V23.6489H110.931Z" fill="white"/>
<path fill-rule="evenodd" clip-rule="evenodd" d="M74.0175 19.6276H66.5967V4.5957H79.9161C79.9161 8.234 80.3918 14.9361 78.6793 17.5212C77.7279 18.8617 76.2057 19.6276 74.0175 19.6276ZM62.4106 23.6489C66.121 23.6489 69.7363 23.6489 73.4467 23.6489C75.73 23.6489 76.5863 23.4574 78.2987 22.8829C79.5355 22.5 80.3918 21.8297 81.3432 20.968L81.4383 20.8723L81.7237 20.5851C83.5314 18.5744 84.2925 15.6063 84.2925 11.8723C84.2925 8.13825 84.2925 4.40421 84.2925 0.670166H62.4106V23.6489Z" fill="white"/>
<path fill-rule="evenodd" clip-rule="evenodd" d="M183.807 1.05314V23.6489H188.279V8.42549C188.754 8.71272 195.795 17.0425 196.461 18L200.551 22.7872C201.503 24.0319 201.503 23.6489 204.833 23.6489V0.670166H200.551V16.0851C199.981 15.8936 196.936 12.0638 196.365 11.3936L188.088 1.62761C187.137 0.478677 187.613 0.765911 184.283 0.765911C183.902 0.574421 183.807 0.670166 183.807 1.05314Z" fill="white"/>
<path fill-rule="evenodd" clip-rule="evenodd" d="M91.7132 14.4574L94.9479 5.07442C95.1382 4.78719 94.9479 4.69144 95.4236 4.69144C99.8 4.69144 98.0875 3.92549 99.8951 8.61697C100.181 9.47868 101.227 12.0638 101.227 12.8297L91.7132 14.4574ZM84.1973 23.6489H88.6688L90.0958 19.7234C90.5715 18.0957 90.3813 18.6702 93.7111 18.0957L102.844 16.468C102.94 17.1383 103.225 17.7127 103.415 18.1914L105.128 23.6489H109.694L102.274 1.91485C102.083 1.43612 101.988 0.670166 101.512 0.670166H92.284C91.8083 0.670166 91.7132 1.34038 91.5229 1.8191C89.6201 7.85102 87.1466 14.5531 85.0535 20.6808C84.8632 21.5425 84.3875 22.6914 84.1973 23.6489Z" fill="white"/>
<path fill-rule="evenodd" clip-rule="evenodd" d="M163.828 14.4574L166.872 5.74468C167.253 4.40425 166.967 4.69148 170.392 4.69148C170.963 4.69148 170.963 5.45744 171.344 6.51063L173.437 12.9255C172.676 12.9255 171.819 13.117 171.058 13.3085C170.202 13.5 169.536 13.5957 168.585 13.6915C167.158 13.883 165.255 14.0745 163.828 14.4574ZM156.217 23.6489H160.688L162.401 18.5745L174.864 16.3723C174.959 17.617 177.052 22.3085 177.147 23.5532H181.714L173.817 0.574463H163.923L162.02 6.31914C161.449 8.23404 160.688 10.2447 160.022 12.0638L156.217 23.6489Z" fill="white"/>
<path fill-rule="evenodd" clip-rule="evenodd" d="M150.984 17.3297C150.984 20.7766 143.849 21.5425 139.472 18.2872C138.902 17.8085 138.521 17.3297 137.95 16.9468L134.335 19.2446C136.523 22.5957 140.614 24.4148 145.752 24.4148C149.843 24.4148 155.17 22.6914 155.17 18.1914C155.17 15.7978 155.075 14.4574 152.887 12.8297C148.701 9.67017 139.282 10.4361 139.282 7.3723C139.282 5.26591 141.375 4.02123 143.468 4.02123H144.895C146.988 4.02123 149.938 5.4574 150.318 7.08506C151.84 7.08506 153.363 6.3191 154.79 6.3191C154.409 4.69145 152.602 2.68081 151.365 1.91485C145.656 -1.81919 135.381 -0.191533 135.001 7.08506C134.906 8.61698 135.667 10.0531 136.428 10.9148C137.284 11.7766 138.521 12.4468 139.663 12.8297C143.278 14.3617 150.984 14.5531 150.984 17.3297Z" fill="white"/>
<path fill-rule="evenodd" clip-rule="evenodd" d="M62.4105 23.649V0.765973H84.102C83.6263 0.382994 73.9222 0.574484 73.2563 0.574484C69.5459 0.574484 65.9306 0.574484 62.2202 0.574484V23.266C62.3154 23.649 62.3154 23.4575 62.4105 23.649Z" fill="white"/>
<path fill-rule="evenodd" clip-rule="evenodd" d="M197.983 53.4256C203.025 53.4256 201.693 54.383 202.359 49.5958L203.596 39.3511C203.691 38.7766 203.786 37.9149 203.881 37.3405C203.976 37.532 203.881 37.3405 204.071 37.6277L209.589 49.5H215.012C215.107 48.9256 215.393 48.5426 215.678 47.9681L219.294 40.4043C219.579 39.8298 219.674 39.4469 219.959 38.8724L220.53 37.7235C220.721 37.4362 220.625 37.532 220.721 37.3405C220.816 37.9149 220.911 38.7766 221.006 39.3511L222.623 52.7554C222.718 53.8086 222.718 53.4256 226.619 53.4256C227.285 53.4256 227 52.9469 226.905 52.3724C226.809 51.7022 226.809 51.5107 226.714 50.8405L224.336 31.5001C224.146 29.9681 224.907 30.2554 219.769 30.2554C219.294 30.2554 219.293 30.8298 218.723 31.9788C218.342 32.649 218.152 33.2235 217.771 33.9894C217.486 34.6596 217.105 35.2341 216.82 35.9043C216.534 36.6703 216.249 37.149 215.869 37.8192L214.061 41.7447C213.775 42.4149 213.395 42.9894 213.11 43.6596L211.968 45.6703C211.778 44.8086 207.306 35.7128 206.545 33.9894L205.213 31.0213C204.737 29.8724 204.928 30.2554 200.551 30.2554C199.98 30.2554 200.076 31.3086 199.885 32.8405L197.507 52.1809C197.602 52.8511 197.412 53.4256 197.983 53.4256Z" fill="white"/>
<path fill-rule="evenodd" clip-rule="evenodd" d="M137.665 53.4255C137.95 52.2766 137.95 50.8404 138.14 49.5C138.426 47.2021 139.282 38.6809 139.663 37.3404C140.043 37.8192 143.468 45.2872 144.039 46.3404L145.466 49.4043H150.889L152.316 46.3404C152.601 45.766 152.697 45.383 152.982 44.8085L156.692 37.1489L158.405 51.5106C158.69 53.9043 157.834 53.4255 162.591 53.4255C163.257 53.4255 162.876 52.4681 162.686 50.8404L160.498 33.0319C160.403 31.7872 160.403 30.2553 159.832 30.2553C154.504 30.2553 155.836 29.8723 154.79 31.9787C152.887 35.8085 151.079 39.9255 149.272 43.6596C149.081 44.1383 148.511 45.1915 148.415 45.6702H148.13C147.94 44.9043 141.09 30.8298 140.995 30.2553C140.233 30.2553 137.189 30.1596 136.713 30.2553C136.238 30.3511 136.333 30.3511 136.238 30.8298L135.952 33.7979C135.572 36.4787 135.286 38.9681 135.001 41.6489L133.669 53.234C133.669 53.617 137.094 53.4255 137.665 53.4255Z" fill="white"/>
<path fill-rule="evenodd" clip-rule="evenodd" d="M91.0473 41.8405V34.1809H103.606C103.606 37.3405 104.176 39.3511 101.988 40.5001C100.751 41.1703 96.5654 41.3618 94.8529 41.5532C93.6161 41.649 92.2841 41.8405 91.0473 41.8405ZM86.7661 52.9469C86.7661 53.2341 86.8613 53.4256 87.2418 53.4256H91.1425V45.9575C93.6161 45.9575 95.9945 45.383 98.4681 45.383C98.5633 45.9575 102.179 51.7022 102.749 52.6596C103.035 53.1383 103.035 53.4256 103.701 53.4256C108.553 53.4256 108.458 53.7128 107.697 52.5639L103.606 45.766C103.415 45.383 103.035 45.0001 103.035 44.5213C105.033 44.3298 108.172 41.4575 108.172 37.9149V30.2554H86.7661V52.9469Z" fill="white"/>
<path fill-rule="evenodd" clip-rule="evenodd" d="M131.1 49.4043C128.531 49.4043 126.058 49.4043 123.489 49.4043C122.062 49.4043 116.829 49.5958 115.878 49.3085C115.783 48.1596 115.688 42.7022 115.973 42.032C117.4 41.9362 127.104 42.1277 127.39 41.8405C127.675 41.5532 127.485 38.5851 127.485 37.9149H115.878V34.1809H131.195V30.1596H112.548C111.407 30.1596 111.407 30.0639 111.407 31.1171V52.1809C111.407 53.6171 111.121 53.3298 114.451 53.3298C116.449 53.3298 130.72 53.4256 131.005 53.2341C131.29 53.0426 131.29 50.3617 131.195 49.6915L131.1 49.4043Z" fill="white"/>
<path fill-rule="evenodd" clip-rule="evenodd" d="M66.5967 41.8405V34.6597C66.5967 34.3724 66.6919 34.1809 67.0724 34.1809H78.9647C79.6307 34.1809 79.4404 35.2341 79.4404 37.0533C79.4404 41.649 75.6349 40.8831 70.7828 41.4575L66.5967 41.8405ZM62.4106 53.2341C62.6009 53.3299 62.4106 53.3299 62.6961 53.3299C62.8863 53.3299 63.0766 53.3299 63.2669 53.3299H66.5967V45.9575L74.0175 45.3831C75.1592 45.1916 76.396 45.1916 77.5376 44.9043C85.0536 42.9895 83.6265 36.766 83.6265 30.5426L62.5058 30.4469V53.2341H62.4106Z" fill="white"/>
<path fill-rule="evenodd" clip-rule="evenodd" d="M173.437 30.6384V41.266C173.437 45.2873 174.008 47.8724 175.815 50.2661C176.577 51.3192 177.718 52.2767 178.955 52.8512C183.141 54.8618 189.706 54.3831 192.94 50.0746C194.843 47.5852 195.224 44.7129 195.224 40.4043V30.6384C195.224 30.3512 195.129 30.1597 194.748 30.1597H190.752V43.0852C190.752 50.7448 182.951 50.3618 180.572 48.7341C178.955 47.5852 177.813 45.7661 177.813 43.2767V30.2554H173.818C173.532 30.2554 173.437 30.3512 173.437 30.6384Z" fill="white"/>
<path fill-rule="evenodd" clip-rule="evenodd" d="M165.73 52.9469C165.73 53.2341 165.826 53.4256 166.206 53.4256H169.631C169.917 53.4256 170.107 53.3298 170.107 52.9469V30.2554H165.826V52.9469H165.73Z" fill="white"/>
<path fill-rule="evenodd" clip-rule="evenodd" d="M62.4105 53.2343V30.3514L83.5312 30.4471C83.0555 29.9684 81.7236 30.2556 81.0576 30.2556C74.7785 30.2556 68.4993 30.2556 62.2202 30.2556V52.9471C62.3154 53.2343 62.3154 53.1386 62.4105 53.2343Z" fill="white"/>
<path fill-rule="evenodd" clip-rule="evenodd" d="M131.1 49.4043C130.625 49.0213 124.251 49.2128 123.68 49.2128C121.111 49.2128 118.542 49.2128 115.973 49.2128V42.032C115.688 42.7022 115.783 48.1596 115.878 49.3086C116.83 49.5958 122.157 49.4043 123.489 49.4043C126.058 49.4043 128.532 49.4043 131.1 49.4043Z" fill="white"/>
</g>
<defs>
<clipPath id="clip0_262_1721">
<rect width="227" height="54" fill="white"/>
</clipPath>
</defs>
</svg>
