<svg width="226" height="163" viewBox="0 0 226 163" fill="none" xmlns="http://www.w3.org/2000/svg">
<g clip-path="url(#clip0_229_762)">
<path d="M169.619 36.2696C186.366 37.524 203.11 42.1565 217.46 50.9345C219.638 52.2638 222.224 54.1077 224.248 55.6225C225.543 56.5944 224.13 58.5052 222.799 57.6546C187.867 34.6006 140.535 35.2479 104.116 55.1232C73.4045 71.9208 49.8142 100.36 36.8356 132.628C42.088 129.417 47.4017 126.553 52.7569 124.048C54.4193 123.347 55.0542 125.643 53.7184 126.521C44.1128 133.47 34.8416 141.785 26.2902 151.284C21.2843 155.935 23.5084 114.737 24.0852 110.818C24.1525 109.157 26.5986 107.878 26.8568 109.997C27.225 116.5 27.9405 122.89 28.9805 129.078C55.6189 74.2524 105.412 31.6695 169.619 36.2696Z" fill="white"/>
</g>
<defs>
<clipPath id="clip0_229_762">
<rect width="221" height="65" fill="white" transform="matrix(0.878562 -0.477629 -0.477629 -0.878562 31.0459 162.662)"/>
</clipPath>
</defs>
</svg>
