<svg width="149" height="75" viewBox="0 0 149 75" fill="none" xmlns="http://www.w3.org/2000/svg">
    <g clip-path="url(#clip0_294_573)">
        <path fill-rule="evenodd" clip-rule="evenodd"
            d="M63.7424 69.1244V74.3663H31.9573V67.5115L32.0146 69.0668L63.7424 69.1244Z"
            fill="#EDEDED" />
        <path fill-rule="evenodd" clip-rule="evenodd"
            d="M33.1621 25.0575L63.7424 16.2441V23.6174L33.1621 30.5299V25.0575ZM33.1621 32.1428V38.1335L63.7424 32.7188V25.4031L33.1621 32.1428ZM33.1621 39.6888L63.7424 34.3893V41.3594L33.1621 46.0828V39.6888ZM33.1621 47.6958V53.1681L63.7424 49.8847V42.9722L33.1621 47.6958ZM33.1621 54.7234L63.7424 51.8432V58.41L33.1621 60.4838V54.7234ZM33.1621 62.0967V67.5114L63.7424 67.3386V60.1958L33.1621 62.0967Z"
            fill="#C6C6C6" />
        <path fill-rule="evenodd" clip-rule="evenodd"
            d="M32.0146 73.9631V69.0668H63.3982C63.5129 70.6797 63.5129 72.2926 63.5129 73.9631H34.1949H32.0146ZM32.0146 67.5115V62.1544L62.4802 60.3687C62.8244 62.6728 63.1113 65.0346 63.2834 67.5115H32.0146ZM32.0146 60.5991L62.1933 58.8134C61.7917 56.394 61.218 54.1475 60.6442 51.9009L31.9573 54.8387V60.5991H32.0146ZM32.0146 53.2834V47.8687L58.005 43.8364C58.8083 45.9101 59.5541 48.0991 60.2426 50.3456L32.0146 53.2834ZM32.0146 46.3134L57.3739 42.3963C56.3986 40.0922 55.3658 37.9608 54.3331 35.9447L32.0146 39.8618V46.3134ZM32.0146 38.3065V32.3733L49.7432 28.4562C51.0628 30.2995 52.325 32.3157 53.5872 34.5622L32.0146 38.3065ZM32.0146 30.7604L48.7105 27.0737C47.2761 25.1152 45.8418 23.3295 44.4074 21.7742L31.9573 25.4032V30.7604H32.0146ZM32.0146 23.7327V1.09447C32.0146 0.518433 32.4736 0 33.1048 0C33.6785 0 34.1949 0.46083 34.1949 1.09447V4.95392L44.6369 8.06452L34.1949 11.1751V12.4424C34.1949 12.4424 38.211 15.0346 43.2599 20.4493L32.0146 23.7327Z"
            fill="url(#paint0_linear_294_573)" />
        <path fill-rule="evenodd" clip-rule="evenodd"
            d="M77.34 19.9308L64.603 16.2441V23.6174L77.34 26.4976V19.9308ZM77.34 28.1681V34.9077L64.603 32.6612V25.4031L77.34 28.1681ZM77.34 36.5782L64.603 34.3893V41.3594L77.34 43.3179V36.5782ZM77.34 44.9308V51.2096L64.603 49.8271V42.9146L77.34 44.9308ZM77.34 53.0529L64.603 51.8432V58.41L77.34 59.2741V53.0529ZM77.34 61.0022L64.603 60.1958V67.3386L77.34 67.3962V61.0022ZM64.603 69.1243V74.3663H77.34V69.1243H64.603Z"
            fill="#9D9D9C" />
        <path fill-rule="evenodd" clip-rule="evenodd"
            d="M88.4132 64.689V71.8894H89.618C90.5934 71.8894 91.1097 70.7374 91.1097 68.4908V67.742C91.1097 66.3019 90.995 65.3802 90.7655 65.0346C90.536 64.6314 90.1344 64.4585 89.5033 64.4585C89.0443 64.4585 88.7 64.5162 88.4132 64.689ZM88.4132 56.5092V61.1175H90.5934C92.4293 61.1175 93.8063 61.4632 94.6669 62.0968C95.4128 62.6728 95.8718 63.5945 96.1013 64.8618C96.216 65.553 96.2734 66.9355 96.2734 69.0668C96.2734 71.371 95.8718 72.9263 95.0112 73.7327C94.2079 74.5392 92.6015 75 90.3639 75H83.4216V53.2258H95.2407V56.5092H88.4132ZM109.01 75H98.5683V53.2258H109.01V56.5092H103.617V61.3479H108.896V64.5738H103.617V71.6014H109.01V75ZM116.182 56.394V64.6314H117.043C117.789 64.6314 118.305 64.4009 118.534 63.9401C118.764 63.4793 118.879 62.6152 118.879 61.2903V59.7927C118.879 58.5254 118.764 57.6037 118.534 57.1429C118.305 56.682 117.789 56.394 116.985 56.394H116.182ZM116.182 75H111.133V53.2258H117.903C120.084 53.2258 121.633 53.6291 122.493 54.4931C123.411 55.3572 123.813 56.8549 123.813 58.9862V61.3479C123.813 62.9032 123.641 64.1129 123.296 65.0346C122.78 66.3019 121.92 67.1083 120.715 67.4539C120.026 67.6844 118.477 67.742 116.182 67.742V75ZM136.665 75H126.223V53.2258H136.665V56.5092H131.271V61.3479H136.55V64.5738H131.271V71.6014H136.665V75ZM143.779 75H138.73V53.2258H149V56.5668H143.779V75Z"
            fill="url(#paint1_linear_294_573)" />
        <path
            d="M28.9164 25.5184V11.2903C28.9164 10.9447 28.5148 10.8871 28.3427 11.1175L18.6465 28.1682L2.98344 32.2004L0 37.3848L2.52445 37.6152V46.1405H2.46708H2.35233H2.29496H2.18021H2.06546H2.00809H1.89334H1.77859H1.72122H1.60647H1.5491H1.43435H1.3196H1.26223H1.14748H1.0901H0.975356H0.860608V48.0991H0.975356H1.0901H1.14748H1.26223H1.37697H1.49172H1.60647H1.72122H1.83596H1.95071H2.06546H2.18021H2.29496H2.4097H2.52445H2.6392H2.75395H2.86869H2.98344H3.09819H3.21294H3.32769H3.44243H3.55718H3.67193H3.78668H3.90142H4.01617H4.13092H4.24567H4.36042H4.01617H4.13092H4.24567H4.36042H4.47516H4.58991H4.70466H4.81941H4.93415H5.0489H5.16365H5.2784H5.39315H5.50789H5.62264H5.73739H5.85214H5.96688H6.08163H6.19638H6.31113H6.42588H6.54062H6.65537H6.77012H6.88487H6.99961H7.11436H7.22911H7.34386H7.45861V46.1405H7.34386H7.22911H7.11436H6.99961H6.88487H6.77012H6.65537H6.54062H6.42588H6.31113H6.19638H6.08163H5.96688H5.68001H5.62264H5.50789H5.45052H5.33577H5.22102V37.8456L18.1301 39.0553V73.7903H28.9164V40.0921V25.5184ZM26.2199 20.2765V26.2097L22.2611 27.2465L26.2199 20.2765ZM20.8267 63.8249V63.4792L26.2199 63.1912V69.9309L20.8267 63.8249ZM11.2453 35.7143L8.89295 33.4677L16.7532 31.4516L12.1059 35.7719L11.2453 35.7143ZM26.2199 60.1382L20.9988 55.0691L26.2199 54.4931V60.1382ZM25.9904 61.8087L20.8267 62.0968V56.8548L25.9904 61.8087ZM20.8267 53.7442V49.8848L25.474 53.2258L20.8267 53.7442ZM26.2199 52.0737L21.171 48.4447L26.2199 47.523V52.0737ZM20.8267 47.1198V41.0714L26.1051 46.1405L20.8267 47.1198ZM20.8267 30.4147L26.2199 29.0322V37.0968L20.8267 36.5783V30.4147ZM5.22102 34.3894L7.34386 33.871L9.06507 35.4839L5.22102 35.1382V34.3894ZM13.9419 35.9447L18.1875 31.97V36.3479L13.9419 35.9447ZM20.8267 65.841L25.474 71.0829H20.8267V65.841ZM26.2199 44.4124L20.9415 39.3433L26.2199 39.8617V44.4124Z"
            fill="url(#paint2_linear_294_573)" />
        <path
            d="M84.9134 44.8732L84.5691 45.3916V47.1197H83.3643V41.1865H84.5691V43.4907L84.856 42.7994L85.6592 41.1865H87.0362L85.5445 43.7787L87.3231 47.1197H85.9461L84.9134 44.8732Z"
            fill="#544E4D" />
        <path
            d="M91.454 45.219V43.1453C91.454 41.878 92.1998 41.1292 93.4047 41.1292C94.6095 41.1292 95.3554 41.878 95.3554 43.1453V45.219C95.3554 46.4863 94.6095 47.2351 93.4047 47.2351C92.1998 47.2351 91.454 46.4863 91.454 45.219ZM94.0932 45.219V43.1453C94.0932 42.5692 93.8637 42.2812 93.4047 42.2812C92.9457 42.2812 92.7162 42.5692 92.7162 43.1453V45.219C92.7162 45.795 92.9457 46.0831 93.4047 46.0831C93.8637 46.0831 94.0932 45.795 94.0932 45.219Z"
            fill="#544E4D" />
        <path
            d="M105.224 41.1865V47.1197H104.019V45.6796C104.076 44.9308 104.076 44.2395 104.134 43.4907H104.076L103.56 45.046L103.273 45.8524H102.068L101.781 45.046L101.265 43.4907H101.208C101.208 44.2395 101.265 44.9308 101.265 45.6796V47.1197H100.117V41.1865H101.322L102.24 43.4331C102.355 43.7211 102.585 44.2395 102.642 44.4699H102.699C102.757 44.2395 102.986 43.7211 103.101 43.4331L104.019 41.1865H105.224Z"
            fill="#544E4D" />
        <path d="M113.772 47.1773H112.568V42.3962H111.363V47.1773H110.158V41.1865H113.772V47.1773Z"
            fill="#544E4D" />
        <path
            d="M120.944 46.1404H119.682L119.51 47.1197H118.248L119.682 41.1865H120.944L122.378 47.1197H121.116L120.944 46.1404ZM120.657 44.9884L120.543 44.2971C120.485 43.8939 120.37 43.145 120.313 42.6842H120.256C120.198 43.145 120.084 43.8939 120.026 44.2971L119.911 44.9884H120.657Z"
            fill="#544E4D" />
        <path
            d="M130.468 41.1865V47.1197H129.263V44.7003H128.058V47.1197H126.796V41.1865H128.001V43.5483H129.206V41.1865H130.468Z"
            fill="#544E4D" />
        <path
            d="M135.402 41.1868H136.55V42.5692C136.55 43.1453 136.492 44.1245 136.378 44.8734C136.55 44.5278 136.665 44.1245 136.837 43.7213L137.984 41.1292H139.189V47.0623H138.042V45.8527C138.042 45.1614 138.099 44.0669 138.156 43.3181C137.984 43.7789 137.812 44.2974 137.64 44.7582L136.665 47.0623H135.402V41.1868Z"
            fill="#544E4D" />
        <path
            d="M144.295 44.9308C143.779 44.6427 143.492 44.0091 143.492 43.2027C143.492 41.9354 144.181 41.1865 145.385 41.1865H147.107V47.1197H145.902V45.1612H145.5L144.525 47.1197H143.205L144.295 44.9308ZM145.902 44.0667V42.3386H145.385C144.984 42.3386 144.754 42.6266 144.754 43.2027C144.754 43.7787 144.984 44.0667 145.385 44.0667H145.902Z"
            fill="#544E4D" />
        <path
            d="M83.4216 36.4631V34.159C83.4216 32.8917 84.1101 32.2581 85.2576 32.2581C86.4625 32.2581 87.0936 32.9493 87.1509 34.159H85.9461C85.8887 33.6405 85.7166 33.4101 85.2576 33.4101C84.9134 33.4101 84.6839 33.6405 84.6839 34.159V36.4631C84.6839 36.9816 84.9134 37.212 85.2576 37.212C85.7166 37.212 85.9461 36.9816 85.9461 36.4631H87.1509C87.1509 37.7304 86.4625 38.364 85.2576 38.364C84.0528 38.364 83.4216 37.7304 83.4216 36.4631Z"
            fill="#544E4D" />
        <path
            d="M92.1425 33.5254H90.995V38.3065H89.7901V33.5254H88.6426V32.3733H92.1998V33.5254H92.1425Z"
            fill="#544E4D" />
        <path
            d="M97.5356 34.3894C97.5356 35.6567 96.7898 36.4055 95.5849 36.4055H95.0686V38.3065H93.8637V32.3733H95.5849C96.7898 32.3733 97.5356 33.1221 97.5356 34.3894ZM96.2734 34.3894C96.2734 33.8134 96.0439 33.5254 95.5275 33.5254H95.0112V35.2535H95.5275C96.0439 35.2535 96.2734 34.9655 96.2734 34.3894Z"
            fill="#544E4D" />
        <path
            d="M99.3142 36.3479V34.2742C99.3142 33.0069 100.003 32.2581 101.208 32.2581C102.412 32.2581 103.101 33.0069 103.101 34.2742V36.3479C103.101 37.6152 102.412 38.364 101.208 38.364C100.003 38.364 99.3142 37.6152 99.3142 36.3479ZM101.896 36.3479V34.2742C101.896 33.6981 101.667 33.4101 101.208 33.4101C100.749 33.4101 100.519 33.6981 100.519 34.2742V36.3479C100.519 36.924 100.749 37.212 101.208 37.212C101.667 37.212 101.896 36.924 101.896 36.3479Z"
            fill="#544E4D" />
        <path
            d="M105.166 32.3733H106.314V33.7558C106.314 34.3318 106.256 35.3111 106.142 36.0599C106.256 35.7143 106.429 35.3111 106.543 34.9078L107.691 32.3157H108.838V38.2489H107.691V37.0392C107.691 36.4055 107.748 35.2535 107.806 34.5046C107.633 34.9654 107.461 35.4839 107.289 35.9447L106.314 38.2489H105.166V32.3733Z"
            fill="#544E4D" />
        <path
            d="M114.289 33.5254H113.141V38.3065H111.936V33.5254H110.789V32.3733H114.346V33.5254H114.289Z"
            fill="#544E4D" />
        <path
            d="M119.166 37.1544V38.3065H116.067V32.3733H119.108V33.5254H117.272V34.735H118.936V35.8295H117.272V37.1544H119.166Z"
            fill="#544E4D" />
        <path
            d="M124.903 32.3733V38.3065H123.698V33.5254H122.723C122.665 35.0807 122.551 36.0599 122.436 36.7512C122.206 38.1913 121.575 38.4217 120.6 38.4217V37.3272C120.944 37.3272 121.116 37.212 121.288 36.4632C121.403 35.8871 121.461 34.9079 121.575 32.4309H124.903V32.3733Z"
            fill="#544E4D" />
        <path
            d="M127.141 32.3733H128.345V34.6198H128.804C130.124 34.6198 130.698 35.4263 130.698 36.4632C130.698 37.7304 130.124 38.2489 128.804 38.2489H127.141V32.3733ZM128.69 37.212C129.206 37.212 129.436 36.9816 129.436 36.5208C129.436 36.0023 129.206 35.8295 128.69 35.8295H128.345V37.2696H128.69V37.212Z"
            fill="#544E4D" />
        <path
            d="M136.148 32.3733V38.3065H134.943V35.8871H133.739V38.3065H132.534V32.3733H133.739V34.735H134.943V32.3733H136.148Z"
            fill="#544E4D" />
        <path
            d="M140.509 37.3272H139.246L139.074 38.3065H137.812L139.246 32.3733H140.509L141.943 38.3065H140.681L140.509 37.3272ZM140.279 36.1751L140.164 35.4839C140.107 35.0807 139.992 34.3318 139.935 33.871H139.878C139.82 34.3318 139.705 35.0807 139.648 35.4839L139.533 36.1751H140.279Z"
            fill="#544E4D" />
        <path
            d="M144.353 36.1175C143.836 35.8295 143.549 35.1959 143.549 34.3894C143.549 33.1221 144.238 32.3733 145.385 32.3733H147.107V38.3065H145.902V36.4055H145.5L144.582 38.3065H143.263L144.353 36.1175ZM145.902 35.2535V33.5254H145.385C144.984 33.5254 144.754 33.8134 144.754 34.3894C144.754 34.9655 144.984 35.2535 145.385 35.2535H145.902Z"
            fill="#544E4D" />
    </g>
    <defs>
        <linearGradient id="paint0_linear_294_573" x1="55.8611" y1="61.0709" x2="28.9097"
            y2="30.4436" gradientUnits="userSpaceOnUse">
            <stop stop-color="#0669B2" />
            <stop offset="1" stop-color="#32447E" />
        </linearGradient>
        <linearGradient id="paint1_linear_294_573" x1="130.273" y1="66.841" x2="77.4966"
            y2="56.7632" gradientUnits="userSpaceOnUse">
            <stop stop-color="#0669B2" />
            <stop offset="1" stop-color="#32447E" />
        </linearGradient>
        <linearGradient id="paint2_linear_294_573" x1="0" y1="42.3998" x2="28.9195" y2="42.3998"
            gradientUnits="userSpaceOnUse">
            <stop stop-color="#0669B2" />
            <stop offset="1" stop-color="#32447E" />
        </linearGradient>
        <clipPath id="clip0_294_573">
            <rect width="149" height="75" fill="white" />
        </clipPath>
    </defs>
</svg>