<svg width="80" height="49" viewBox="0 0 80 49" fill="none" xmlns="http://www.w3.org/2000/svg">
<g clip-path="url(#clip0_340_9)">
<path d="M74.2275 0.872404C75.6151 0.708828 77.0212 0.454377 78.3348 0C78.3163 1.63576 78.3348 3.27151 78.3163 4.88909C77.8353 5.27077 77.2617 5.56157 76.6512 5.70697C75.2266 6.07047 73.7095 5.96142 72.3589 6.54303C71.2118 6.9974 70.4347 8.12426 70.3052 9.30564C70.6938 9.01484 71.0268 8.65134 71.4523 8.43324C73.6355 7.2155 76.7807 7.59718 78.3718 9.59644C79.3894 10.8687 79.7224 12.559 79.6669 14.1402C79.6299 15.6306 79.0379 17.1391 77.9093 18.1569C76.5032 19.4655 74.5235 19.9926 72.6179 20.0471C70.7493 20.1016 68.7696 19.7381 67.2525 18.6113C66.0684 17.7389 65.3098 16.4303 64.9028 15.0671C64.4588 13.5404 64.4403 11.941 64.5143 10.3598C64.6623 8.17878 65.2543 5.9069 66.7715 4.25297C68.6956 2.19918 71.4893 1.23591 74.2275 0.872404ZM71.4338 11.7411C70.8418 11.9228 70.4347 12.4681 70.3422 13.0679C70.2497 13.704 70.3052 14.4128 70.6753 14.9399C71.3783 15.8668 73.1359 15.7578 73.617 14.6491C73.9315 13.8676 73.9315 12.868 73.395 12.1773C72.9324 11.632 72.0999 11.5412 71.4338 11.7411ZM21.4616 6.01595C22.9972 5.65245 24.7178 5.81602 26.0869 6.61573C27.2155 7.23368 28.0296 8.28783 28.5291 9.43286C29.2506 11.1413 29.3617 13.0679 29.0101 14.8854C28.7141 16.3939 27.9926 17.9024 26.753 18.8657C25.4764 19.8835 23.7557 20.2107 22.1461 20.0471C21.0915 19.9381 20.0555 19.52 19.2414 18.8476C19.2414 20.9013 19.2414 22.9369 19.2414 24.9907C17.2432 24.9726 15.2451 24.9907 13.2469 24.9726C13.2654 18.7385 13.2654 12.4863 13.2469 6.25223C14.8381 6.25223 16.4107 6.25223 18.0018 6.25223C18.1683 6.79748 18.3348 7.32455 18.4828 7.86981C19.2784 6.9974 20.296 6.2704 21.4616 6.01595ZM20.37 10.6324C20.0925 10.7233 19.8149 10.8505 19.6114 11.0686C19.4449 11.2322 19.2044 11.3958 19.2414 11.6684C19.2414 12.5953 19.2229 13.5223 19.2599 14.4492C19.8149 15.3943 21.2395 15.6669 22.1461 15.049C22.7752 14.6128 23.0527 13.8131 23.0712 13.0861C23.1082 12.3227 22.8862 11.5048 22.2941 10.9959C21.7391 10.5415 20.999 10.4507 20.37 10.6324ZM31.2673 6.25223C33.2654 6.2704 35.2636 6.2704 37.2617 6.25223C37.2617 7.74258 37.2617 9.21476 37.2617 10.7051C38.1868 10.6869 39.0934 10.7051 40.0185 10.6869C40 9.21476 40.0185 7.74258 40.0185 6.2704C42.0166 6.21588 44.0148 6.2704 46.0129 6.23405C46.0129 10.6869 45.9944 15.1398 46.0129 19.5927C44.0148 19.6291 42.0166 19.5927 40.0185 19.6109C40.0185 18.1387 40.0185 16.6665 40.0185 15.1944C39.0934 15.1944 38.1868 15.1944 37.2617 15.1944C37.2802 16.6665 37.2617 18.1387 37.2802 19.6109C35.2821 19.6291 33.284 19.6109 31.2858 19.6109C31.2858 15.1762 31.2673 10.7051 31.2673 6.25223ZM48.4366 6.28858C50.1202 6.2704 51.8038 6.2704 53.4875 6.28858C53.802 6.30675 54.135 6.21588 54.4495 6.30675C54.4125 7.77893 54.4495 9.23294 54.431 10.7051C54.7826 10.7051 55.1526 10.7051 55.5041 10.7051C56.0962 9.21476 56.6882 7.72441 57.3358 6.25223C59.2784 6.30675 61.2025 6.2704 63.1452 6.25223C62.4236 8.23331 61.6466 10.178 60.9065 12.1591C60.888 12.3591 61.0175 12.5408 61.073 12.7226C61.9426 15.0308 62.7937 17.339 63.6632 19.6473C61.6651 19.6473 59.6669 19.6654 57.6503 19.6291C57.0582 18.1569 56.4662 16.6847 55.8556 15.2307C55.3746 15.2307 54.9121 15.2307 54.431 15.2307C54.4495 16.7029 54.4125 18.1751 54.4495 19.6473C52.4514 19.6654 50.4532 19.6473 48.4551 19.6473C48.4551 15.1944 48.4366 10.7415 48.4366 6.28858Z" fill="#313D49"/>
<path d="M6.56799 27.717C6.6605 27.6624 6.77151 27.6261 6.90102 27.6261C31.2673 27.6261 55.6337 27.6261 80 27.6261C79.408 29.6799 78.7419 31.7155 78.1129 33.7511C76.5402 38.8401 74.9306 43.911 73.3765 49C48.9177 49 24.4588 49 0 49C0.0370028 48.691 0.166512 48.382 0.259019 48.0731C2.31267 41.4755 4.36633 34.878 6.41998 28.2804C6.47549 28.0987 6.54949 27.9169 6.56799 27.717Z" fill="#02ABCA"/>
</g>
<defs>
<clipPath id="clip0_340_9">
<rect width="80" height="49" fill="white"/>
</clipPath>
</defs>
</svg>
