<svg width="57" height="13" viewBox="0 0 57 13" fill="none" xmlns="http://www.w3.org/2000/svg">
<g clip-path="url(#clip0_340_126)">
<path fill-rule="evenodd" clip-rule="evenodd" d="M36.9075 7.05845C36.9407 7.27845 36.9573 7.44768 37.007 7.61691C37.372 9.19075 38.5829 10.24 40.1587 10.3754C41.5521 10.4938 42.6468 9.95229 43.4596 8.7846C43.8577 8.22614 44.5047 8.1246 45.0189 8.58152C45.3175 8.83537 45.3506 9.17383 45.1184 9.49537C44.9857 9.6646 44.8696 9.83383 44.7369 10.02C44.2061 10.7646 43.5094 11.2723 42.6468 11.5769C41.2535 12.0677 39.8601 12.1354 38.4833 11.6108C36.6255 10.9169 35.5307 9.52922 35.2156 7.54922C35.0331 6.33076 35.1492 5.11229 35.6966 4.01229C36.4928 2.43845 37.7369 1.47383 39.462 1.18614C40.6066 0.999987 41.7345 1.11845 42.7961 1.64306C44.3056 2.37076 45.2179 3.60614 45.5663 5.24768C45.6658 5.7046 45.699 6.16152 45.7322 6.61845C45.7653 6.90614 45.6326 7.0246 45.3506 7.04152C45.2179 7.04152 45.1018 7.04152 44.9691 7.04152C42.398 7.04152 39.8269 7.04152 37.2724 7.04152C37.1563 7.05845 37.0734 7.05845 36.9075 7.05845ZM43.9241 5.33229C43.7085 3.85999 41.9668 2.57383 40.3577 2.67537C38.6824 2.77691 37.0236 4.07999 36.9573 5.33229C39.263 5.33229 41.6018 5.33229 43.9241 5.33229Z" fill="#9B9EA0"/>
<path fill-rule="evenodd" clip-rule="evenodd" d="M23.7369 7.00769C23.7535 7.16 23.7701 7.26153 23.7867 7.38C24.1018 9.12307 25.4952 10.3246 27.2203 10.3585C28.5307 10.3754 29.5426 9.83384 30.3056 8.75077C30.7037 8.17538 31.417 8.10769 31.9146 8.61538C32.1468 8.86923 32.1966 9.17384 31.9644 9.47846C31.8648 9.63076 31.7653 9.76615 31.6492 9.88461C31.0852 10.7308 30.3056 11.2723 29.3601 11.5938C27.9667 12.0677 26.5734 12.1015 25.2298 11.56C23.3056 10.7985 22.2274 9.2923 21.9952 7.19384C21.8791 6.17846 21.9786 5.19692 22.3933 4.26615C23.2061 2.50615 24.5165 1.42307 26.4241 1.16923C27.4359 1.03384 28.4478 1.11846 29.3767 1.50769C31.0686 2.21846 32.0473 3.55538 32.4288 5.36615C32.4952 5.7723 32.5449 6.2123 32.5615 6.61846C32.5781 6.95692 32.5118 7.02461 32.1634 7.02461C31.5663 7.02461 30.9359 7.02461 30.3222 7.02461C28.2653 7.02461 26.2085 7.02461 24.1848 7.02461C24.0355 7.00769 23.9028 7.00769 23.7369 7.00769ZM30.7867 5.28153C30.571 3.82615 28.8791 2.59076 27.2203 2.62461C25.6113 2.65846 23.9359 3.97846 23.8032 5.28153C26.1255 5.28153 28.4312 5.28153 30.7867 5.28153Z" fill="#9B9EA0"/>
<path fill-rule="evenodd" clip-rule="evenodd" d="M52.5995 7.78617C52.7322 7.90464 52.7986 7.97233 52.8815 8.04002C53.7773 8.81848 54.673 9.59694 55.5522 10.3754C55.6019 10.4262 55.6849 10.4939 55.7346 10.5446C56.0664 10.8831 56.0995 11.3739 55.7844 11.7123C55.4858 12.0508 55.0214 12.1016 54.673 11.8139C54.0427 11.2893 53.4455 10.7477 52.8318 10.2231C51.9526 9.46156 51.0901 8.70002 50.2109 7.93848C50.1446 7.87079 50.045 7.8031 49.9123 7.70156C49.9123 7.88771 49.8957 8.00617 49.8957 8.12464C49.8957 10.2739 49.8957 8.66617 49.8957 10.8154C49.8957 10.9169 49.8957 11.0185 49.8957 11.12C49.8626 11.5939 49.5142 11.9323 49.0498 11.8985C48.6019 11.8816 48.3033 11.5431 48.2867 11.0693C48.2867 10.9677 48.2867 10.8662 48.2867 10.7646C48.2867 6.51694 48.2867 6.02617 48.2867 1.77848C48.2867 1.6431 48.2867 1.52464 48.2867 1.38925C48.2867 1.08464 48.3199 1.03387 48.6019 1.03387C48.9834 1.01694 49.3649 1.01694 49.7465 1.01694C50.6588 1.01694 51.6043 1.05079 52.5166 1.00002C54.0593 0.932327 55.7844 2.20156 55.9503 4.04617C56.0995 5.70464 54.9882 7.27848 53.3294 7.61694C53.1138 7.66771 52.8815 7.7354 52.5995 7.78617ZM49.7962 6.4831C49.8958 6.50002 49.9621 6.50002 50.0119 6.50002C50.7749 6.50002 51.5545 6.50002 52.3176 6.50002C52.5332 6.50002 52.7654 6.4831 52.9811 6.39848C53.6943 6.17848 54.2583 5.73848 54.4408 4.96002C54.7559 3.6231 53.7773 2.40464 52.4337 2.40464C51.6375 2.40464 50.8578 2.40464 50.045 2.40464C49.9455 2.40464 49.8626 2.42156 49.763 2.42156C49.7962 3.7754 49.7962 5.11233 49.7962 6.4831Z" fill="#9B9EA0"/>
<path fill-rule="evenodd" clip-rule="evenodd" d="M17.7654 7.0246C16.2393 7.0246 14.763 7.0246 13.2535 7.0246C13.2535 7.15998 13.2369 7.27845 13.2369 7.39691C13.2369 8.58152 13.2369 9.74921 13.2369 10.9338C13.2369 11.0861 13.2369 11.2384 13.2037 11.3569C13.0876 11.7123 12.7227 11.9323 12.3744 11.9154C11.9928 11.8815 11.6777 11.5769 11.6279 11.1877C11.6113 11.0861 11.6279 11.0015 11.6279 10.9C11.6279 6.68614 11.6113 6.17845 11.6113 1.98152C11.6113 1.81229 11.6279 1.64306 11.6777 1.49075C11.8104 1.13537 12.1753 0.932293 12.5568 0.983062C12.9052 1.03383 13.2037 1.33845 13.2369 1.71075C13.2535 1.82922 13.2369 1.93075 13.2369 2.04922C13.2369 4.21537 13.2535 2.67537 13.2535 4.84152C13.2535 4.97691 13.2701 5.09537 13.2701 5.21383C13.5521 5.28152 17.4668 5.28152 17.7654 5.21383C17.7654 5.11229 17.7819 5.01075 17.7819 4.89229C17.7819 3.9446 17.7819 2.97998 17.7819 2.03229C17.7819 1.93075 17.7819 1.84614 17.7819 1.7446C17.8151 1.32152 18.1303 0.999985 18.545 0.983062C18.9597 0.966139 19.3412 1.28768 19.3909 1.71075C19.4075 1.81229 19.3909 1.89691 19.3909 1.99845C19.3909 4.95998 19.3909 7.9046 19.3909 10.8661C19.3909 10.9677 19.3909 11.0523 19.3909 11.1538C19.3412 11.5769 18.9763 11.9154 18.5616 11.8984C18.1469 11.8815 17.8151 11.5431 17.7654 11.12C17.7654 11.0184 17.7654 10.9338 17.7654 10.8323C17.7654 9.69845 17.7654 8.53075 17.7654 7.39691C17.7654 7.29537 17.7654 7.17691 17.7654 7.0246Z" fill="#9B9EA0"/>
<path fill-rule="evenodd" clip-rule="evenodd" d="M4.56159 11.983C3.48339 11.9661 2.47154 11.7292 1.54263 11.1538C1.14453 10.9169 0.7796 10.6123 0.481022 10.2569C0.331733 10.0707 0.149268 9.88459 0.0829176 9.64766C-0.0166085 9.34305 -0.0331962 9.00459 0.248794 8.73382C0.56396 8.4292 0.99524 8.31074 1.42652 8.59843C1.84121 8.90305 2.04026 9.29228 2.3886 9.64766C2.88623 10.1554 3.53315 10.4261 4.22984 10.5107C4.87676 10.5784 5.50709 10.5615 6.13742 10.3415C6.38623 10.24 6.65164 10.1215 6.86728 9.95228C7.26538 9.49536 7.3815 8.85228 6.90045 8.41228C6.66823 8.2092 6.36965 8.0569 6.07107 7.92151C5.34121 7.59997 4.57818 7.37997 3.81515 7.1769C3.18481 7.02459 2.58766 6.82151 1.95733 6.63536C1.7251 6.56766 1.49287 6.43228 1.27723 6.31382C0.696662 5.99228 0.364908 5.48459 0.265382 4.84151C0.0829176 3.50459 0.56396 2.30305 1.70851 1.71074C3.49998 0.813819 5.3578 0.898434 7.14927 1.93074C7.48102 2.1169 7.79619 2.40459 8.07818 2.65843C8.29382 2.84459 8.45969 3.11536 8.54263 3.40305C8.62557 3.75843 8.45969 4.13074 8.02842 4.23228C7.66349 4.3169 7.33173 4.19843 7.06633 3.91074C7.01657 3.85997 6.9668 3.79228 6.93363 3.74151C6.51894 3.09843 5.90519 2.74305 5.17533 2.60766C4.44548 2.47228 3.71562 2.4892 3.01894 2.7769C2.77012 2.87843 2.50472 3.01382 2.30567 3.19997C2.00709 3.60613 1.89097 4.14767 2.28908 4.65536C2.60424 4.95997 2.96917 5.1292 3.36728 5.21382C4.24642 5.43382 5.14216 5.67074 6.02131 5.89074C6.58529 6.04305 7.13268 6.2292 7.6469 6.53382C8.31041 6.8892 8.79145 7.41382 8.95732 8.17536C9.15638 9.10613 8.95732 9.98613 8.24405 10.663C7.43126 11.4077 6.50235 11.8138 5.42415 11.9323C5.12557 11.9661 4.82699 11.9661 4.56159 11.983Z" fill="#9B9EA0"/>
</g>
<defs>
<clipPath id="clip0_340_126">
<rect width="57" height="13" fill="white"/>
</clipPath>
</defs>
</svg>
