<svg width="48" height="48" viewBox="0 0 48 48" fill="none" xmlns="http://www.w3.org/2000/svg">
<circle cx="24" cy="24" r="24" fill="#2F80ED"/>
<path d="M28.4906 32.1006C28.35 32.1006 28.2103 32.059 28.0905 31.9777L23.5646 28.9077L21.1371 30.6544C20.9467 30.7913 20.7014 30.8258 20.4803 30.7467C20.2595 30.6675 20.0918 30.4846 20.032 30.2578L18.8131 25.6387L14.458 23.9735C14.1838 23.8686 14.002 23.6063 14 23.3127C13.998 23.0192 14.1762 22.7544 14.4491 22.6458L31.0088 16.0566C31.084 16.0247 31.1635 16.0062 31.2437 16.0013C31.2724 15.9996 31.3011 15.9996 31.3297 16.0012C31.4958 16.0111 31.6589 16.0787 31.7862 16.2036C31.7994 16.2165 31.812 16.2297 31.8238 16.2435C31.9293 16.3639 31.9872 16.5108 31.9982 16.6604C32.0008 16.698 32.0006 16.7361 31.9973 16.7742C31.995 16.8014 31.9911 16.8285 31.9856 16.8553L29.1904 31.5214C29.1455 31.757 28.9851 31.9543 28.7636 32.0461C28.6757 32.0826 28.5829 32.1006 28.4906 32.1006ZM23.962 27.4553L27.9935 30.1899L30.1685 18.7781L22.3131 26.3369L23.943 27.4425C23.9495 27.4466 23.9558 27.451 23.962 27.4553ZM20.6059 26.8472L21.1457 28.8926L22.3087 28.0557L20.7858 27.0227C20.715 26.9748 20.6544 26.9152 20.6059 26.8472ZM16.673 23.2946L19.6634 24.4379C19.8776 24.5198 20.0393 24.6999 20.0978 24.9217L20.4771 26.3589C20.4944 26.1931 20.5696 26.0372 20.6917 25.9196L28.1767 18.7173L16.673 23.2946Z" fill="white"/>
</svg>
