<svg width="48" height="48" viewBox="0 0 48 48" fill="none" xmlns="http://www.w3.org/2000/svg">
<circle cx="24" cy="24" r="24" fill="#5FBC74"/>
<path d="M30.3401 17.6139C28.6476 15.9293 26.396 15.001 23.9996 15C21.6086 15 19.3534 15.9275 17.6497 17.6117C15.943 19.2988 15.0022 21.5408 15 23.9166V23.921C15.0003 25.359 15.3784 26.8096 16.0963 28.1337L15.0246 33L19.9516 31.8804C21.1995 32.5086 22.5918 32.8399 23.9962 32.8404H23.9997C26.3903 32.8404 28.6455 31.9128 30.3495 30.2284C32.0577 28.54 32.9989 26.3008 33 23.9235C33.0007 21.563 32.0562 19.3222 30.3401 17.6139ZM23.9996 31.4355H23.9964C22.7355 31.435 21.4861 31.1187 20.3835 30.5207L20.1505 30.3943L16.8743 31.1388L17.5859 27.9077L17.4487 27.6714C16.7667 26.4962 16.4062 25.199 16.4062 23.9195C16.4088 19.7781 19.8149 16.4049 23.9993 16.4049C26.0208 16.4057 27.9203 17.1886 29.3477 18.6091C30.7966 20.0517 31.5943 21.9388 31.5936 23.9231C31.592 28.0655 28.1853 31.4355 23.9996 31.4355Z" fill="white"/>
<path d="M21.5507 19.9874H21.1562C21.0189 19.9874 20.7959 20.0387 20.6073 20.2438C20.4186 20.4489 19.8867 20.9448 19.8867 21.9534C19.8867 22.9619 20.6245 23.9364 20.7273 24.0733C20.8303 24.2101 22.1514 26.3459 24.2439 27.1675C25.9829 27.8503 26.3368 27.7145 26.7142 27.6803C27.0916 27.6462 27.9322 27.1845 28.1038 26.7059C28.2753 26.2273 28.2753 25.817 28.2239 25.7313C28.1724 25.6459 28.035 25.5947 27.8293 25.4922C27.6233 25.3896 26.6144 24.8854 26.4256 24.8168C26.2369 24.7486 26.0997 24.7144 25.9624 24.9197C25.8251 25.1246 25.4208 25.5986 25.3007 25.7354C25.1807 25.8723 25.0605 25.8895 24.8546 25.7869C24.6487 25.6841 23.9924 25.4638 23.206 24.7656C22.5939 24.2222 22.1692 23.5292 22.049 23.3241C21.929 23.119 22.0362 23.0081 22.1395 22.9058C22.232 22.814 22.3569 22.6885 22.4599 22.5689C22.5627 22.4491 22.592 22.3637 22.6607 22.2269C22.7293 22.0902 22.6949 21.9704 22.6435 21.868C22.592 21.7654 22.1969 20.7518 22.0138 20.3464C21.8596 20.005 21.6974 19.9934 21.5507 19.9874Z" fill="white"/>
</svg>
